<?xml version="1.0" encoding="utf-8"?>
<!-- Generator: Adobe Illustrator 23.0.4, SVG Export Plug-In . SVG Version: 6.00 Build 0)  -->
<svg version="1.1" id="Layer_1" xmlns="http://www.w3.org/2000/svg" xmlns:xlink="http://www.w3.org/1999/xlink" x="0px" y="0px"
	 viewBox="0 0 384.1 327.2" style="enable-background:new 0 0 384.1 327.2;" xml:space="preserve">
<g>
	<path d="M362.1,172.4c-0.3-4.6-2.3-8.3-5.2-11.6c-3-3.4-6.5-6.2-10.6-6.2c-3.2,0-5.2,2.8-4.9,6.2c0.4,4.4,5.1,10.8,9.1,12.6
		c0.8,0.4,1.9,0.6,2.5,0.5c3.3-0.2,2.8-3.8,1.7-6c-1.3-2.8-3.3-4.7-5.8-6.1c-0.4-0.2-1-0.8-1.5-0.4c-0.4,0.7,0.6,0.8,1.2,1.1
		c2,1.1,3.5,2.6,4.8,4.8c0.7,1.2,2.1,4,0.5,5.2c-1.8,1.4-4.8-1.1-6.4-2.7c-1.2-1.2-3.2-3.8-3.9-5.3s-1.4-3.1-1.1-5.3
		c0.3-2.3,2-3.8,4.9-3.5c1.8,0.2,3.9,1.4,5.4,2.5c4,3.1,8.7,9.2,8.4,15.5c-0.2,3.9-2.7,6.6-6.7,6.6c-4.8,0-8-2.9-10.7-5.3
		c-0.6-0.6-1.7-2-2.4-2.3c-0.4-0.2,0,0-0.3,0.2c-0.7,0.5-0.1,1,0.4,1.5c1.3,1.4,3.7,3.1,4.9,3.9c2.2,1.5,5,3.2,8.6,3
		C359.6,181.2,362.4,177.5,362.1,172.4L362.1,172.4z M346.6,127.6c0.2-0.9,0.2-1.9,0-2.9c-0.2-1-0.6-2.4-1.2-4l-5-13.4l-0.5,0.2
		c0,0.4,0,0.7-0.1,0.9c-0.1,0.2-0.3,0.4-0.7,0.5l-18.1,6.8c-0.3,0.1-0.6,0.1-0.8,0.1c-0.2-0.1-0.5-0.3-0.7-0.6l-0.5,0.2l2.5,6.7
		l0.5-0.2c0-0.4,0-0.7,0.1-0.9c0.1-0.2,0.3-0.4,0.7-0.5l7.1-2.7l2.2,5.7l-4.7,6.7c-0.5,0.8-0.9,1.2-1.1,1.2
		c-0.3,0.1-0.6-0.1-0.9-0.6l-0.5,0.2l2.9,7.7l0.5-0.2c-0.2-0.5-0.1-1,0-1.4c0.2-0.5,0.6-1.2,1.4-2.4l4.3-6.4c2,3.6,4.8,4.8,8.3,3.5
		c1-0.4,1.9-1,2.7-1.7C345.8,129.5,346.3,128.6,346.6,127.6L346.6,127.6z M342.5,125.2c-0.1,1-0.8,1.6-1.9,2.1
		c-1.1,0.4-2,0.3-2.8-0.3c-0.3-0.3-0.6-0.6-0.8-1.1c-0.2-0.4-0.5-1.2-1-2.2l-2.7-7.2l5.6-2.1l2.7,7.2c0.4,1.1,0.7,1.9,0.8,2.3
		C342.6,124.3,342.6,124.8,342.5,125.2L342.5,125.2z M330.8,95.5c0.5-3.1-0.4-6.4-2.6-9.7c-3-4.4-6.7-6.5-11-6.3
		c-2.2,0.1-4.3,0.8-6.2,2.1c-1.3,0.9-2.4,1.9-3.2,3.2c-1,1.4-1.6,3-1.9,4.7c-0.5,3.1,0.4,6.4,2.6,9.6c3,4.4,6.6,6.5,11,6.3
		c2.2-0.1,4.3-0.7,6.1-1.9C328.6,101.5,330.3,98.8,330.8,95.5L330.8,95.5z M326.4,93.6c-0.3,2.3-1.5,4.1-3.6,5.6
		c-0.9,0.6-1.8,1-2.9,1.2c-1.2,0.2-2.3,0.2-3.5-0.1c-1.9-0.5-3.4-1.6-4.7-3.4s-1.7-3.7-1.5-5.6c0.3-2.3,1.5-4.1,3.5-5.5
		c2.1-1.4,4.2-1.8,6.4-1.2c1.9,0.5,3.4,1.6,4.7,3.4C326.2,89.8,326.7,91.7,326.4,93.6L326.4,93.6z M303.6,58.5l0.4-0.4l-5.1-4.9
		l-0.4,0.4c0.2,0.4,0.3,0.7,0.3,0.9c0,0.2-0.1,0.5-0.4,0.7l-13.4,14c-0.2,0.2-0.5,0.4-0.7,0.4c-0.2,0-0.5-0.1-0.9-0.3l-0.4,0.4
		l14.5,13.9c0.2,0.2,0.4,0.5,0.4,0.7c0,0.2-0.1,0.5-0.3,0.9l0.4,0.4l4.1-4.3l-0.4-0.4c-0.4,0.2-0.7,0.3-0.9,0.3
		c-0.2,0-0.5-0.1-0.7-0.4l-10.1-9.8l12-12.5c0.2-0.2,0.5-0.4,0.7-0.4C302.9,58.2,303.2,58.3,303.6,58.5L303.6,58.5z M291.9,48
		l0.3-0.4l-7.4-4.8l-0.3,0.4c0.3,0.2,0.4,0.5,0.5,0.8c0.1,0.3,0,0.5-0.1,0.7c-0.1,0.2-0.6,0.4-1.3,0.8l-6.9,2.9l-0.2-7.4
		c0-0.8,0-1.3,0.1-1.5c0.3-0.5,0.8-0.6,1.5-0.3l0.3-0.4l-7.6-4.9l-0.3,0.4c0.4,0.3,0.7,0.7,0.8,1.2c0.1,0.4,0.2,1.2,0.3,2.3
		l0.6,12.8l-4.2,6.6c-0.2,0.3-0.4,0.5-0.6,0.5c-0.2,0.1-0.6,0-1-0.1l-0.3,0.4l6,3.9l0.3-0.4c-0.3-0.3-0.4-0.6-0.5-0.8s0-0.5,0.2-0.8
		l4.2-6.6l11.8-4.8c1-0.4,1.8-0.6,2.2-0.7C290.9,47.7,291.4,47.8,291.9,48L291.9,48z M259.1,53.3l0.2-0.5c-0.4-0.3-0.7-0.6-0.8-0.9
		c-0.2-0.4-0.3-0.9-0.3-1.8l-1.5-19.6c0-0.5,0-0.8,0.1-1.1c0.2-0.4,0.6-0.6,1.3-0.6l0.2-0.5l-7.5-3.1l-0.2,0.5
		c0.5,0.4,0.7,0.9,0.5,1.4c-0.1,0.3-0.4,0.7-0.9,1.1l-14.4,13.1c-0.5,0.5-0.9,0.8-1.2,0.9c-0.3,0.1-0.7,0.1-1.1,0.1l-0.2,0.5l7,2.8
		l0.2-0.5c-0.6-0.5-0.8-0.9-0.6-1.4c0.1-0.2,0.3-0.5,0.7-0.9l2.6-2.4l9.6,3.9L253,48c0,0.5,0,0.9-0.1,1.1c-0.2,0.5-0.7,0.7-1.4,0.6
		l-0.2,0.5L259.1,53.3L259.1,53.3z M252.6,41l-6.9-2.8l6.6-6.1L252.6,41L252.6,41z M236.4,25.2l1.2-5.8l-0.5-0.1
		c-0.2,0.4-0.4,0.6-0.6,0.7c-0.2,0.1-0.5,0.1-0.8,0.1l-18.8-3.9c-0.3-0.1-0.6-0.2-0.7-0.4c-0.1-0.2-0.2-0.5-0.3-0.9l-0.5-0.1
		l-1.2,5.8l0.5,0.1c0.2-0.4,0.4-0.6,0.6-0.7c0.2-0.1,0.5-0.1,0.8-0.1l7,1.4l-3.5,17c-0.1,0.3-0.2,0.6-0.4,0.7
		c-0.2,0.1-0.5,0.2-0.9,0.3l-0.1,0.5l7,1.4l0.1-0.5c-0.4-0.2-0.6-0.4-0.7-0.6c-0.1-0.2-0.1-0.5-0.1-0.8l3.5-17l7,1.4
		c0.3,0.1,0.6,0.2,0.7,0.4c0.1,0.2,0.2,0.5,0.3,0.9L236.4,25.2L236.4,25.2z M341.1,175c-0.2,0.2,0,0.2,0.1,0.3
		c0.7,1.4,2,2.6,3.2,3.8c2.1,2.3,4.5,4.9,7.2,6.7c0.9,0.7,4.2,2.7,4.4,0.8c0.2-1.6-2.9-2.3-3.8-2.7c-4.5-2.2-7.7-5.6-10.7-8.9
		L341.1,175L341.1,175z M343.8,180.1c-1.4-1.9-2.6-4-4.2-5.7c-1,0.2-0.4,1.1,0.1,1.8c3.7,5.4,7.2,10.8,9.9,17c0.4,1,0.8,2.1,1.4,3.5
		c0.4,1,1.4,2.6,2.5,2.2c1.2-0.5,0.1-2.9-0.1-3.5C350.9,189.3,347.1,184.9,343.8,180.1L343.8,180.1z M340.2,170.2
		c-0.8,2.1-2.1,4.2-5.1,3.8c-0.1,1.2,0.8,1.6,2.2,1.2C339.1,174.7,342.6,171.2,340.2,170.2L340.2,170.2z M338.9,170
		c-0.1,0.2-0.4,0.4-0.5,0.6c0.2,0.5,0.5,0.8,0.9,1.1C339.8,171.3,339.6,170.2,338.9,170L338.9,170z M337.7,171.4
		c-0.2,0.2-0.4,0.3-0.7,0.4c0.1,0.5,0.5,0.7,0.7,1.2c0.4-0.1,0.5-0.4,0.8-0.7C338.1,172.1,338,171.7,337.7,171.4L337.7,171.4z
		 M336.7,173.5c-0.2-0.4-0.2-0.9-0.7-1.1c-0.1,0.2-0.3,0.2-0.5,0.2c0,0.5,0.3,0.8,0.4,1.2C336.4,173.9,336.6,173.8,336.7,173.5
		L336.7,173.5z M338.1,167.5c0,1.9-1.7,3.6-3.2,3.9c-0.5,0.1-1.3-0.2-1.4,0.1c0.6,3,6-0.9,5.4-3.5
		C338.6,167.9,338.6,167.5,338.1,167.5L338.1,167.5z M331.7,149.6c-0.2,1.7,0.3,3.9,0.5,5.8c0.5,3.6,1.5,6.6,2.7,9.4
		c0.6,1.5,1.2,2.9,2.3,3.9c0.7-0.7,0.1-1.3-0.2-2c-2.6-4.8-4.1-10.5-4.5-17.5h-0.8C331.7,149.3,331.7,149.5,331.7,149.6L331.7,149.6
		z M332.4,162.6c0.6,2,1.6,3.9,2.5,5.6c0.3,0.6,0.5,1.4,1.2,1.6c0.8-0.4,0.1-1.2-0.2-1.7c-0.7-1.3-1.4-2.5-2-3.7
		c-0.3-0.7-0.5-1.5-1-2c0-0.1-0.1-0.1-0.2-0.1C332.7,162.6,332.5,162.5,332.4,162.6L332.4,162.6z M334.1,170.9
		c0.2-0.2,0.6-0.2,0.9-0.3c-0.6-1.1-1.2-2.6-2.7-2.4c-0.2,0.3-0.2,0.7-0.2,1.2C332.9,169.8,333.5,170.3,334.1,170.9L334.1,170.9z
		 M341.3,190.1c0.4-5.5-1.9-10.6-3.5-14.6h-0.2c-0.2,0.1-0.3,0.2-0.4,0.2c0,0.9,0.5,1.9,0.9,2.9c1.1,2.8,2.3,6.6,2.3,10.1
		c0,2.6-1,5.9-3,6.5c-1.7,0.5-3.5-0.5-3.2-2.5c0.1-0.9,1-1.7,2-1.4c1,0.2,1.2,2.3-0.8,1.8c1.1,1.8,3,0,2.6-1.5
		c-0.2-0.8-1.2-1.5-2.1-1.5c-1.8-0.1-3.1,1.8-2.7,3.7c0.3,1.3,1.7,2.6,3.4,2.6C339.6,196.4,341.1,192.7,341.3,190.1L341.3,190.1z
		 M343.3,188.3c0.1,1.2,0,2.5,0,4.1c0,1.1-0.2,2.9,1.2,2.9c0.7,0,1.3-1,1.4-1.8c0.2-1.7-0.3-3.7-0.8-5.1c-1.3-4.4-3.8-9.1-5.9-12
		c0-0.1-0.2-0.1-0.3-0.1c0,0.1-0.1,0.1-0.1,0.3C340.2,179.6,343,183.7,343.3,188.3L343.3,188.3z M198.6,59.3c-0.1-2-0.4-3.4-1.1-5.1
		c-0.9-2.2-3.8-4-6.8-4c-3,0-8.8,1.9-9.9,2.4c-0.7,0.3-1.1,0.9-1.1,1.9c0.1,1.8,0.8,4.7,3.4,3.5c3-1.4,3.4-0.6,3.3,1.3
		c-62.9,3-113.1,54.1-113.1,116.6c0,11.7,0.9,22.6,4.2,33.3l0.8,2.9c-2.8-0.6-6.1-1-8.9-0.7c-4.1,0.4-8,2.6-10.3,6.2
		c-0.9,1.4-1.5,3.1-1.8,4.7c-1.3,6.2-0.4,12.5-0.4,18.7c0,2.9-0.5,6.2-1,8.4c-0.8,3.6-2.5,6.4-4.9,9.1c-1.9,2.1-4.5,3.4-7.3,3.5
		c-1.3,0-2.8-0.4-4-0.9c-4.1-1.8-7.2-5.9-7.7-10.4c-0.5-5,1.4-9.9,4.5-13.7c1-1.2,2.7-3.3,4.4-3.3c0.9,0,1.4,0.8,2.3,1
		c3.6,0.8,4.5-2.7,3.1-5.2c-0.5-1-1.5-2-2.5-2.5c-1.9-1.1-4.3-1.3-6.4-1.4c-2.5-0.1-5.2,0.5-7.5,1.6c-1.6,0.8-3.2,2.3-4.3,3.7
		c-2,2.7-2.9,6.3-3.2,9.5c-0.4,4,0.4,8.4,2.2,12.1c2,4.1,5.1,7.5,9.2,9.6c3,1.5,6.4,2,9.8,2.2c4.8,0.2,9.1-0.5,13.6-2
		c0.1,2,0.2,14.3,0.2,14.3l45,0.1c0,0,5.3,9.9,6.1,9.8s7-3.9,9.1-5.1c2.6-1.4,5.5-2.6,8.2-3.9c2,1.4,4.1,2.7,6.3,3.9
		c13.1,7.6,27.9,12.8,43.7,14.8c0.6,0.6,1.1,1.2,1.7,1.8c0.7,0.7,1.4,1.4,2,2.2c3.3,3.6,7.2,7,10.5,10.6c0.5,0.5,1.6,2.2,2,2.2
		c0.2,0,1.6-1.7,2.1-2.2c4.6-5,9.6-9.8,14-14.7c15-2.1,29.2-7,41.8-14.2c2.5-1.4,4.9-3,7.3-4.6c3,1.4,6.5,3,9.4,4.6
		c2.1,1.2,9.3,5,9.3,5l6.1-10.1l44.8-0.3c0,0-0.1-12.1,0.1-14.1c4.5,1.6,8.7,2.2,13.5,2c3.3-0.2,6.8-0.6,9.8-2.2
		c4.1-2.1,7.2-5.5,9.2-9.6c1.8-3.7,2.7-8,2.2-12.1c-0.3-3.3-1.2-6.9-3.2-9.5c-1.1-1.4-2.7-2.9-4.3-3.7c-2.2-1.1-5-1.7-7.5-1.6
		c-2.1,0.1-4.5,0.3-6.4,1.4c-1,0.6-1.9,1.5-2.5,2.5c-1.3,2.5-0.5,6,3.1,5.2c0.9-0.2,1.3-1,2.3-1c1.7,0,3.5,2.1,4.4,3.3
		c3.1,3.8,5,8.7,4.5,13.7c-0.5,4.5-3.6,8.6-7.7,10.4c-1.2,0.5-2.7,0.9-4,0.9c-2.9,0-5.5-1.3-7.3-3.5c-2.4-2.8-4-5.5-4.9-9.1
		c-0.5-2.2-1-5.6-1-8.4c0-6.3,0.9-12.5-0.4-18.7c-0.3-1.6-0.9-3.3-1.8-4.7c-2.2-3.6-6.1-5.9-10.3-6.2c-2.8-0.3-6.1,0.1-8.9,0.7
		l0.8-2.9c3.3-10.7,4.2-21.6,4.2-33.3C311.1,113.5,261.2,62.6,198.6,59.3L198.6,59.3z M349.9,260.1c2.3-2.7,4.5-6.3,4.4-10.6
		c0-3.3-1-6.5-1.9-8.7c-0.7-1.5-1.5-2.9-2.4-4c-0.5-0.6-1.2-1.1-1.4-1.8c0.3-0.1,0.7-0.2,1.1-0.3c0.5,0.5,1,1.1,1.3,1.8
		c0.3,0.7,0.4,1.7,1.3,1.8c0.4-1.3-0.7-3-1.1-4.2c0.3-0.2,0.6-0.5,1.1-0.5c1.2,1.2,2.2,3.1,2.7,4.8c0.2,0.6,0,1.6,0.5,2
		c0.5-0.7,0.7-2.2,0.5-3.5c-0.1-0.7-0.6-1.3-0.4-1.7c2,1.5,2.2,4.7,2.4,8c0.6-0.5,0.9-1.3,1.1-2.1c0.9-3.8-0.8-6.7-3.2-8
		c-1.3-0.7-3.2-1.2-4.7-1c-1,0.1-2.2,1.2-3.2,1.2c-0.7,0-1.4-0.7-2.4-1c-0.8-0.2-2-0.2-2.8,0.1c-0.8,0.3-1.3,1.3-2.4,1.2
		c-1.2-0.2-1.6-2-1.2-3.4c0.2-0.5,1-1.3,1.5-1.6c3.2-2,9.4-1.8,12.8-0.3c1.7,0.7,3.1,2,3.9,3.2c0.2,0.4,0.6,0.7,0.8,1.1
		c1.4,2.3,1.9,5.8,2,9c0.2,3.4-0.8,5.8-1.7,8.1c-0.9,2.4-1.9,4.3-3.3,6C353.6,257.5,351.8,258.8,349.9,260.1L349.9,260.1z
		 M34.4,260.1c-1.9-1.4-3.7-2.6-5.2-4.4c-1.4-1.7-2.4-3.6-3.4-6c-0.9-2.3-1.9-4.7-1.7-8.1c0.1-3.2,0.7-6.6,2.1-9
		c0.2-0.4,0.5-0.7,0.8-1.1c0.8-1.3,2.2-2.5,3.9-3.2c3.3-1.5,9.6-1.7,12.8,0.3c0.5,0.3,1.3,1.1,1.5,1.6c0.4,1.3,0.1,3.2-1.2,3.4
		c-1,0.1-1.5-0.9-2.4-1.2c-0.9-0.3-2-0.3-2.8-0.1c-0.9,0.3-1.6,0.9-2.4,1c-1.1,0-2.2-1.1-3.2-1.2c-1.4-0.2-3.4,0.3-4.6,1
		c-2.4,1.3-4.2,4.2-3.2,8c0.2,0.7,0.5,1.6,1.1,2.1c0.2-3.3,0.4-6.5,2.4-8c0.2,0.5-0.3,1-0.4,1.7c-0.2,1.2,0,2.7,0.5,3.5
		c0.6-0.4,0.4-1.3,0.5-2c0.5-1.7,1.5-3.5,2.7-4.8c0.5,0,0.8,0.3,1.1,0.5c-0.4,1.2-1.5,2.9-1.1,4.2c0.9-0.2,1-1.2,1.3-1.8
		c0.4-0.7,0.8-1.4,1.3-1.8c0.4,0.1,0.8,0.2,1.1,0.3c-0.2,0.8-0.9,1.2-1.4,1.8c-0.9,1.2-1.7,2.5-2.4,4c-1,2.2-1.9,5.4-1.9,8.7
		C30,253.9,32.1,257.4,34.4,260.1L34.4,260.1z M324.4,255.6c-2-1.8-3.4-3.7-4.8-6c-0.3-0.6-0.8-1.1-1.1-1.6
		c-0.2-0.5-0.3-1.2-0.5-1.7c-1-3-1.9-6.2-2.4-9.5c-0.2-1.4-0.3-2.8-0.5-4.2c-0.4-2.4-1.4-4.6-2.4-6.6c-0.7-1.5-1.6-2.9-2.5-4.2
		c-0.3-0.4-0.8-0.7-0.8-1.3c1.1,1.1,2.9,0.4,4.2,0.9c0.9,0.3,1.7,1.5,2.1,2.3c0.4,0.8,0.3,1.8,1.1,2.3c0.6-2.2-0.6-3.8-1.2-5.4
		c0.5-0.1,0.6-0.6,1.1-0.6c0.7,0,1.8,1,2.3,1.5c1.1,1.5,1.3,4.2,2.1,5.4c0.9-2.5-0.2-5.2-1.1-7c2.5,0.1,3.3,2.1,3.9,4.1
		c0.2,0.6,0.4,1.1,0.5,1.6c0.1,0.5-0.1,1.3,0.4,1.6c0.8-2.4,0.4-5.6-0.9-7.1c-1.8-2.2-6.3-2.5-9.2-1.3c-1,0.4-2,1.4-3,1.3
		c-0.8-0.1-1.5-1.5-2.9-1.7c-0.5-0.1-1.2,0-1.7,0.1c-1.1,0.3-2.8,1.7-4,1.3c-1.1-0.4-1.2-2.8-0.8-3.7c0.5-1,2.9-2,3.8-2.3
		c2.1-0.6,4.3-0.5,6.6-0.4c3.9,0.2,7,1.1,9.3,3.1c1.2,1,2,2.3,2.7,3.7c0.3,0.6,0.7,1.1,0.9,1.6c0.8,2.1,0.8,4.8,0.5,7.7
		c-0.3,3.2-1.3,6.4-1.6,9.6c-0.4,5.2-0.3,10.6,1.6,14.6c0.6,1.2,1.5,2.3,2.3,3.2c0.4,0.4,0.7,0.9,1.1,1.3c0.7,0.6,1.7,1,2.2,2
		C328.9,258.9,326.4,257.4,324.4,255.6L324.4,255.6z M308.7,223c2.4,2.8,3.7,8,4.7,13.4c0.9,4.7,2.1,9.5,2.1,9.5s-3.3-3.8-6.7-10.7
		c-3.1-6.5-6-13.1-6-13.1S306.3,220.2,308.7,223L308.7,223z M325.5,259.3c-0.9,0.1-1.4-0.5-2.1-0.9c-0.8-0.4-1.5-0.7-2.2-1.1
		c-1.4-0.8-2.8-1.5-4.2-2.3c-0.7-0.4-1.4-0.9-2-1.3c-1.3-0.8-2.6-1.8-3.9-2.7c-1.6-1.2-3.4-2.3-4.8-3.6c-2.2-2-4.2-4-6.2-6.2
		c-1.1-1.2-2.3-2.4-3.4-3.7c-3.3-3.9-6.2-7.8-9.4-11.8c-1.6-1.9-3.3-3.9-5.1-5.5c-0.6-0.6-1.1-1.4-1.7-1.8c-0.6-0.5-1.5-0.7-1.8-1.5
		c-1.3-0.5-2.4-1.6-3.6-2.3c-0.3-0.2-1.1-0.2-1-0.8c1.8,0,3.3,0,4.5,0.4c2.6,0.9,4.3,2.7,6.6,3.9c-0.5-1.1-1.4-1.9-2.3-2.6
		c-0.3-0.2-1-0.3-0.9-0.9c2-0.7,4.1,0.7,5.3,1.6c1.1,0.9,2.1,2.1,3.2,2.7c-0.3-0.7-1-1.2-1.4-1.7c-0.1-0.2-0.2-0.5-0.4-0.6
		c-0.8-0.9-2.3-1.5-2.8-2.6c1.2-0.4,1.8,0.3,2.5,0.6c0.4,0.2,1,0.2,1.3,0.4c0.2,0.1,0.3,0.4,0.5,0.5c0.6,0.5,1.1,1.1,1.7,1.5
		c0.9,0.7,1.9,1.2,2.5,1.8c0.6,0.7,0.9,1.9,2,2c-0.5-1.6-1.8-2.6-2.8-3.7c-1.1-1.1-2.2-2.2-3.2-3.4c-1-0.4-1.5-1.1-2.3-1.4
		c-0.4-0.2-1.2-0.5-1.5-0.5c-0.7-0.1-1.5-0.1-2.2,0c-1.7,0.2-3.1,1.6-4.4,1.5c-0.4,0-1.1-0.5-1.3-0.6c-0.7-0.4-1.7-0.7-2.4-0.9
		c-1.2-0.2-2.2,0-3.2,0.3c-0.6,0.2-1.3,0.4-1.8,0.6c-1.5,0.8-3,2.8-5.2,2.5c-1.4-0.2-2.2-1.7-3.6-2.2c-3.2-1.1-4.9,1.9-8,1.2
		c-1.2-0.9-0.7-2.2,0-3.4c0.8-1.3,1.3-1.9,2.3-2.7c2.7-2.1,6.8-3.7,10.9-4c1.8-0.1,3.7,0.1,5.3,0.2c4,0.4,7.6,1.5,10.4,2.8
		c2,1,4,2.2,5.7,3.4c6.1,4.1,10.3,9.9,13.4,16.8c1.9,4.2,3.6,8.5,5.7,12.3c1.4,2.6,3.1,4.9,4.9,7.2
		C316.7,252,320.7,256.2,325.5,259.3L325.5,259.3z M132.3,212.8c-0.2-1.8-1.3-4-4-6.1c-2.7-2.2-6.3-3.5-11.3-4
		c-5.8-0.6-12.4,1-12.4,1c-2.6-8.4-4-17.2-4-26.1c0-46.4,35.6-84.8,80.9-90c-0.5,2.8-0.8,4.7-0.8,4.7s-0.7,1.7-2.1,2.5
		c-0.9,0.5-1.7,1.3-2.1,2.3c-1.8,4.8,7.6,7.4-0.8,9.7c-4.9,1.4-8.2,3.2-10.2,7.7c-0.4,0.8-1.2,2.2-1.3,3.3c-1.9-0.1-2.9-0.5-3.8-0.9
		c-0.9-0.5-3.9-0.6-5.9,0c-2,0.7-3.8,2-4.7,3.4c-1,1.4-0.5,1.9,0.3,1.5c0.9-0.4,0.6-0.8,3.6-1.3c3-0.5,4.8,2.4,7.8,1.7
		c3-0.6,1.8-0.2,4,2.5s7.8,3.9,7.8,3.9s0.9,1.2,1.3,2.4c-1.1,0.3-1.7,0.5-1.7,0.5s-1.6-0.9-4-1.2c-6-0.9-9.3,0.2-11.4,0.7
		c-1.3-0.6-9.2-2.8-13.7,2.4c-2.3,2.7-1.5,5.5-0.3,7.4c1.3,1.6,3.1,2.6,5,3.2c-12.3,1.1-18.9,2.5-18.9,2.5s-0.1,23.6-0.1,40.9
		c0,17.2,5.8,36.5,17.2,59.3c-6.3,1.6-10.3,3-10.3,3c-6-4.6-10.6-9.7-10.6-9.7v-0.2c0,0,2.9-2,4.8-1.9c2,0.1,2.1,1.8,6.1,1
		c0.9-0.1,3.3-2.1,3.1-4.5c-0.3-2.4-2.6-4.9-3.7-5.8c-1.1-0.9-4.5-2.6-7.2-3.3c-3.5-0.8-7.3-0.9-9.5-0.9c-2.3,0-4.9,0.5-4.9,0.5
		c-1.6-2.5-4.5-7.9-4.5-7.9s0.3-1.1,2.5-1.4c1,0,2,1.8,4.6,2.4c2.7,0.5,4.4-2.3,6-2.5c1.6-0.1,2.7,1.5,5,1.8
		C132.4,217.6,132.4,213.3,132.3,212.8L132.3,212.8z M94.6,236.1c2.6-2,5.2-4,8.3-5.6c2.5-1.3,5.4-2.7,8.9-3.4
		c4.2-0.8,9-1.2,13.8-0.6c2.6,0.3,4.9,0.8,6.8,1.8c1.1,0.6,2.2,1.4,2.9,2c1.3,1.1,3.2,3.6,1.5,5.8c-1.3,0.8-3.2,0.5-4.2-0.4
		c-0.9,0-2.1-0.2-3.1,0c-0.6,0.1-1.2,0.4-2,0.6c-0.3,0.1-0.5,0.2-0.9,0.3c-1.2,0.5-2.2,0.9-3.6,0.3c-2-0.9-3.4-4-7-3
		c-0.7,0.2-1.3,0.6-2,0.9c-0.5,0.3-1.1,0.8-1.7,1c-1.9,0.5-4-0.3-5.1-0.9c-0.8-0.4-1.6-0.6-2.5-1c-0.4-0.2-0.8-0.6-1.1-0.6
		c-1-0.3-2.4-0.1-3.1,0c-2.2,0.4-3.8,2-5.6,3.3c-0.3,0.2-0.6,0.4-0.8,0.7c-0.2,0.3-0.4,0.7-0.6,0.9c-0.4,0.4-1.1,0.6-1.2,1.2
		c0.6,0.1,1.2-0.8,1.7-1.1c0.7-0.4,1.5-0.8,2.3-1.1c0.3-0.1,0.6-0.4,0.8-0.6c1.1-0.8,2.6-0.6,3.9-0.9c-0.3,0.7-1.3,0.9-1.8,1.5
		c-0.8,0-1.2,0.6-1.7,1c-0.3,0.2-1,0.2-0.9,0.8c0.2,0.5,0.6-0.2,0.9-0.3c0.4-0.1,0.7-0.3,1-0.5c2,0,3-1.5,4.9-1.3
		c-0.5,0.7-1.6,0.9-2.4,1.3s-1.6,0.9-2,1.6c0.2,0.3,0.3,0.1,0.5,0c1-0.2,1.5-0.6,2.5-1c1-0.3,2.1-0.6,3.1-0.9c1-0.3,2.3-0.8,3.1-0.2
		c-0.1,0.5-0.7,0.4-1,0.5c-0.8,0.4-1.8,1-2.8,1.4c-0.7,0.3-1.4,0.6-2,0.9c-0.3,0.1-0.6,0.4-0.9,0.5c-0.3,0.1-0.8,0.2-1.1,0.3
		c-0.5,0.2-0.9,0.6-1.4,0.9c-1.4,0.7-3,1.4-4.4,2.2c-1.1,0.6-2.1,1.3-3.4,1.8c-0.8,0.3-1.5,0.9-2.3,1.2c-0.7,0.3-1.5,0.6-2.2,1
		c-1.2,0.6-2.4,1.3-3.7,1.8c-1,0.4-4.5,2.2-5.3,2.7c-0.9,0.5-9.3,4.1-10.4,4.5c-1.1,0.4-1.8,0.3-1.8,0.5c0.2-0.4,6-3.6,7.6-4.4
		c1.6-0.8,5.2-3.6,6-4.2c2-1.4,4.2-3.4,5.5-4.4C85.9,243.9,90.9,239,94.6,236.1L94.6,236.1z M91,237.2c-0.5-0.8-0.5-1-0.5-1l0.9-1.1
		c0.4,0.8,0.6,1.1,0.6,1.1L91,237.2L91,237.2z M64.9,261.4c0.5-1.2,2.1-1,3.4-1c13,0,28.6-0.2,41.7,0.1c0.5,0-0.2,0.1-0.1,0.3
		c-0.7,0.2-1.1,0.6-1.7,0.9c-0.6-0.2-1-0.3-1.6-0.3c-3.4-0.3-7-0.1-10.5-0.1C85.5,261.3,75.2,261.2,64.9,261.4L64.9,261.4z
		 M65,262.5h2.5c0.4,3.1,0.1,7,0,10.2c-0.8,0.1-1.8,0.1-2.7-0.1C64.5,269.1,64.6,265.8,65,262.5L65,262.5z M69,262.5h4.4
		c0,3.7,0.6,6.9-0.1,10.3h-4.1C68.7,269.9,68.9,265.8,69,262.5L69,262.5z M75.3,262.5c1.6,0.1,3.5-0.1,5,0.1
		c0.5,1.5-0.5,4.3,0.5,5.5c0.9-0.1,0.5-1.2,0.5-1.8c0.1-1.2,0.5-2.7,0.5-3.8c7.9,0.2,15.7-0.4,23.1,0.3c-0.1,0.1-0.1,0.1,0,0.1
		c0.1-0.1,0,0,0,0c0,0,0,0,0,0c-2.3,1.4-5.1,2.8-7.2,4.5c0.4,1.9,1.7,3.5,2.4,5.1c-8.2,0.2-16.8,0.1-25.1,0.2
		C75.3,269.7,74,265.5,75.3,262.5L75.3,262.5z M306,270.4c-0.1,0.7,0.1,1.3,0.1,1.9c-7.6-0.1-13.8-0.2-21.4-0.3
		c0.1-0.9,0.7-1.4,1.2-2.1c0.3-0.6,1-1.7,1-2.3c-0.1-0.6-1-1-1.7-1.4c-0.7-0.4-1.3-0.9-1.8-1.2c-1.5-0.9-2.9-1.4-3.7-2.4
		c0.6-0.3,1.3,0,1.9-0.1c3.4-0.5,8.4-0.2,12.6-0.2H306c0.6,1.1,0.1,3.4,0.9,4.4c1.1-0.6,0.3-3.1,0.9-4.3h4.5
		c0.4,1.4,0.2,3.4,0.6,4.7c0.6-0.2,0.6-1.1,0.6-1.6c0.1-1-0.2-2.1,0.1-3c0.9-0.2,2.4-0.2,3.3,0c0.4,1.1-0.2,2.6,0.5,3.5
		c0.9-0.6,0.5-2.4,0.8-3.6c0.5,0,1.3-0.1,1.7,0.1c0.5,3.2,0.2,6.8-0.2,9.6c-2.1,0.1-4.3,0.1-6.4,0c-0.6-1.4,0.7-3.2-0.1-4.1
		c-1.8,0.4-0.8,2.8-1.3,4.4c-1.5-0.1-3.1,0-4.5-0.2c-0.5-1.6,0.5-3.9-0.4-4.7C306.3,267.8,306.1,269.3,306,270.4L306,270.4z
		 M283.8,268.3c-2.9-1.4-5.8-3.3-8.3-4.6c-6.5-3.4-13.1-6.3-20.6-9c-3.7-1.4-7.4-2.7-11-3.8c-15.6-4.4-32-7.6-51.8-7.5
		c-10.1,0-19,0.9-27.7,2.1c-17,2.4-32.2,7.4-46,13.4c-3.3,1.4-6.6,3-10,4.8c-2.2,1.2-4.8,2.7-7.2,4c-0.3,0.2-0.8,0.5-1.2,0.6
		c-0.6,0.2-0.7,0.6-1,0.1c-0.2-0.3-0.3-0.4,0.4-1c0.4-0.3,0.8-0.5,1.1-0.6c5-3,10.9-6.2,16.3-8.7c7.2-3.4,13.6-5.5,20.8-7.9
		c11-3.6,22.5-5.9,35.9-7.4c4.5-0.5,9-0.7,13.7-0.9c4.8-0.2,10.7-0.2,15.5,0.2c4.9,0.4,9.7,0.7,14.2,1.4c14.1,2,25.5,5.2,37.2,9.3
		c9.5,3.3,18.5,7.4,26.8,12.1c0.9,0.5,2.7,1.4,3.6,2.2c0.3,0.4,0.8,0.4,0.3,1.1C284.5,268.9,284.4,268.5,283.8,268.3L283.8,268.3z
		 M299.8,244.9c1.3,1,3.6,3,5.5,4.4c0.8,0.6,4.5,3.4,6,4.2c1.6,0.8,7.4,4,7.6,4.4c0-0.1-0.7,0-1.8-0.5c-1.1-0.4-9.5-4-10.4-4.5
		c-0.9-0.5-4.4-2.3-5.3-2.7c-1.3-0.5-2.5-1.2-3.7-1.8c-0.7-0.4-1.5-0.7-2.2-1c-0.8-0.4-1.5-0.9-2.3-1.2c-1.2-0.5-2.2-1.2-3.4-1.8
		c-1.4-0.8-3.1-1.5-4.4-2.2c-0.5-0.3-0.9-0.6-1.4-0.9c-0.3-0.2-0.8-0.2-1.1-0.3c-0.3-0.1-0.6-0.4-0.9-0.5c-0.7-0.3-1.4-0.5-2-0.9
		c-1-0.5-2-1-2.8-1.4c-0.3-0.1-0.9,0-1-0.5c0.9-0.6,2.1-0.1,3.1,0.2c1,0.3,2.2,0.5,3.1,0.9c1,0.3,1.5,0.8,2.5,1
		c0.2,0.1,0.4,0.3,0.5,0c-0.4-0.7-1.2-1.2-2-1.6c-0.8-0.4-1.8-0.6-2.4-1.3c1.8-0.2,2.8,1.3,4.9,1.3c0.2,0.2,0.5,0.5,1,0.5
		c0.3,0.1,0.6,0.8,0.9,0.3c0.1-0.5-0.6-0.5-0.9-0.8c-0.5-0.4-1-1-1.7-1c-0.5-0.7-1.6-0.8-1.8-1.5c1.3,0.3,2.8,0.1,3.9,0.9
		c0.3,0.2,0.5,0.4,0.8,0.6c0.7,0.4,1.5,0.7,2.2,1.1c0.5,0.3,1.1,1.2,1.7,1.1c-0.1-0.6-0.8-0.8-1.2-1.2c-0.3-0.3-0.4-0.6-0.6-0.9
		c-0.2-0.4-0.5-0.5-0.8-0.7c-1.7-1.3-3.3-3-5.5-3.3c-0.8-0.1-2.1-0.3-3.1,0c-0.3,0.1-0.7,0.5-1.1,0.6c-0.9,0.4-1.7,0.6-2.5,1
		c-1.1,0.5-3.2,1.4-5.1,0.9c-0.6-0.2-1.2-0.7-1.7-1c-0.6-0.3-1.2-0.7-1.9-0.9c-3.6-1-5,2.2-7,3c-1.4,0.6-2.3,0.2-3.6-0.3
		c-0.3-0.1-0.5-0.2-0.9-0.3c-0.8-0.2-1.4-0.5-2-0.6c-1.1-0.2-2.2,0-3.1,0c-1,0.9-2.9,1.2-4.2,0.4c-1.6-2.2,0.2-4.7,1.5-5.8
		c0.7-0.6,1.8-1.4,2.9-2c1.9-1.1,4.3-1.5,6.8-1.8c4.7-0.6,9.6-0.2,13.7,0.6c3.5,0.7,6.4,2,8.9,3.4c3.1,1.6,5.7,3.6,8.3,5.6
		C293.5,239,298.5,243.9,299.8,244.9L299.8,244.9z M293.4,237.2l-1.1-1c0,0,0.2-0.4,0.6-1.1l0.9,1.1
		C293.8,236.2,293.8,236.4,293.4,237.2L293.4,237.2z M256,217.1c2.3-0.3,3.3-1.9,5-1.8c1.6,0.1,3.3,3,6,2.5s3.6-2.4,4.6-2.4
		c2.2,0.3,2.6,1.5,2.6,1.5s-2.7,5.2-4.3,7.7c0,0-2.8-0.5-5.1-0.5c-2.2,0-6,0.1-9.5,0.9c-2.7,0.6-6.1,2.4-7.2,3.3s-3.5,3.4-3.7,5.8
		s2.2,4.4,3.1,4.5c4,0.8,4.2-0.9,6.1-1s4.8,1.9,4.8,1.9v0.2c0,0-4.1,5.4-10.3,9.8c0,0-4.1-1.3-10.6-3c14.6-27.4,17.3-47.4,17.7-58.9
		c0.3-11.5-0.2-40.4-0.2-40.4s-8.1-1.3-23.3-2.6c5.9-0.5,7-4,7.7-4.9c0.8-1.1,1.4-5.7-1.5-7.7c-3-2-7.7-2.7-9.6-0.2
		c-1.9,2.5,0.2,4.1,0.9,5.9c0,0-2.8-2-3.5-5.9c-7.5-3.1-10,1.2-10,1.2s-2.8-1.7-7.5-1.7c0,0,0-0.1,0-0.1c-1.8,0.2-4.9,0.4-8.4,0.5
		c-3.5-1-9.9-2.4-14.8-0.7c-3.3-1-6.3-0.9-8.5-0.5c0.1-0.2,0.2-0.3,0.2-0.5c0,0,0-0.7-0.8-1.5c-0.4-0.4-1.4-0.7-2-1.2
		c-1.4-0.6-2.3-1.1-2.1-2c0.2-0.9,1.6-0.5,2.3,0.2c1,1.8,2.3,0.7,2.3,0.7c0.1-0.6,1-2.4,1.8-1.5c0.6,0.7,0.1,1.9,1.2,2.1
		c1.1,0.2,1.4-0.7,1.7-1.5c0.4-0.9,1.6-1.2,2.3-0.2c0.4,0.6,0.5,2,1.6,1.5c0.9-0.3,0.7-1.6,1.5-2.1c0.8-0.5,2-0.5,2.7,0.2
		c0.5,0.6,0.5,1.3,1.2,1.7c0.4,0.3,1.1,0.4,1.6,0.3c0.5-0.1,0.7-0.4,1-0.8c0.4-0.5,0.4-1.2,1-1.7c1.3-0.6,2.3,0.3,2.5,0.7
		s0.4,1.1,0.8,1.5c0.4,0.3,0.8,0.3,1.3-0.1c0.6-0.5,0.8-1.4,1.4-1.8c0.9-0.7,1.7,0.1,1.9,0.9c0.2,1,0.7,1.7,1.7,0.9
		c0.7-0.6,1.2-1.9,2.2-1.9c1.1,0,0.6,1.5,0.4,2c0.6,0.5,1.4,0.2,2-0.2c0.3-0.2,1.4-2.3,1.8-0.9c0.4,1.4-4.6,3.6-2.5,5.3
		c0.3,0.2,0.5,0.4,0.7,0.5c1.1-0.1,1.8-0.2,1.8-0.3c-0.2-1,0.9-2.4,0.9-2.4s5.6-1.2,7.8-3.9c2.2-2.7,0.9-3.1,4-2.5s4.8-2.1,7.8-1.7
		c3,0.5,2.8,0.9,3.6,1.3c0.9,0.4,1.3-0.1,0.3-1.5c-1-1.4-2.7-2.7-4.7-3.4s-5-0.5-5.9,0c-1,0.5-1.9,0.9-4.2,1c0.1-1.1-1-2.8-1.4-3.7
		c-2-4.5-5.3-6.4-10.2-7.7c-8.4-2.3,1-4.9-0.8-9.7c-0.4-1-1.1-1.7-2.1-2.3c-1.4-0.8-2.1-2.5-2.1-2.5l-0.6-4.4
		c45.5,5,81.4,43.6,81.4,90.2c0,8.9-1.1,17.6-3.6,26c0,0-7-1.6-12.8-1c-5,0.5-8.6,1.8-11.3,4c-2.7,2.1-3.8,4.3-4,6.1
		C251.7,213.3,251.7,217.6,256,217.1L256,217.1z M167.1,122.5c-0.1-0.1-0.1-0.2,0-0.2h0.3h45.8h0.3c0.4,0,0.8,0,1.3,0
		c0.2,0,0.4,0,0.6,0c0.3,0,0.7,0,0.7,0.4c-0.5,0.3-1.1,0.3-1.7,0.3c-0.5,0-1,0-1.5,0c-7.4,0-15.1,0-22.7,0c-7.8,0-15.6,0-23.2-0.1
		C166.9,122.6,167,122.5,167.1,122.5L167.1,122.5z M166.6,120.8c-0.4,0-0.7,0-0.9,0c-0.4,0-0.6,0-0.6-0.6c0-0.2,0.1-0.3,0.2-0.4
		c8.1,0.2,16.5,0,24.8,0c8.3-0.1,16.7-0.2,24.9,0c1,0,1.9-0.1,2.8,0.2c-0.2,0.7-0.8,0.8-1.4,0.8c-0.5,0-1.1-0.1-1.5-0.1h-46.6
		c-0.1,0-0.2,0-0.3,0C167.5,120.8,167,120.8,166.6,120.8L166.6,120.8z M222.9,118.5c2.1-0.2,3.8-1.1,6.1-0.5c0,0.6-0.9,0.3-1.3,0.6
		c-1,0.7-2.7,1.2-4.2,1.4c-0.5,0.1-1.4,0.1-1.8-0.2C221.7,119,222.9,119.3,222.9,118.5L222.9,118.5z M147.5,142.1
		c-1.2-0.5-4.2-3.2-3.3-6.2c0.8-2.5,1.9-3.5,4.2-4.3c2.2-0.9,7-0.5,9.2,0.7c1.9,2,11.5,10,11.5,10s-0.5,0.2-1.1,0.3
		c-2.3,0.1-4.5,0.2-6.5,0.3c-2.1-0.5-3.2-1.5-3.2-1.5s-0.9-3.7-3.9-4.2c0.9,1.1,4,4.1,0.7,5.5C151.8,144,148.7,142.6,147.5,142.1
		L147.5,142.1z M151.8,145.8c1.2,0,2.2,1,2.2,2.2s-1,2.2-2.2,2.2c-1.2,0-2.2-1-2.2-2.2S150.5,145.8,151.8,145.8L151.8,145.8z
		 M157.8,143.1C157.8,143.1,157.8,143.1,157.8,143.1C157.8,143.1,157.8,143.1,157.8,143.1C157.7,143.1,157.8,143.1,157.8,143.1
		L157.8,143.1z M170.1,145c1.2,0,2.2,1,2.2,2.2c0,1.2-1,2.2-2.2,2.2s-2.2-1-2.2-2.2C167.9,146,168.9,145,170.1,145L170.1,145z
		 M180.4,151.5c3.7,0,7.8,0.1,11.6,0.2v1.1c1.9,0,3.4,1.4,3.4,3.2c0,1.7-1.4,3.1-3.1,3.2c-0.1,0-0.1,0-0.2,0l0,0.4h-1.7
		c0,0,0.2,12-18.7,19.2c-0.8,0.6,0.5,1,0.5,1h20l0-20.2h1.9c0,0-0.2,12,18.7,19.2c0.8,0.6-0.5,1-0.5,1H192v4.6l-15.6,0.1
		c0,0-2.2,2.4-1.9,3.5c0.4,1,16.3,0.4,17.5,0.3v4.2l-15.6,0.1c0,0-2.2,2.4-1.9,3.5c0.4,1,16.3,0.4,17.5,0.3l0,3.9l14.5,0.1
		c0,0,4.2,19.9,18.1,32.8c1.5-3.5,2.9-6.9,4-10.2c-0.3-0.8-0.6-1.3-1.1-1.7c0.2-0.4,0.8-0.5,1.3-0.6c-0.8-1-1.2-2.7-1.5-4
		c-0.2-1.5-2.8-15.4-3.1-16.3c-0.1-1.1-0.2-2,0-2c0.2-0.2,0.5,0.2,0.7,1l2,11.5l0.2,0c0.2-2.7,0.2-6.9-0.2-8.8l-2.7-12.6
		c-0.3-0.9-0.1-1.5-0.1-1.5c0.2-0.2,0.5,0.2,0.8,1.2l2.2,11.7l0.2,0c0.1-1.8,0.2-4.9,0-6.4l-2.2-13.7c-0.1-0.6-0.1-1.1,0.1-1.1
		c0.2,0,0.5,0.2,0.7,1l1.9,12.8l0.2,0c0.4-4.5,0.2-7.1,0-8.8l-1.9-8.9c-0.1-0.9-0.1-1.3,0.1-1.3c0.2-0.2,0.5,0.4,0.6,1.1l1.4,8
		l0.2,0c0.3-3.8,0.7-4.7,0.5-6.4l-0.6-9c-0.1-0.7,0.1-1.3,0.3-1.3c0.2,0,0.3,0.2,0.5,0.8l0.6,9.2c0.2,2.2,0.7,3.2,1,3
		c0.4,0,0.5-1.6,0.4-4.5l-0.2-8.8c-0.1-0.6,0.1-1.1,0.3-1.3c0.2,0,0.3,0.4,0.5,1.1l0.1,7.7c0.1,1.5,0.4,1.7,0.6,1.7
		c0.4-0.2,0.4-0.7,0.5-2.1l0.4-9.8c0-0.7,0.1-1.5,0.5-1.4c0.2,0,0.4,0.2,0.3,1.1l-0.5,11.1c0,0.7,0.1,1.1,0.3,1.1
		c0.2,0,0.4-0.3,0.5-1.4l1-10.5c0.1-0.7,0.1-1.1,0.3-1.1c0.4,0,0.5,0.4,0.5,1l-1.1,12.5c-0.1,1.3,0,1.8,0.4,1.9
		c0.2,0,0.4-0.5,0.5-1.4l1.6-11.2c0-0.7,0.3-1.1,0.5-1.1c0.2,0,0.3,0.4,0.3,1.3l-1.8,13.2c-0.3,1.8-0.2,2.7,0.1,2.9
		c0.4,0,0.8-0.5,0.8-1.2l2.1-12.5c0.2-0.5,0.5-1.1,0.6-1c0,0,0.1,0.7,0.1,1.5l-2.4,14.6c-0.5,2-0.9,7.2-0.9,10.2l0.2,0l2.4-10.8
		c0.2-0.9,0.5-1.4,0.7-1.4c0.2,0.2,0.3,0.8,0,1.6l-3,13.1c-0.1,1.8-0.7,6.5-0.9,9.1l0.2,0l3.1-12c0.2-0.9,0.5-1.4,0.6-1.2
		c0.2,0,0.1,0.6-0.1,1.8l-3.3,12.2c-0.3,1.4-0.6,2.9-0.6,4l0.2,0l2.7-7.3c0.2-0.4,0.4-0.5,0.6-0.5l-0.1,0.9l-2.8,7.8
		c-0.7,1.6-1.2,4.3-1.6,5.9c-0.3,1.8-2,4.1-3.3,4.5c0.7,0.4,1.4,1.2,1.7,1.8c-0.7,0.1-1.9,0.4-2.4,0.7c-0.9,3.2-2.4,7.2-4.3,11.3
		c1.9,1.6,3.9,3,6.2,4.2l1.8-3.9c10.7-22,12.4-37,12.7-47.7c0.2-7.2,0.1-21.5-0.1-32.2l0-1.1l-1.1-0.1c-6.8-0.8-26.6-2.8-53.9-3.7
		l0-5.7c2.2,0.1,4.8,0,7.4-0.5c0.9,0,1.7,0.1,2.6,0.1c4.4,1.4,8.3,1.1,10.6,0.5c22.9,1.3,37,3.1,40.9,3.7c0.1,5.4,0.5,29.2,0.2,39.3
		c-0.3,11.5-3.5,32.1-17.4,58.4c-2.1-0.6-4.2-1-6.2-1.5l0,0c-3.9-0.9-17.1-4-38.2-4v0.1l0,0v-0.1c0,0,0,0-0.1,0l0-22.9l0-17.3
		l-14.5,0.1c0,0-3.8,17.9-16.2,30.7c-1.2-2.8-2.2-5.6-3.1-8.3c0.1-0.7,0.4-1.3,1-1.7c-0.2-0.3-0.8-0.5-1.3-0.6c0.8-1,1.2-2.7,1.5-4
		c0.2-1.5,2.8-15.4,3.1-16.3c0.3-1.1,0.2-2,0-2c-0.2-0.2-0.5,0.2-0.6,1l-2,11.5l-0.2,0c-0.2-2.7,0-6.9,0.2-8.8l2.6-12.7
		c0.3-0.9,0.2-1.5,0.1-1.5c-0.2-0.2-0.5,0.2-0.8,1.2l-2.2,11.7l-0.2,0c-0.1-1.8-0.2-4.9,0-6.4l2.2-13.7c0.1-0.6,0.1-1.1-0.1-1.1
		s-0.5,0.2-0.5,1l-2.1,12.8l-0.2,0c-0.4-4.5-0.2-7.1,0.2-8.8l1.6-8.9c0.1-0.9,0.1-1.3-0.1-1.3c-0.2-0.2-0.5,0.4-0.6,1.1l-1.4,8
		l-0.2,0c-0.3-3.8-0.6-4.7-0.5-6.4l0.5-9c0.1-0.8-0.1-1.3-0.1-1.3c-0.2,0-0.5,0.2-0.5,0.8l-0.7,9.2c-0.2,2.2-0.6,3.2-1,3
		c-0.2,0-0.5-1.6-0.4-4.5l0.4-8.8c0-0.5-0.1-1.1-0.3-1.3c-0.2,0-0.5,0.4-0.5,1.1l-0.3,7.7c-0.1,1.5-0.4,1.7-0.6,1.7
		c-0.2-0.2-0.4-0.7-0.5-2.1l-0.4-9.8c0-0.7-0.1-1.5-0.3-1.4c-0.4,0-0.5,0.2-0.5,1.1l0.5,11.1c0,0.7-0.1,1.1-0.3,1.1
		s-0.4-0.3-0.5-1.4l-0.9-10.5c0-0.7-0.3-1.1-0.5-1.1c-0.2,0-0.3,0.4-0.3,0.9l1,12.5c0.1,1.3,0,1.8-0.2,1.9c-0.4,0-0.6-0.5-0.7-1.4
		l-1.5-11.2c-0.2-0.7-0.3-1.1-0.6-1c-0.2,0-0.3,0.4-0.1,1.3l1.8,13.2c0.1,1.8,0,2.7-0.3,3c-0.4,0-0.8-0.5-0.8-1.2l-2.1-12.4
		c0-0.5-0.3-1.1-0.5-1.1c-0.2,0-0.3,0.8-0.1,1.5l2.3,14.6c0.5,2,1,7.2,0.9,10.2l-0.2,0l-2.4-10.8c-0.2-0.9-0.5-1.4-0.7-1.4
		c-0.2,0.2-0.1,0.7,0,1.6l3.1,13.1c0.1,1.8,0.7,6.5,0.9,9.1l-0.2,0l-3.2-12c-0.1-0.9-0.3-1.4-0.6-1.2c0,0-0.1,0.6,0.1,1.8l3.4,12.2
		c0.3,1.4,0.6,2.9,0.6,4l-0.2,0l-2.5-7.3c-0.2-0.4-0.6-0.5-0.6-0.5c-0.2,0-0.1,0.4,0.1,0.9l2.6,7.8c0.7,1.6,1.4,4.3,1.8,5.9
		c0.3,1.8,1.8,4.1,3.1,4.5c-0.7,0.4-1.4,1.2-1.7,1.8c0.9,0.1,1.9,0.4,2.6,0.7c0.8,2.8,2,6.1,3.4,9.6c-1.9,1.8-4,3.4-6.3,4.8
		l-2.2-4.1c-8.5-18.2-12.3-32.1-12.3-46.8c0-11,0-24.7,0.1-33.1C146.6,153,160.8,151.5,180.4,151.5L180.4,151.5z M139.8,217.2
		c1.2,0,2.2,1,2.2,2.2s-1,2.2-2.2,2.2c-1.2,0-2.2-1-2.2-2.2C137.6,218.2,138.6,217.2,139.8,217.2L139.8,217.2z M147.2,234.5
		c1.2,0,2.2,1,2.2,2.2c0,1.2-1,2.2-2.2,2.2c-1.2,0-2.2-1-2.2-2.2C144.9,235.5,145.9,234.5,147.2,234.5L147.2,234.5z M155.1,217.8
		l0,0.4c0,0.2,0.1,0.9,0.3,1.2c0,0.4,0,0.4-0.1,0.4c0,0,0,0-0.2-0.4c-0.5-1.2-0.6-2.7-0.3-3.8c-0.1-0.7,0.6-1.5,0.8-1.5
		c0.2,0,0.6,0.5,0.8,1.2c0.5,1.6,0.4,3.1,0.3,4.2c0,0.4-0.1,0.4-0.1,0.4c-0.2,0-0.2-0.2-0.2-0.4l-0.1-1.3l0-0.5c0,0-0.2,0.2-0.1,0.4
		c-0.1,0.4-0.1,0.9-0.1,1.3c0,0.4,0,0.4-0.1,0.4c0,0,0-0.2-0.2-0.3c0-0.4-0.3-0.9-0.3-1.3C155.3,218,155.3,217.8,155.1,217.8
		L155.1,217.8z M157.7,211.1l0-0.2l-0.2,0c-0.1,0.4-0.5,0.8-0.6,1.2c-0.2,0.2-0.3,0.4-0.3,0.4l0-0.4c0.2-0.2,0.5-1.1,0.6-1.9
		c0,0,0.2-0.2,0-0.2c-0.2,0.2-0.5,0.8-0.6,1c-0.2,0.2-0.2,0.2-0.2,0.2l0-0.5c0.1-0.6,0.6-1.5,1.3-2.1c0.7-0.6,1-0.6,1.2-0.6
		c0,0.2,0.3,0.9,0.2,2c-0.3,0.9-0.9,2.3-1.6,3.1c-0.2,0.2-0.4,0.2-0.4,0.2c-0.2,0-0.2-0.2,0-0.2L157.7,211.1L157.7,211.1z
		 M153.6,198.8l0.1,1.3l0,0.5c-0.2,0-0.2-0.2-0.4-0.5c-0.3-1.1-0.4-2.5-0.1-3.6c0.1-0.7,0.6-1.5,1-1.5c0.2,0,0.8,0.5,1,1.4
		c0.5,1.4,0.2,3.1,0,4.2c0,0.2-0.1,0.4-0.1,0.4s-0.2-0.2,0-0.5c0-0.4-0.1-0.9-0.3-1.4l0-0.2c-0.2,0-0.2,0-0.2,0.2l-0.1,1.1
		c0,0.4,0,0.4-0.2,0.4l0-0.4c0-0.4-0.2-0.9-0.3-1.3c0-0.2,0-0.2-0.2-0.2C153.8,198.6,153.8,198.8,153.6,198.8L153.6,198.8z
		 M155.4,202.8c0.5,1.4,0.6,3.1,0.2,4.4c0,0.4,0,0.4-0.1,0.4l0-0.4c0-0.5-0.1-1.1-0.3-1.6c0,0,0-0.2-0.2-0.2l0,0.2
		c-0.1,0.6-0.1,0.9-0.1,1.1c0,0.2,0,0.4-0.2,0.4l0-0.4l-0.3-1.1l-0.2-0.2c0,0-0.2,0-0.2,0.2l0.1,1.3c0,0.2,0,0.4-0.1,0.4
		c0,0-0.2,0-0.2-0.4c-0.3-1.2-0.4-2.5-0.1-4c0.1-0.8,0.6-1.1,0.8-1.2C154.6,201.8,155.1,201.9,155.4,202.8L155.4,202.8z
		 M154.5,212.1c0-0.2-0.2-0.2-0.2-0.2l0,0.2l0.1,1.1l0,0.5c-0.2,0-0.2,0-0.4-0.5c-0.3-1.4-0.6-2.9-0.3-4.2c0.3-0.6,0.6-1.1,0.8-1.2
		c0.2,0,0.8,0.5,1,1.2c0.3,1.3,0.4,2.4,0.2,4.2c-0.2,0.2-0.1,0.4-0.3,0.4l0-0.4c0-0.4,0.1-0.9-0.1-1.3l0-0.2c-0.2,0-0.2,0.2-0.2,0.2
		c-0.1,0.6-0.1,0.9-0.1,1.3c0,0.2,0,0.4-0.1,0.4l0-0.4L154.5,212.1L154.5,212.1z M154.5,219.5c0,0-0.2,0-0.4-0.1
		c-1-1.2-1.6-2.1-1.9-3.5c-0.1-0.9,0.1-1.5,0.2-1.5c0-0.2,0.4,0,1,0.5c0.4,0.3,0.8,1,0.9,2.1c0.1,0.1,0.1,0.2,0,0.4
		c0,0.1,0.1,0.2,0,0.2l0-0.2l0,0c-0.2-0.4-0.2-0.5-0.4-0.7l-0.2-0.2l0,0.4c0.2,0.3,0.4,0.9,0.5,1.2c0.2,0,0.2,0.2,0.2,0.2l-0.2,0
		c-0.4-0.3-0.6-0.7-0.6-0.9c-0.2,0-0.2-0.2-0.2,0l0,0.2c0.2,0.4,0.6,1.2,0.9,1.6C154.5,219.5,154.5,219.5,154.5,219.5L154.5,219.5z
		 M151.3,211.6c-0.2-0.9-0.1-1.5,0.1-1.5c0.2-0.2,0.5,0,1.3,0.5c0.6,0.7,0.9,1.6,1,2.7l0,0.4c0,0-0.2-0.2-0.2-0.4
		c0-0.2-0.2-0.4-0.4-0.7l-0.2,0l0,0.2c0.2,0,0.2,0.5,0.4,0.7l0,0.4c0,0-0.2,0-0.2-0.2c-0.2-0.2-0.6-0.9-0.6-0.9
		c-0.2-0.2-0.2-0.2-0.2-0.2l0,0.2c0,0.2,0.2,0.5,0.4,0.7c0.2,0.3,0.2,0.5,0.2,0.5s-0.2-0.2-0.4-0.3
		C152,213.2,151.6,212.5,151.3,211.6L151.3,211.6z M151.1,206.1c-0.1-0.7,0.1-1.3,0.2-1.5c0,0,0.6,0.1,1,0.5
		c0.8,0.9,1.1,1.9,1.3,2.8l0,0.4c-0.2,0-0.2-0.2-0.2-0.2c-0.2-0.4-0.4-0.7-0.6-1l-0.2,0l0,0.2c0.2,0.5,0.2,0.9,0.5,1.2
		c0,0.4,0.2,0.4,0,0.5c0,0-0.2-0.2-0.2-0.4l-0.6-0.9c-0.2-0.2-0.2-0.2-0.2-0.2s-0.2,0.2,0,0.4c0,0.5,0.5,1.1,0.7,1.6
		c0,0.2,0.2,0.4,0.2,0.4c-0.2,0-0.4,0-0.6-0.3C151.8,208.6,151.2,207.7,151.1,206.1L151.1,206.1z M150.6,200.1
		c-0.1-0.9,0.3-1.3,0.3-1.3c0.2-0.2,0.5,0,1.1,0.6c0.6,0.5,0.8,1.4,1,3c0.2,0.4,0,0.5,0,0.5s-0.2-0.2-0.2-0.4c0-0.4-0.2-0.7-0.3-1.1
		l-0.2,0c-0.2,0-0.2,0.2-0.2,0.2c0.2,0.4,0.2,0.9,0.5,1.1l0,0.4c-0.2,0-0.2-0.2-0.4-0.2l-0.4-0.9c0-0.2-0.2-0.2-0.2-0.2l0,0.4
		c0,0.4,0.3,0.9,0.5,1.2c0.2,0.4,0.2,0.5,0.2,0.5s-0.2,0-0.4-0.3C151.2,202.6,150.7,201.4,150.6,200.1L150.6,200.1z M150.3,193.9
		c0.1-0.7,0.5-1,0.5-1c0.2,0,0.6,0.1,1,0.7c0.6,0.9,0.9,2.5,1,3.4c0,0.2,0,0.4-0.2,0.4c0,0,0-0.2-0.2-0.2c0-0.5-0.1-1.1-0.3-1.3
		c0-0.2,0-0.2-0.2-0.2l0,0.4l0.1,0.9c0.2,0.2,0,0.4,0,0.4c-0.2,0-0.2-0.2-0.2-0.4l-0.4-0.9c0-0.2-0.2-0.2-0.2-0.2l0,0.4
		c0,0.2,0.1,0.9,0.3,1.3l0,0.4c-0.2,0-0.2-0.2-0.4-0.3C150.5,196.6,150.2,194.8,150.3,193.9L150.3,193.9z M150.1,189.2
		c-0.1-0.7,0.2-1.3,0.2-1.3c0.2,0,0.7,0.1,1.1,0.6c0.6,0.7,0.9,1.6,0.8,2.7l0,0.4c-0.2,0-0.2-0.2-0.2-0.2c0-0.4-0.2-0.9-0.3-1.1
		c-0.2-0.2-0.2-0.4-0.2-0.4c-0.2,0-0.2,0.2-0.2,0.2c0,0.2,0.2,0.9,0.3,1.1c0,0,0,0.2-0.2,0.2c0,0,0,0-0.2-0.2l-0.2-0.9l-0.2,0l0,0.2
		c0,0.4,0.1,0.9,0.3,1.3l0,0.4c0,0-0.2-0.2-0.4-0.3C150.2,191,150.1,190.1,150.1,189.2L150.1,189.2z M150,184.2
		c0.1-0.7,0.3-1.1,0.5-1.1c0.2,0,0.5,0,1.1,0.5c0.6,0.5,0.9,1.6,0.9,2.5l0,0.4c-0.2,0-0.2,0-0.2-0.2c-0.2-0.5-0.3-0.9-0.5-1
		c0-0.2-0.2-0.4-0.2-0.2l0,0.2l0.1,1.5c0.2,0.2,0,0.4,0,0.4s-0.2-0.2-0.2-0.3l-0.5-1.1c-0.2-0.2-0.2-0.4-0.4-0.1l0,0.2
		c0,0.5,0.2,0.9,0.5,1.4l0,0.4c0,0-0.2,0-0.4-0.1C150.6,186.4,150.1,185.3,150,184.2L150,184.2z M151,180c0.1-0.6,0.5-1,0.6-1
		c0,0,0.6,0.3,0.8,1c0.2,0.5,0.3,1.6,0.2,2.2c0,0.4-0.1,0.6-0.1,0.6c-0.2-0.2-0.2-0.2-0.2-0.4c0-0.4,0-0.5-0.2-0.7
		c0-0.2,0-0.4-0.2-0.4l-0.1,0.4l0,0.5l0,0.4c-0.2,0-0.2,0-0.4-0.3C151.1,181.6,150.8,180.7,151,180L151,180z M152.8,189.5
		c0.3-0.9,0.8-1.4,1-1.4c0,0,0.1,0.1,0.3,0.2c0.2,0.3,0.5,0.6,0.7,1.1c0.5,1.1,0.4,2.7,0.1,4c-0.1,0.4-0.1,0.4-0.3,0.4l0-0.4
		c0-0.4,0.1-1.3-0.1-1.6l0-0.2c-0.2,0-0.2,0.2-0.2,0.2c-0.1,0.4-0.1,0.9-0.1,1.1c0,0.2-0.2,0.2-0.2,0.2c-0.2,0-0.2,0-0.2-0.2
		l-0.1-1.1c0-0.2-0.2-0.4-0.2-0.4s-0.2,0-0.2,0.2c-0.1,0.7-0.1,1.3,0,1.6l0,0.4c-0.2,0.2-0.2-0.4-0.4-0.5
		C152.7,192.1,152.4,190.6,152.8,189.5L152.8,189.5z M153.2,178.9l0.1,1.5c0,0.2,0,0.4-0.1,0.4c0,0-0.2-0.4-0.2-0.5
		c-0.3-1.1-0.2-2,0.3-3.1c0.3-0.6,0.7-1,0.7-1c0.2,0,0.6,0.3,0.8,1.2c0.5,1.2,0.4,2.5,0.1,3.8c-0.1,0.4-0.1,0.4-0.3,0.4l0-0.4
		l-0.2-2c0-0.2-0.2-0.4-0.2-0.4L154,179l0.1,1.3c-0.2,0-0.2,0.2-0.2,0.2l-0.2-0.2l-0.1-1.5c0-0.2-0.2-0.2-0.2-0.2
		S153.2,178.7,153.2,178.9L153.2,178.9z M155.2,186.9c-0.1,0.4-0.3,0.6-0.3,0.6l0-0.5l-0.1-1.6c0-0.2-0.2-0.4-0.2-0.4
		s-0.2,0.2-0.1,0.4l-0.1,1.5l0,0.4c-0.2,0-0.2-0.2-0.2-0.4c0-0.4-0.3-0.9-0.3-1.4c0-0.2-0.2-0.2-0.2-0.2s-0.2,0-0.2,0.2l0.1,1.3
		c0.2,0.4,0.2,0.5,0,0.5c0,0-0.2-0.2-0.4-0.7c-0.3-1.4-0.4-2.2-0.1-3.5c0.1-0.7,0.6-1.1,0.8-1.2s0.8,0.5,1,1.2
		C155.4,184.5,155.4,185.6,155.2,186.9L155.2,186.9z M155.2,182.7c0.1-0.6,0.4-1.3,1.1-1.9c0.4-0.2,0.9-0.4,0.9-0.2
		c0.2,0,0.2,0.9,0.3,1.4c-0.1,1.3-0.5,2.6-1.5,4c0,0.2-0.3,0.4-0.3,0.4c0-0.2,0-0.4,0.1-0.6c0.3-0.8,0.6-1.5,0.7-2.2l0-0.5l-0.2,0.2
		c-0.2,0.2-0.3,0.6-0.5,0.8c0,0.2-0.2,0.2-0.2,0.2c-0.2,0-0.2-0.2,0-0.4c0.1-0.4,0.3-0.9,0.3-1.3c0.2-0.2,0.2-0.2,0-0.2
		c0-0.2,0-0.2-0.2,0c-0.2,0.2-0.1,0.4-0.3,0.8c0,0.2,0,0.2-0.2,0.2L155.2,182.7L155.2,182.7z M157.7,186.7c0.2,0.2,0.2,0.7,0.3,1.8
		c-0.2,2-1,3.2-2,4.2c-0.2,0.2-0.4,0.2-0.4,0.2s0-0.2,0.1-0.4c0.3-0.6,1-1.9,1.1-2.5l0-0.4c0,0-0.2,0-0.3,0.2l-0.5,0.8
		c-0.2,0.2-0.4,0.2-0.4,0.2l0-0.4c0.1-0.4,0.5-1,0.4-1.3c0.2-0.2,0.1-0.4,0.1-0.4c-0.2,0-0.2,0-0.3,0.2c0,0-0.3,0.4-0.3,0.8
		c-0.2,0-0.2,0.2-0.3,0.2l0-0.4c0.3-0.9,0.6-1.9,1.3-2.5C157.2,186.8,157.5,186.7,157.7,186.7L157.7,186.7z M158.3,193.8
		c-0.1,1.5-0.7,3.2-1.5,4.1c-0.2,0-0.4,0.2-0.4,0.2c0-0.2,0-0.4,0.1-0.6c0.1-0.5,0.6-1.5,0.8-2.1l0-0.5c-0.2,0-0.2,0.2-0.4,0.2
		l-0.5,1c-0.2,0-0.2,0.2-0.4,0.2c0-0.2,0-0.4,0.1-0.4c0.1-0.6,0.3-0.9,0.3-1.3c0.2-0.2,0.2-0.2,0.1-0.4c-0.2,0-0.2,0.2-0.4,0.2
		c-0.2,0.2-0.5,0.8-0.7,1c0,0.2-0.1,0.4-0.2,0.2c-0.2,0-0.2,0,0-0.2c0.3-1.1,0.6-2.1,1.4-2.7c0.5-0.4,1-0.6,1.1-0.5
		C158.2,192.4,158.2,193.1,158.3,193.8L158.3,193.8z M158.4,197.6c0.2,0,0.2,0.5,0.3,1.4c-0.2,1.7-1,2.8-1.9,3.6
		c-0.2,0.2-0.4,0.2-0.4,0.2l0-0.4c0.3-0.4,0.7-0.8,0.6-1.1l0-0.4c0,0-0.2,0-0.2,0.2c-0.2,0.2-0.3,0.2-0.5,0.4
		c-0.2,0.2-0.3,0.2-0.3,0.2s0-0.2,0.2-0.2l0.3-0.9l0-0.4l-0.2,0.2c-0.4,0.2-0.5,0.4-0.7,0.8c0,0.2-0.2,0.4-0.2,0.4
		c-0.2-0.2,0-0.4-0.1-0.7c0.3-0.9,0.9-2.3,2-2.9C157.9,197.7,158.4,197.5,158.4,197.6L158.4,197.6z M159.2,202.2
		c0.2,0,0.1,0.7-0.1,1.5c0,1.6-0.8,3.2-1.9,4.2c-0.2,0.2-0.3,0.4-0.3,0.4c-0.2-0.2,0-0.4,0.1-0.6l0.6-1.5c0.2,0,0.2-0.2,0.2-0.2
		c0-0.2-0.2-0.2-0.4,0c-0.2,0-0.3,0.4-0.5,0.6c-0.2,0.2-0.4,0.2-0.4,0.2s0-0.2,0.1-0.4c0.1-0.4,0.3-0.8,0.5-1.1l0-0.4
		c0,0-0.2,0-0.4,0.2c-0.2,0.2-0.3,0.8-0.5,1c0,0-0.2,0.2-0.2,0l0-0.4c0.3-1.1,0.9-2.3,1.8-3.1C158.4,202.2,159,202,159.2,202.2
		L159.2,202.2z M158.9,214.8c-0.1,0.9-0.4,1.9-0.9,2.8c-0.1,0.4-0.1,0.4-0.3,0.4l0-0.4l0.2-1.5l0-0.2c0,0,0,0-0.2,0.2
		c0,0-0.2,0.2-0.3,0.4l-0.2,0c-0.2,0,0-0.2,0-0.2c0-0.2,0.1-0.7,0.5-1.1l0-0.2l-0.2,0c-0.2,0.2-0.4,0.2-0.5,0.4
		c0,0.2-0.2,0.2-0.2,0.2c0-0.2,0-0.2,0.2-0.4c0.1-0.6,0.5-1.1,1-1.7c0.4-0.2,0.9-0.4,0.9-0.3C159,213.3,159,213.9,158.9,214.8
		L158.9,214.8z M158.2,221.4c-0.3,0.6-0.7,1-0.8,1.3c0.9,3,2.1,6,3.4,9.1c-0.3,0.3-0.5,0.6-0.8,0.8c-1.4-3.4-2.6-6.6-3.5-9.6
		c-0.7-0.1-1.3-0.4-1.9-0.6c0.3-0.6,0.8-1,1.6-1C156.9,221.2,157.6,221.3,158.2,221.4L158.2,221.4z M221.6,143.7
		c-1.8,0-6.7-1-8.9-1.9c-2.2-0.9-9.4-8.6-9.4-8.6c4.2-2,11.9,0.1,12.5,1s8.9,9.3,8.9,9.3S223.4,143.7,221.6,143.7L221.6,143.7z
		 M209.7,196.2c-0.4,1.1-17.7,0.3-17.7,0.3l0-3.9l15.8,0.1C207.8,192.7,210,195.1,209.7,196.2L209.7,196.2z M209.7,188
		c-0.4,1.1-17.7,0.3-17.7,0.3l0-3.9l15.8,0.1C207.8,184.5,210,187,209.7,188L209.7,188z M174.3,132.6c0.5-0.4,2.2-0.8,2.5-0.9
		c1.9-0.4,4.3-0.4,6.2-0.1c0.6,0,2,0.4,2,0.4c0.5,0.2,0.9,0.3,1,0.5c1.2,1.3,8.4,7.6,11.3,10c-1.7-0.1-3.5-0.1-5.3-0.2v0.1
		c-1.6,0-3.1-0.1-4.7-0.1c-0.4-0.1-0.9-0.2-1.3-0.4C183.3,141.1,174.3,132.6,174.3,132.6L174.3,132.6z M264,236.3l1.4,0.4
		c-4.5,5.5-8.4,9.6-13.9,14l-1.7-0.6C255.3,245.7,259.7,241.7,264,236.3L264,236.3z M276.2,217.3l1,0.8c0,0-2.2,4.6-3.8,7.3
		l-1.5-0.3C271.8,225,274.8,220.1,276.2,217.3L276.2,217.3z M278.7,220.2c0,0,2.6,2.2,6,6.2c3.4,4,6,7.2,6,7.2l-0.2,0.4
		c0,0-4.4-3.5-7.7-5.4c-3.8-2.1-6.9-3.1-6.9-3.1L278.7,220.2L278.7,220.2z M315,258.6c-10.8,0.3-22.5-0.1-33.1,0.2
		c2.6-3,5.5-6.6,8-9.9l0.4-0.5c2.7,1.4,5.7,2.2,8.5,3.3c1,0.4,4.9,2,9,3.7C312,257.2,314.4,258,315,258.6L315,258.6z M279.3,258.9
		l-2.2,0c3-3.5,6.8-7.1,9.5-11.1c0,0,1.1,0.1,1.6,0.3C285.9,251.5,279.6,258.8,279.3,258.9L279.3,258.9z M281.6,250.6
		c0-1.3-0.6-2.4-1.2-3c-0.3-0.3-0.9-0.4-0.8-0.9c1.3,0,3.4,0.1,4.8,0.6C283.4,248.4,282.7,249.7,281.6,250.6L281.6,250.6z
		 M275.5,255.4c-1.6,0.9-3.5,1.4-5.3,1.3c-0.4,0.1-0.5,0.4-1,0.4c0,0-11.5-4.4-15.4-5.9c5.1-3.8,12.3-12.6,12.3-12.6
		c0.6-0.3,0.9-0.9,1.6-1c1.3-0.3,2.9,0.5,4.1,0.8c5.3,2.1,17.4,7.8,17.5,7.8c-1.6,0-3.2-0.9-4.8-1.1c-1.2-0.2-2.3-0.6-3.4-0.8
		c-1.2-0.2-2.5-0.2-3.7-0.1c-1.2,0-2.4,0.2-3.6,0.3c-0.7,0.1-1.4,0-2.1,0.2c-0.2,0-1.8,0.6-1.5,1c0.3,0.5,1,0.1,1.4,0
		c0.5-0.1,1.1-0.2,1.6-0.1c1.2,0.1,2.4,0.5,3.4,1.1c2.1,1.3,2.5,3.8,2,6C278.5,254,276.5,254.8,275.5,255.4L275.5,255.4z
		 M276.4,256.6c-0.8,0.3-1.6,2.1-2.6,2.4c-0.9,0.2-2.1-0.1-2.2-0.7c0.3-0.4,0.8-0.2,1.2-0.3C274.1,257.5,275.2,256.6,276.4,256.6
		L276.4,256.6z M107.3,258.8l-2.2,0c-0.3,0-6.6-7.4-8.9-10.8c0.6-0.2,1.6-0.3,1.6-0.3C100.5,251.7,104.3,255.3,107.3,258.8
		L107.3,258.8z M104,247.6c-0.6,0.7-1.2,1.7-1.2,3c-1.1-0.9-1.8-2.2-2.8-3.2c1.4-0.5,3.5-0.7,4.8-0.6
		C104.9,247.2,104.2,247.3,104,247.6L104,247.6z M102.5,258.8c-10.6-0.3-22.4,0.1-33.1-0.2c0.5-0.6,3-1.5,7.1-3.2s8.1-3.3,9-3.7
		c2.8-1.1,5.8-2,8.5-3.3l0.4,0.5C97,252.2,99.9,255.8,102.5,258.8L102.5,258.8z M94.9,246.1c0.1,0,12.2-5.7,17.5-7.8
		c1.2-0.4,2.8-1.1,4.1-0.9c0.8,0.2,1,0.7,1.6,1.1c0,0,7.2,8.7,12.3,12.5c-3.9,1.6-15.4,5.9-15.4,5.9c-0.4,0-0.6-0.4-1-0.4
		c-1.9,0-3.7-0.5-5.3-1.3c-1.1-0.6-3-1.4-3.3-2.7c-0.5-2.3,0-4.7,2-6c1-0.6,2.2-1,3.4-1.1c0.5-0.1,1.1,0,1.6,0.1
		c0.4,0.1,1.1,0.6,1.4,0c0.2-0.4-1.4-0.9-1.5-1c-0.7-0.1-1.4-0.1-2.1-0.2c-1.2-0.1-2.4-0.3-3.6-0.3c-1.2,0-2.5-0.1-3.7,0.1
		c-1.2,0.2-2.3,0.6-3.4,0.8C98.1,245.3,96.5,246.1,94.9,246.1L94.9,246.1z M111.6,258c0.4,0.1,0.9-0.1,1.2,0.3
		c-0.1,0.5-1.3,0.9-2.2,0.7c-1-0.3-1.8-2.1-2.6-2.4C109.2,256.6,110.2,257.5,111.6,258L111.6,258z M118.9,236.6l1.4-0.4
		c4.4,5.4,8.6,9.4,14.1,13.8l-1.8,0.5C127.1,246.2,123.3,242.1,118.9,236.6L118.9,236.6z M93.7,233.7c0,0,2.6-3.3,6-7.2
		c3.4-4,6.1-6.1,6.1-6.1l2.7,5.2c0,0-3.1,1-6.9,3.1c-3.3,1.9-7.7,5.4-7.7,5.4L93.7,233.7L93.7,233.7z M107.2,218.1l1-0.8
		c1.4,2.8,4.4,7.8,4.4,7.8l-1.5,0.3C109.4,222.7,107.2,218.1,107.2,218.1L107.2,218.1z M131.9,167.6c0-1.2,1-2.2,2.2-2.2
		s2.2,1,2.2,2.2c0,1.2-1,2.2-2.2,2.2S131.9,168.9,131.9,167.6L131.9,167.6z M134.2,182.7c1.2,0,2.2,1,2.2,2.2s-1,2.2-2.2,2.2
		s-2.2-1-2.2-2.2S132.9,182.7,134.2,182.7L134.2,182.7z M132.2,150.3c0-1.2,1-2.2,2.2-2.2s2.2,1,2.2,2.2s-1,2.2-2.2,2.2
		C133.2,152.6,132.2,151.6,132.2,150.3L132.2,150.3z M137.4,202.2c0,1.2-1,2.2-2.2,2.2s-2.2-1-2.2-2.2s1-2.2,2.2-2.2
		C136.4,199.9,137.4,200.9,137.4,202.2L137.4,202.2z M157.5,118.5v-0.4c1.5,0.1,4.3-0.1,4.1,2.2C160,120.4,158.8,119.1,157.5,118.5
		L157.5,118.5z M102.7,204.5l-1.4,0.6c-2.7-8.8-4-17.9-4-27.5c0-48.7,37.3-88.6,84.9-93.5c-0.1,0.5-0.2,0.9-0.2,1.4
		c-21.7,2.3-41.2,11.9-55.9,26.4c-16.9,16.8-27.4,40.1-27.4,65.7C98.7,187.1,100,195.8,102.7,204.5L102.7,204.5z M183.1,93l0.1-0.2
		l0-0.2l1.4-8.6c0,0,3.7-0.4,7.4-0.3c3.6,0.1,7.1,0.4,7.1,0.4l0.4,3.1c0,0,0,0,0,0l0.7,5l0,0.3l0.1,0.3c0.2,0.4,1.1,2.4,3.1,3.6
		c0.5,0.3,0.9,0.7,1,1.1c0.3,0.8-0.1,1.6-1.2,3c-1,1.3-2.2,2.9-1.5,4.8c0.7,2,3.1,2.8,5.1,3.4c4.9,1.3,7.1,3,8.6,6.4
		c0.1,0.3,0.3,0.6,0.5,0.9c0.1,0.2,0.3,0.5,0.4,0.8c-3,0.1-10.3,0.2-21.7,0.2c-3.9,0-7.8,0-11.5,0h-2l-8.3,0c-3.1,0-5,0-6,0
		c0.1-0.2,0.2-0.5,0.3-0.6c0.2-0.4,0.4-0.7,0.5-0.9c1.5-3.4,3.7-5.1,8.6-6.4c2-0.6,4.4-1.4,5.1-3.4c0.7-1.9-0.5-3.5-1.5-4.8
		c-1.1-1.4-1.5-2.1-1.2-3c0.1-0.4,0.5-0.8,1-1.1C182,95.5,182.9,93.4,183.1,93L183.1,93z M201.7,84c47.9,4.7,85.4,44.8,85.4,93.6
		c0,9.7-1.3,18.7-4,27.5l-1.4-0.6c2.7-8.7,4-17.4,4-27c0-25.6-10.5-48.8-27.4-65.7c-14.8-14.7-34.5-24.3-56.4-26.5L201.7,84
		L201.7,84z M283,274.5c0.2-1.4,1.6-1.4,2.9-1.4c8.8-0.1,19.8,0.2,29.5,0.2c2.8,0,5.5,0.3,8.1,0c0.4-0.7,0.1-1.6,0.1-2.5
		c-0.1-3.1,0.3-6.6,0-9.5c-1-0.4-1.5-0.1-2.5-0.1c-3.5,0.1-7.2,0-10.9,0c-3.5,0-7.2,0.1-10.8,0c-7.2-0.2-14.4,0.1-21.2-0.3
		c-1,0.6-1.5,0.4-2.5-0.2c-0.4-0.2-1-0.5-1.1-0.9c1.1,0.3,2-0.4,2.8,0.4c1-0.5,2.3-0.3,3.5-0.3c1.2,0,2.5-0.2,3.6-0.1
		c0.5,0,0.9,0.2,1.3,0.2c0.4,0,0.7-0.2,1.1-0.2c0.5,0,1.1,0.1,1.6,0.1c0.5,0,1.1-0.1,1.6-0.1c0.4,0,0.8,0.2,1.2,0.2
		c0.5,0,1-0.2,1.5-0.2c3.7-0.2,6.7-0.2,10.6,0c1.7,0.1,3.6,0.2,5.3,0.2c3.5,0.1,7-0.1,10.1-0.1c1.3,0,2.9-0.1,3.8,0.2
		c0.8,0.3,1.6,0.3,2.2,0.8c0.2,4.5,0.4,9.3-0.1,13.7c-2-0.3-4,0.2-6.1,0.1c-0.4,0-0.8-0.2-1.3-0.2c-0.6,0-1.3,0.2-1.9,0.2
		c-2,0-4.3,0-6.4-0.1c-1,0-2,0.1-3,0.1c-1.5,0-3-0.2-4.5-0.2c-5.6,0-11.1,0.1-16.5,0.1C284.5,274.9,283.7,274.8,283,274.5L283,274.5
		z M322.2,272.1c-0.4,0.2-0.9,0-1.3-0.1c0.1-3-0.1-6.3,0.1-9.3c0-0.4,1-0.4,1.3-0.2c0.2,0.9,0.1,1.8,0.1,2.7c0,1.5,0.2,2.9,0,4.3
		C322.3,270.3,322.6,271.3,322.2,272.1L322.2,272.1z M192.2,298.3h0.6c4.4-0.1,7.9-0.5,12-0.9c0.4,0.1-0.3,0.5-0.5,0.8
		c-3.8,4-8,8.5-12,12.4V298.3L192.2,298.3z M127.6,276.7c0.7-0.3,1.4-0.5,2.1-0.8c1.5,1,3,1.9,4.5,2.8c16.8,9.8,36.4,15.4,57.2,15.4
		h0.2c20.6,0,39.8-5.4,56.5-14.9c1.9-1.1,3.7-2.2,5.6-3.4c0.7,0.3,1.5,0.6,2.2,0.9c-2.4,1.6-4.8,3.1-7.3,4.5
		c-16.8,9.4-36.2,14.8-56.8,14.8h-0.2c-21,0-40.6-5.5-57.6-15.2C131.8,279.4,129.7,278.1,127.6,276.7L127.6,276.7z M219.2,265.7
		c1.4,0.2,2.8,0.4,4.1,0.7c-4,1.4-8,2.6-12.2,3.5c-6.1,1.2-12.5,1.9-19,1.9H192c-6.4,0-12.7-0.6-18.8-1.8c-4.2-0.8-8.2-2.1-12.2-3.5
		c1.3-0.2,2.6-0.4,3.9-0.6c1.9,0.5,3.7,1.1,5.6,1.6c0.3,0.1,0.7,0.2,1,0.2c6.5,1.4,13.3,2.2,20.3,2.2h0.2c6.9,0,13.7-0.8,20.2-2.2
		C214.6,267.1,216.9,266.4,219.2,265.7L219.2,265.7z M210.4,266.6c-5.9,1.2-12,1.8-18.3,1.8l0-5.6l1.1,0.2c8.1,0.2,15.6,1,23,2.1
		C214.2,265.7,212.3,266.2,210.4,266.6L210.4,266.6z M226.3,266.9c9.3,2,17.8,4.8,25.8,8.1c-1.8,1.2-3.7,2.3-5.6,3.4
		c-16.2,9.1-35,14.2-54.9,14.2l-0.2,0c-20.3,0-39.3-5.3-55.7-14.7c-1.5-0.9-3-1.8-4.5-2.7c8.3-3.5,17.1-6.3,26.8-8.3
		c3.9,1.5,7.8,2.8,11.9,3.7c7.1,1.6,14.5,2.5,22.1,2.5h0.2c7.2,0,14.1-0.8,20.9-2.2C217.6,270,222,268.5,226.3,266.9L226.3,266.9z
		 M109.9,283c10.1-6,22.3-11.6,34.5-15.4c14-4.3,28.7-7.1,46.2-7.2c0.1,0,0.1,0,0.2,0c8.5-0.4,18.1,0.6,25.7,1.8
		c7.9,1.2,15.5,3.1,22.2,5.1c8.4,2.5,16.6,5.8,24.6,9.7c1.6,0.8,3.2,1.7,4.4,2.4c1.1,0.6,3,1.5,4.4,2.4c0.5,0.3,1.4,1,2,1.4
		c0.5,0.3,1.9,0.8,1.3,1.6c-0.3,0.4-0.5,0.1-1-0.1c-0.9-0.4-2.4-1.4-3.1-1.8c-4.4-2.4-8.6-4.7-13.3-6.8c-6.1-2.8-12.9-5.2-19.5-7.3
		c-3.4-1.1-7-2-10.6-2.8s-7.3-1.6-11.2-2.2c-7.8-1.2-15.9-2-24.7-2c-26.6,0.1-47.6,6-66.3,14.3c-5.3,2.3-10.2,5.2-15.4,7.9
		c-0.6,0.3-1.7,1.1-2.1,0.5C107.9,283.7,109.3,283.3,109.9,283L109.9,283z M100.1,270.2c1.2-1.2,2.5-1.9,3.9-2.8
		c15.7-9.2,34.5-15.9,55.7-19.8c5.9-1.1,11.9-1.9,18.3-2.4c11.9-1.1,25.5-0.5,36.8,1c18.4,2.3,34.5,7,49.2,13.4
		c5.2,2.2,10.2,4.5,15.2,7.5c0.6,0.4,4.9,2.6,4.9,3c0.1,0.5-1.4,2.9-1.8,3.5c-0.7,1.2-1.3,2.1-2,3.1c-1.4,2.3-2.4,4.5-3.7,6.2
		c-1.5-0.7-2.5-1.3-4-2.2c-2.8-1.6-5.7-3.3-8.7-4.7c-1.5-0.7-3.1-1.3-4.6-2c-12.3-5.7-26.5-10.5-42.2-13c-7.5-1.2-16.1-1.9-24.8-1.9
		c-9.1,0.4-17.7,0.7-26.2,2c-7.2,1.1-12.6,2.3-21.4,4.9c-14,4.1-25.6,10.3-37.1,16.6C105,278.1,102.5,274.6,100.1,270.2L100.1,270.2
		z M59,265.6c0-1-0.2-2.1,0.2-2.9c0.3-0.1,0.4-0.3,0.8-0.3c0.6,0.4,0.2,1.2,0.2,1.7c-0.1,1.7-0.1,3.8-0.1,5.7c0,0.7,0.2,1.4,0.2,2.1
		c0,0.6-0.5,1.4,0,2c0.9,0.6,2.1,0.4,3.1,0.3c3.4-0.2,7-0.1,10.7-0.1c8.3,0,16.4-0.4,24.5,0.1c0.9,0,2.2,0,2.6,0.9
		c-0.5,0.5-1.4,0.3-2.4,0.3c-6.1,0-12.5,0.1-18.7-0.1c-7.1-0.2-14.3,0.1-21.1-0.3C58.9,272.1,59,268.8,59,265.6L59,265.6z
		 M61.7,262.8c0-0.1,0.2-0.2,0.2-0.3h0.8c1,2.3,0.4,5.6,0.5,8.8c0.1,0.4-0.2,0.4-0.3,0.5c-0.1,0.4,0.4,0.5,0.1,0.9
		c-0.3,0.2-1,0.1-1.4,0.1C61.8,269.6,61.5,265.9,61.7,262.8L61.7,262.8z M58.9,259.3c4.8-3.1,8.8-7.2,12.2-12
		c1.7-2.4,3.4-4.7,4.9-7.2c2.1-3.8,3.8-8.1,5.7-12.3c3.1-6.8,7.3-12.7,13.4-16.8c1.7-1.2,3.7-2.4,5.7-3.4c2.8-1.3,6.4-2.5,10.4-2.8
		c1.6-0.1,3.5-0.4,5.3-0.2c4.1,0.3,8.2,1.9,10.9,4c1,0.8,1.5,1.4,2.3,2.7c0.7,1.2,1.2,2.4,0,3.4c-3.1,0.7-4.8-2.3-8-1.2
		c-1.4,0.5-2.2,2-3.6,2.2c-2.2,0.3-3.6-1.7-5.2-2.5c-0.5-0.3-1.3-0.5-1.8-0.6c-1-0.3-2.1-0.5-3.2-0.3c-0.6,0.1-1.7,0.5-2.4,0.9
		c-0.2,0.1-0.9,0.6-1.3,0.6c-1.3,0.1-2.8-1.3-4.4-1.5c-0.6-0.1-1.5-0.1-2.2,0c-0.4,0.1-1.1,0.3-1.5,0.5c-0.7,0.3-1.3,1-2.3,1.4
		c-1,1.2-2.1,2.2-3.2,3.4c-1,1.1-2.3,2-2.8,3.7c1.1,0,1.3-1.3,2-2c0.6-0.7,1.6-1.1,2.5-1.8c0.6-0.5,1.1-1,1.7-1.5
		c0.2-0.2,0.4-0.4,0.5-0.5c0.3-0.2,0.9-0.2,1.3-0.4c0.7-0.4,1.3-1,2.5-0.6c-0.5,1.1-2,1.7-2.8,2.6c-0.2,0.2-0.3,0.5-0.4,0.6
		c-0.4,0.5-1.1,1-1.4,1.7c1.2-0.6,2.1-1.8,3.2-2.7c1.2-0.9,3.3-2.3,5.3-1.6c0.1,0.6-0.6,0.6-0.9,0.9c-0.8,0.7-1.8,1.5-2.3,2.6
		c2.3-1.2,4-3,6.6-3.9c1.2-0.4,2.8-0.4,4.5-0.4c0.1,0.5-0.6,0.6-1,0.8c-1.1,0.6-2.3,1.7-3.6,2.3c-0.4,0.8-1.2,1-1.8,1.5
		c-0.6,0.5-1.1,1.2-1.7,1.8c-1.8,1.6-3.5,3.6-5.1,5.5c-3.2,4-6.1,7.9-9.4,11.8c-1.1,1.3-2.2,2.5-3.4,3.7c-2,2.1-3.9,4.2-6.2,6.2
		c-1.4,1.2-3.2,2.4-4.7,3.6c-1.3,0.9-2.5,1.9-3.9,2.7c-0.7,0.4-1.4,0.9-2,1.3c-1.4,0.8-2.8,1.5-4.2,2.3c-0.7,0.4-1.4,0.7-2.2,1.1
		C60.3,258.7,59.7,259.4,58.9,259.3L58.9,259.3z M75.5,235.2c-3.4,7-6.7,10.7-6.7,10.7s1.2-4.8,2.1-9.5c1-5.4,2.4-10.6,4.7-13.4
		s5.9-1,5.9-1S78.7,228.6,75.5,235.2L75.5,235.2z M78.2,213.5c0.9,0.2,3.3,1.2,3.8,2.3c0.4,0.9,0.4,3.3-0.8,3.7
		c-1.2,0.4-2.9-1-4-1.3c-0.5-0.1-1.2-0.2-1.7-0.1c-1.4,0.2-2.1,1.6-2.9,1.7c-1,0.1-2-0.9-3-1.3c-2.9-1.2-7.4-0.9-9.2,1.3
		c-1.3,1.5-1.7,4.8-0.9,7.1c0.5-0.4,0.3-1.1,0.4-1.6c0.1-0.5,0.4-1.1,0.5-1.6c0.6-2,1.4-4,3.9-4.1c-0.9,1.8-1.9,4.5-1.1,7
		c0.7-1.2,0.9-3.9,2-5.4c0.4-0.5,1.6-1.5,2.3-1.5c0.5,0,0.6,0.5,1.1,0.6c-0.6,1.6-1.8,3.2-1.2,5.4c0.7-0.5,0.7-1.5,1.1-2.3
		c0.4-0.7,1.2-2,2.1-2.3c1.3-0.4,3.1,0.2,4.2-0.9c0,0.6-0.5,0.9-0.8,1.3c-0.9,1.3-1.8,2.7-2.5,4.2c-1,2-1.9,4.2-2.4,6.6
		c-0.2,1.4-0.3,2.9-0.5,4.2c-0.5,3.4-1.3,6.6-2.4,9.5c-0.2,0.6-0.3,1.2-0.5,1.7c-0.2,0.5-0.8,1-1.1,1.6c-1.3,2.3-2.7,4.2-4.8,6
		c-2,1.8-4.5,3.3-7.2,4.4c0.5-1,1.5-1.4,2.2-2c0.4-0.4,0.7-0.9,1.1-1.3c0.8-0.9,1.7-2,2.3-3.2c1.9-4,2.1-9.4,1.6-14.6
		c-0.3-3.2-1.4-6.4-1.6-9.6c-0.2-2.9-0.2-5.5,0.5-7.7c0.2-0.5,0.6-1.1,0.9-1.6c0.7-1.4,1.5-2.6,2.7-3.7c2.3-2,5.4-2.9,9.3-3.1
		C73.9,213,76.1,213,78.2,213.5L78.2,213.5z M186.1,61.3c0,0.2-0.1,0.5-0.1,0.7c0,0.1-0.1,0.5-0.1,0.7c-2.4,0.1-4.3,0.2-4.3,0.2
		c-27.7,2.5-52.5,14.5-71.1,33c-20.9,20.8-33.8,49.5-33.8,81.2c0,13.1,1.7,24,5.7,35.4c-0.4-0.4-1.9-1.3-2.1-1.4
		c-3.3-10.7-5-21.9-5-33.9c0-60.7,46.9-110.3,106.6-115.5C183.5,61.5,184.8,61.4,186.1,61.3L186.1,61.3z M196.3,62.5
		c0,0-2.2,0-4.3,0c-1.8,0-2.7,0.1-3.7,0.1l0.2-1c0.4-2.2,0.8-3.8-0.6-5.3c-0.7-0.8-1.7-1.2-2.9-1.2c-0.8,0-2.5,0.6-2.7,0.6
		s-0.9-0.7-0.2-1.2c0.6-0.5,5.6-2,7.9-2.1s4.5,1.2,5.1,2.6c0.6,1.3,0.8,4.1,0.8,4.1c0,0.3,0,0.6,0.1,0.8c0,0.1,0,0.2,0,0.3
		c0,0.3,0.1,0.8,0.1,0.8C196.2,61.5,196.3,62.5,196.3,62.5L196.3,62.5z M199.1,64.9c59.4,3.6,106.7,52.5,106.7,112.5
		c0,14-2.3,26.5-7,38.8c0,0-2.8-4-7.1-7c-4.3-3-6.6-4-6.6-4c2.8-9,4-18.1,4-28c0-50-39-90.4-87.8-95.1c0,0-7.2-0.4-9.4-0.4
		s-7.8,0.4-9.5,0.5c-48.7,4.8-87.4,45.6-87.4,95.5c0,9.9,1.3,18.4,4.1,27.4c0,0-2.4,1.2-6.7,4.2c-4.3,3-7,7-7,7
		c-4.7-12.4-7-24.9-7-38.8c0-59,45.8-107.4,103.9-112.3c0,0,6.3-0.5,9.5-0.5C195.2,64.6,199.1,64.9,199.1,64.9L199.1,64.9z
		 M309.1,177.1c0,12.1-1.6,23.2-5,33.9c-0.2,0.1-1.8,1-2.1,1.4c4-11.4,5.6-22.2,5.6-35.4c0-31.7-12.9-60.4-33.8-81.2
		c-19.4-19.3-45.8-31.6-75.1-33.2l-0.1-0.6c0-0.3,0-0.6-0.1-0.8C260.2,64.6,309.1,115.1,309.1,177.1L309.1,177.1z M199.7,68.5
		l-8.6-0.1c-0.1,0-0.3,0-0.3-0.1c-0.1-0.1-0.1-0.2-0.2-0.4h-0.2l0,2.6l0.2,0c0-0.2,0.1-0.3,0.2-0.4c0.1-0.1,0.2-0.1,0.4-0.1l3.2,0
		l-0.1,7.7c0,0.1,0,0.3-0.1,0.4c-0.1,0.1-0.2,0.1-0.4,0.2v0.2l3.2,0v-0.2c-0.2-0.1-0.3-0.1-0.4-0.2s-0.1-0.2-0.1-0.4l0.1-7.7l3.2,0
		c0.2,0,0.3,0,0.4,0.1c0.1,0.1,0.1,0.2,0.2,0.4h0.2l0-2.6h-0.2c0,0.2-0.1,0.3-0.2,0.4C199.9,68.4,199.8,68.5,199.7,68.5L199.7,68.5z
		 M188.8,79l0.2,0l-0.2-2.6l-0.2,0c0,0.2-0.1,0.3-0.2,0.4c-0.1,0.1-0.2,0.1-0.3,0.1l-6.5,0.6l-0.2-2.8l4.1-0.4c0.1,0,0.3,0,0.4,0.1
		c0.1,0.1,0.2,0.2,0.2,0.4l0.2,0l-0.2-2.6l-0.2,0c0,0.2-0.1,0.3-0.2,0.4c-0.1,0.1-0.2,0.1-0.3,0.1l-4.1,0.4l-0.2-2.4l6.4-0.6
		c0.1,0,0.3,0,0.4,0.1c0.1,0.1,0.2,0.2,0.2,0.4l0.2,0l-0.2-2.6l-0.2,0c0,0.2-0.1,0.3-0.2,0.4c-0.1,0.1-0.2,0.1-0.3,0.1l-9.1,0.8
		l0,0.2c0.2,0,0.3,0.1,0.4,0.2c0.1,0.1,0.1,0.2,0.1,0.3l0.8,8.6c0,0.2,0,0.3-0.1,0.4c-0.1,0.1-0.2,0.2-0.4,0.2l0,0.2l9.2-0.8
		c0.1,0,0.3,0,0.4,0.1C188.7,78.7,188.8,78.8,188.8,79L188.8,79z M174.7,76.4c0.3-0.5,0.5-1,0.3-1.6c-0.1-0.6-0.4-1-0.9-1.4
		c-0.5-0.3-1-0.4-1.5-0.3c-0.6,0.1-1,0.4-1.4,0.9c-0.3,0.5-0.5,1-0.3,1.6c0.1,0.6,0.4,1,0.9,1.4c0.5,0.3,1,0.4,1.6,0.3
		C173.9,77.1,174.4,76.9,174.7,76.4L174.7,76.4z M168.1,80.2c0.3-0.7,0.3-1.3,0.1-2c-0.1-0.4-0.3-0.8-0.6-1.1
		c-0.3-0.3-0.6-0.6-1-0.7c-0.4-0.1-0.8-0.2-1.2-0.2c-0.5,0-1,0.1-1.7,0.2l-1.2,0.2c-0.8,0.1-1.3,0.2-1.5,0.2c-0.5,0-0.8-0.2-0.9-0.6
		c-0.1-0.2,0-0.5,0.1-0.7c0.1-0.2,0.3-0.5,0.6-0.6c0.4-0.2,0.8-0.4,1.3-0.6c1.1-0.3,2.2-0.3,3.3,0c0.3,0.1,0.5,0.2,0.6,0.4
		c0,0,0,0.1,0,0.1l0.2,0.1l0.5-2.6l-0.2-0.1c-0.1,0.1-0.2,0.2-0.3,0.3c-0.1,0-0.2,0-0.6,0c-0.9-0.1-1.6-0.1-2.2-0.1
		c-0.6,0-1.2,0.1-1.8,0.3c-1.5,0.4-2.5,1.1-3,2.1c-0.4,0.7-0.5,1.5-0.2,2.3c0.1,0.5,0.4,0.9,0.7,1.2c0.4,0.4,0.8,0.6,1.3,0.7
		c0.4,0.1,0.7,0.1,1,0.1c0.3,0,0.9-0.1,1.6-0.2l1.1-0.2c0.8-0.1,1.3-0.2,1.6-0.2c0.4,0,0.6,0.2,0.7,0.5c0.1,0.2,0,0.4,0,0.7
		c-0.1,0.2-0.2,0.5-0.5,0.6c-0.4,0.4-0.9,0.6-1.5,0.8c-0.6,0.2-1.2,0.2-1.9,0.2c-0.7,0-1.3-0.1-1.6-0.3c-0.3-0.1-0.4-0.3-0.5-0.5
		c0,0,0-0.1,0-0.1l-0.2,0l-0.4,2.7l0.2,0c0.1-0.1,0.2-0.2,0.2-0.2c0,0,0.2,0,0.5,0.1c1.5,0.2,2.8,0.2,4.1-0.2c0.7-0.2,1.4-0.5,2-0.9
		C167.3,81.3,167.8,80.8,168.1,80.2L168.1,80.2z M158,84.4l-0.1-0.2c-0.2,0-0.3,0-0.4,0s-0.2-0.1-0.2-0.3l-3.4-7.9
		c-0.1-0.1-0.1-0.2,0-0.4c0-0.1,0.1-0.2,0.3-0.3L154,75l-2.8,1.2l0.1,0.2c0.2,0,0.3,0,0.4,0s0.2,0.1,0.2,0.3l2.4,5.6l-7.5-3.1
		c-0.2-0.1-0.3-0.2-0.4-0.3c-0.1-0.2,0-0.3,0.2-0.4l-0.1-0.2l-3.2,1.4l0.1,0.2c0.2,0,0.3,0,0.4,0c0.1,0.1,0.2,0.1,0.2,0.3l3.4,7.9
		c0.1,0.1,0.1,0.3,0,0.4s-0.1,0.2-0.3,0.3l0.1,0.2l2.8-1.2l-0.1-0.2c-0.2,0-0.3,0-0.4,0s-0.2-0.1-0.2-0.3l-2.5-5.7l7.6,3.2
		c0.3,0.1,0.5,0.2,0.5,0.3c0.1,0.2,0,0.3-0.2,0.4l0.1,0.2L158,84.4L158,84.4z M143.9,88.2c0-1-0.2-1.9-0.8-2.8
		c-0.8-1.4-2-2.2-3.5-2.5c-1.4-0.3-2.9,0.1-4.4,1c-2,1.3-3,2.9-3,4.8c0,1,0.3,1.9,0.8,2.8c0.4,0.6,0.8,1.1,1.4,1.5
		c0.6,0.5,1.3,0.8,2,0.9c1.4,0.3,2.8-0.1,4.4-1C142.9,91.7,143.9,90.1,143.9,88.2L143.9,88.2z M141.7,87.9c0.1,0.5,0,1-0.1,1.5
		c-0.2,0.8-0.8,1.5-1.6,2c-0.8,0.5-1.7,0.7-2.5,0.5c-1-0.2-1.8-0.7-2.4-1.7c-0.6-0.9-0.7-1.9-0.4-2.9c0.2-0.8,0.8-1.5,1.6-2
		c0.8-0.5,1.7-0.7,2.5-0.6c1,0.2,1.8,0.7,2.4,1.7C141.4,87,141.6,87.4,141.7,87.9L141.7,87.9z M128.8,92.8c0.1,0.2,0.1,0.3,0.1,0.4
		c0,0.1-0.1,0.2-0.2,0.3l-3.2,2.6l-1.5-1.9l5-3.9c0.1-0.1,0.2-0.1,0.3-0.1c0.1,0,0.2,0.1,0.4,0.2l0.2-0.1l-1.6-2.1l-0.2,0.1
		c0.1,0.2,0.1,0.3,0.1,0.4c0,0.1-0.1,0.2-0.2,0.3l-7.1,5.6l0.1,0.2c0.2-0.1,0.3-0.1,0.4-0.1c0.1,0,0.2,0.1,0.3,0.2l5.4,6.8
		c0.1,0.1,0.1,0.2,0.1,0.3c0,0.1-0.1,0.2-0.2,0.4l0.1,0.2l2.5-2l-0.1-0.2c-0.2,0.1-0.3,0.1-0.4,0.1c-0.1,0-0.2-0.1-0.3-0.2l-2.3-2.9
		l3.2-2.6c0.1-0.1,0.2-0.1,0.3-0.1s0.2,0.1,0.4,0.2l0.2-0.1l-1.6-2L128.8,92.8L128.8,92.8z M202.6,72.4c-0.5,0.4-0.7,0.8-0.8,1.4
		c-0.1,0.6,0.1,1.1,0.5,1.6c0.4,0.5,0.8,0.7,1.4,0.8c0.6,0.1,1.1-0.1,1.6-0.4c0.5-0.4,0.7-0.8,0.8-1.4c0.1-0.6-0.1-1.1-0.5-1.6
		c-0.4-0.5-0.8-0.7-1.4-0.8C203.5,71.9,203,72,202.6,72.4L202.6,72.4z M209.6,74.8c-0.1,0.7-0.2,1.4,0,2c0.1,0.8,0.4,1.5,0.9,2.1
		c0.8,1.2,2.1,1.9,3.8,2.3c2.3,0.5,4.1,0,5.5-1.4c0.7-0.7,1.1-1.6,1.4-2.5c0.3-1.6,0.1-2.9-0.8-4.2c-0.8-1.2-2.1-1.9-3.8-2.3
		c-2.3-0.5-4.1,0-5.5,1.4C210.3,72.9,209.8,73.8,209.6,74.8L209.6,74.8z M211.8,75.3c0.2-1.1,0.8-1.9,1.7-2.4
		c0.8-0.4,1.6-0.5,2.6-0.3c1,0.2,1.7,0.7,2.2,1.4c0.6,0.8,0.8,1.8,0.6,2.9c-0.1,0.5-0.3,0.9-0.6,1.3c-0.3,0.4-0.7,0.8-1.1,1.1
		c-0.8,0.4-1.6,0.5-2.6,0.3c-1-0.2-1.7-0.7-2.2-1.4C211.8,77.3,211.6,76.4,211.8,75.3L211.8,75.3z M221.8,82.6l-0.1,0.2l3,1.1
		l0.1-0.2c-0.1-0.1-0.2-0.2-0.3-0.3c0-0.1,0-0.2,0-0.4l1.2-3.2l2.6,0.9l0.9,3.5c0.1,0.4,0.1,0.6,0.1,0.7c0,0.1-0.2,0.2-0.5,0.1
		l-0.1,0.2l3.5,1.3l0.1-0.2c-0.2-0.1-0.4-0.2-0.5-0.4c-0.1-0.2-0.2-0.6-0.4-1.2l-0.9-3.3c1.8,0.4,3-0.2,3.6-1.8
		c0.2-0.5,0.2-0.9,0.2-1.4c0-0.5-0.2-0.9-0.5-1.3c-0.2-0.3-0.6-0.6-1-0.9c-0.4-0.2-1-0.5-1.7-0.8l-6-2.2l-0.1,0.2
		c0.1,0.1,0.2,0.2,0.3,0.3c0,0.1,0,0.2,0,0.4l-3,8.1c-0.1,0.1-0.1,0.2-0.2,0.3C222.1,82.6,222,82.6,221.8,82.6L221.8,82.6z
		 M226.3,78.3l0.9-2.5l3.2,1.2c0.5,0.2,0.8,0.3,1,0.4c0.2,0.1,0.3,0.2,0.5,0.4c0.3,0.3,0.3,0.7,0.1,1.2c-0.2,0.5-0.5,0.8-0.9,0.8
		c-0.2,0-0.4,0-0.6,0c-0.2,0-0.5-0.2-1-0.3L226.3,78.3L226.3,78.3z M233.5,87.2l-0.1,0.2l2.9,1.3l0.1-0.2c-0.1-0.1-0.2-0.2-0.3-0.3
		c0-0.1,0-0.2,0-0.4l3.6-7.9c0.1-0.1,0.1-0.2,0.2-0.3c0.1-0.1,0.2-0.1,0.4,0l0.1-0.2l-2.9-1.3l-0.1,0.2c0.1,0.1,0.2,0.2,0.3,0.3
		s0,0.2,0,0.4l-3.6,7.9c-0.1,0.1-0.1,0.2-0.2,0.3C233.9,87.2,233.7,87.2,233.5,87.2L233.5,87.2z M240.5,85c-0.9,1.5-1,3-0.4,4.5
		c0.5,1.2,1.5,2.2,2.9,3.1c1.6,0.9,3.5,1.4,5.7,1.4l0.1-0.2c-0.1-0.1-0.2-0.2-0.2-0.4c0-0.1,0-0.2,0.1-0.4l1-1.8
		c0.1-0.1,0.2-0.2,0.3-0.2c0.1,0,0.2,0,0.4,0l0.1-0.2l-4.2-2.4c-0.1-0.1-0.2-0.2-0.2-0.3c0-0.1,0-0.2,0-0.4l-0.2-0.1l-1.2,2.1
		l0.2,0.1c0.1-0.1,0.2-0.2,0.4-0.2c0.1,0,0.2,0,0.4,0.1l2.2,1.3l-0.7,1.2c-0.5,0-1-0.1-1.5-0.3c-0.5-0.2-1-0.4-1.5-0.7
		c-1-0.6-1.6-1.3-2-2.2c-0.3-1-0.2-1.9,0.3-2.8c0.6-1,1.4-1.5,2.4-1.7c0.9-0.2,1.8,0,2.7,0.6c0.5,0.3,0.9,0.6,1.3,1.1
		c0.4,0.4,0.7,0.8,0.9,1.2c0.1,0.2,0.1,0.3,0.1,0.4s0,0.2-0.1,0.3l0.1,0.2l2.3-1.5l-0.1-0.2c-0.2,0-0.3,0-0.4,0
		c-0.1-0.1-0.3-0.2-0.5-0.5c-0.4-0.6-0.9-1-1.3-1.4c-0.4-0.4-0.8-0.7-1.3-1c-1.6-0.9-3.1-1.3-4.5-1C242.5,82.7,241.3,83.5,240.5,85
		L240.5,85z M251.6,94c-0.2,0.7-0.3,1.5-0.1,2.2c0.2,1.4,1,2.6,2.4,3.8c1.8,1.5,3.7,1.9,5.5,1.2c0.9-0.3,1.7-0.9,2.3-1.6
		c1-1.2,1.4-2.6,1.1-4.1c-0.2-1.4-1-2.7-2.4-3.8c-1.9-1.4-3.7-1.9-5.5-1.2c-0.9,0.3-1.7,0.9-2.4,1.7C252.1,92.7,251.8,93.3,251.6,94
		L251.6,94z M253.6,96.4c-0.2-1,0.1-1.9,0.8-2.8c0.7-0.9,1.5-1.3,2.6-1.4c0.9-0.1,1.7,0.2,2.5,0.8c0.8,0.6,1.2,1.4,1.4,2.2
		c0.2,1-0.1,1.9-0.8,2.9c-0.3,0.4-0.6,0.7-1.1,0.9c-0.5,0.3-1,0.4-1.5,0.4c-0.9,0.1-1.7-0.2-2.5-0.8C254.2,98,253.7,97.3,253.6,96.4
		L253.6,96.4z M225,280.6c0.4-0.7,0.5-1.4,0.3-2.1c-0.3-1-1.1-1.5-2.5-1.5c0.9-0.7,1.3-1.5,1-2.3c-0.1-0.4-0.4-0.8-0.7-1
		c-0.3-0.3-0.7-0.4-1.2-0.5c-0.8-0.1-1.6,0-2.6,0.3c-1.4,0.4-2.4,1-2.8,1.8c-0.4,0.5-0.4,1.1-0.3,1.7c0.2,0.8,1,1.3,2.1,1.4
		c-1.2,0.7-1.6,1.6-1.3,2.6c0.1,0.5,0.4,0.9,0.8,1.2c0.4,0.3,0.9,0.5,1.4,0.6c0.8,0.1,1.7,0,2.8-0.3
		C223.5,282.1,224.5,281.4,225,280.6L225,280.6z M222,275.4c0.1,0.3,0,0.6-0.3,0.9s-0.8,0.5-1.4,0.7s-1.1,0.2-1.5,0.1
		c-0.4-0.1-0.7-0.3-0.8-0.6c-0.1-0.3,0-0.6,0.3-0.9c0.3-0.3,0.7-0.5,1.3-0.7c0.6-0.2,1.1-0.2,1.5-0.1
		C221.6,274.8,221.9,275,222,275.4L222,275.4z M223.1,280.1c-0.3,0.4-0.9,0.7-1.6,0.9c-0.7,0.2-1.3,0.2-1.7,0.1
		c-0.5-0.1-0.8-0.4-0.9-0.8c-0.1-0.4,0-0.7,0.2-1c0.4-0.4,0.9-0.7,1.6-0.9c0.7-0.2,1.3-0.2,1.8-0.1s0.8,0.4,0.9,0.8
		C223.5,279.5,223.4,279.8,223.1,280.1L223.1,280.1z M214.2,279.5c0.6-0.6,0.9-1.3,0.7-2.1c-0.1-0.4-0.3-0.8-0.6-1.1
		c-0.3-0.3-0.6-0.5-1-0.6c-0.7-0.2-1.5-0.2-2.5-0.1c-1.4,0.3-2.5,0.9-3.4,1.9c-0.1,0.1-0.2,0.2-0.3,0.2c-0.1,0-0.2,0-0.4,0l-0.1,0.2
		l1.9,1.5l0.1-0.2c-0.1-0.1-0.1-0.2-0.1-0.3c0-0.2,0.1-0.4,0.4-0.7c0.6-0.5,1.3-0.9,2.2-1.1c0.6-0.1,1.1-0.1,1.5,0
		c0.4,0.1,0.6,0.4,0.7,0.7c0.1,0.4,0,0.7-0.3,0.9c-0.3,0.3-0.8,0.5-1.4,0.6c-0.4,0.1-0.7,0.1-0.9,0.1c-0.2,0-0.3-0.1-0.4-0.3l-0.2,0
		l0.5,2.2l0.2,0c0-0.2,0.1-0.3,0.2-0.4c0.1-0.1,0.4-0.2,0.9-0.3c0.7-0.1,1.2-0.1,1.6,0c0.4,0.1,0.6,0.4,0.7,0.8
		c0.1,0.5-0.1,0.9-0.5,1.2c-0.4,0.3-0.8,0.5-1.4,0.6c-0.6,0.1-1.2,0.2-1.8,0.1c-0.6,0-1.1-0.2-1.5-0.3c-0.3-0.1-0.4-0.3-0.5-0.6
		c0,0,0-0.1,0-0.1l-0.2,0l-0.5,2.6l0.2,0.1c0.1-0.2,0.3-0.3,0.4-0.3c0.1,0,0.4,0,0.8,0.1c1.1,0.3,2.2,0.3,3.4,0
		c1.1-0.2,2-0.6,2.6-1.2c0.8-0.7,1-1.5,0.8-2.5C215.9,280.2,215.3,279.7,214.2,279.5L214.2,279.5z M205.7,284.8
		c0.8-1,1.1-2.1,0.9-3.6c-0.1-0.7-0.3-1.3-0.6-2c-0.3-0.6-0.7-1.1-1.3-1.5c-0.8-0.6-1.8-0.8-3.1-0.6c-1.2,0.1-2.1,0.5-2.8,1.2
		c-0.7,0.7-1,1.5-0.9,2.4c0,0.5,0.2,0.9,0.5,1.3c0.3,0.4,0.6,0.7,1,0.9c0.7,0.4,1.6,0.5,2.5,0.4c0.6-0.1,1.1-0.2,1.5-0.4
		s0.9-0.6,1.2-1c0,0.6,0,1-0.1,1.4c-0.1,0.4-0.3,0.7-0.7,1c-0.5,0.4-1.1,0.7-1.8,0.8c-0.3,0-0.7,0-1.1,0c-0.4,0-0.7-0.1-1-0.3
		c-0.3-0.1-0.5-0.3-0.5-0.5c0-0.1,0-0.1,0-0.3l-0.2-0.1l-0.9,2.3l0.2,0.1c0,0,0.1-0.1,0.1-0.1c0.1-0.1,0.1-0.1,0.2-0.1
		c0.1,0,0.2,0,0.5,0.1c0.6,0.2,1.1,0.3,1.5,0.3c0.4,0,0.9,0,1.4,0C203.8,286.4,204.9,285.8,205.7,284.8L205.7,284.8z M204.1,280
		c0,0.4-0.1,0.8-0.4,1.1c-0.4,0.4-0.9,0.6-1.6,0.7c-0.7,0.1-1.2,0-1.7-0.3c-0.4-0.2-0.6-0.6-0.6-1c0-0.4,0.1-0.8,0.4-1.1
		c0.4-0.4,0.9-0.6,1.6-0.7c0.7-0.1,1.3,0,1.7,0.3C203.9,279.2,204.1,279.6,204.1,280L204.1,280z M193.2,287.1l2.8-0.1v-0.2
		c-0.2,0-0.3-0.1-0.3-0.2c-0.1-0.1-0.1-0.2-0.1-0.3l-0.2-7.7c0-0.1,0-0.2,0.1-0.3c0.1-0.1,0.2-0.1,0.3-0.2l0-0.2L193,278l0,0.2
		c0.2,0,0.3,0.1,0.3,0.2s0.1,0.2,0.1,0.3l0,0.4l-0.6,0.2c-0.1,0-0.1,0-0.2,0c-0.1,0-0.2,0-0.2-0.1c0,0-0.1-0.1-0.1-0.3h-0.2l0.1,2.4
		l0.2,0c0-0.2,0.1-0.3,0.2-0.3c0.1-0.1,0.2-0.1,0.3-0.2l0.6-0.2l0.1,5.7c0,0.1,0,0.2-0.1,0.3s-0.2,0.1-0.3,0.2L193.2,287.1
		L193.2,287.1z M186.8,280l0.2-2.3l-0.2,0c-0.1,0.2-0.1,0.3-0.2,0.3c-0.1,0.1-0.2,0.1-0.3,0.1l-7.6-0.6c-0.1,0-0.2,0-0.3-0.1
		s-0.1-0.2-0.1-0.3l-0.2,0l-0.1,1.2l0,0l0,0l-0.1,1.1l0.2,0c0.1-0.2,0.1-0.3,0.2-0.3c0.1-0.1,0.2-0.1,0.3-0.1l2.8,0.2l-0.6,6.9
		c0,0.1,0,0.2-0.1,0.3s-0.2,0.1-0.3,0.1l0,0.2l2.8,0.2l0-0.2c-0.2-0.1-0.3-0.1-0.3-0.2c-0.1-0.1-0.1-0.2-0.1-0.3l0.6-6.9l2.8,0.2
		c0.1,0,0.2,0,0.3,0.1c0.1,0.1,0.1,0.2,0.1,0.3L186.8,280L186.8,280z M177.9,278.1L177.9,278.1l-0.1-0.2c-0.1,0.1-0.3,0.1-0.4,0.1
		c0,0-0.2-0.1-0.4-0.2c-0.7-0.5-1.2-0.8-1.7-1s-1-0.4-1.6-0.5c-1.4-0.3-2.4-0.1-3.2,0.4c-0.6,0.4-1,1-1.1,1.7
		c-0.1,0.5-0.1,0.9,0.1,1.3c0.1,0.4,0.4,0.8,0.8,1.1c0.2,0.2,0.5,0.4,0.8,0.5c0.3,0.1,0.7,0.3,1.4,0.5l1,0.3
		c0.7,0.2,1.1,0.4,1.3,0.5c0.3,0.2,0.4,0.4,0.4,0.7c0,0.2-0.1,0.4-0.3,0.5c-0.2,0.2-0.4,0.3-0.6,0.3c-0.5,0.1-1,0.1-1.5,0
		c-0.5-0.1-1.1-0.3-1.6-0.6c-0.5-0.3-1-0.6-1.2-0.9c-0.2-0.2-0.2-0.4-0.2-0.6c0,0,0,0,0-0.1l-0.2-0.1l-1.4,2l0.2,0.1
		c0.1-0.1,0.2-0.1,0.3-0.1c0,0,0.2,0.1,0.4,0.3c1,0.8,2.1,1.3,3.3,1.5c0.7,0.1,1.3,0.2,1.9,0.1c0.8-0.1,1.4-0.3,1.9-0.6
		c0.5-0.4,0.8-0.9,0.9-1.5c0.1-0.4,0.1-0.8,0-1.2c-0.1-0.4-0.3-0.7-0.5-1c-0.2-0.3-0.5-0.5-0.9-0.7c-0.4-0.2-0.8-0.4-1.4-0.6l-1-0.3
		c-0.7-0.2-1.1-0.4-1.3-0.5c-0.4-0.2-0.5-0.5-0.5-0.8c0-0.2,0.2-0.4,0.4-0.5c0.2-0.1,0.4-0.2,0.7-0.3c0.4,0,0.8,0,1.2,0.1
		c1,0.2,1.9,0.7,2.6,1.4c0.2,0.2,0.3,0.4,0.3,0.5c0,0,0,0.1,0,0.1l0.2,0.1L177.9,278.1L177.9,278.1z M168.8,277.5l0.8-2.2l-0.2-0.1
		c-0.1,0.1-0.2,0.2-0.3,0.2c-0.1,0-0.2,0-0.3,0l-7.6-2.6l-0.1,0.2c0.1,0.1,0.2,0.2,0.3,0.3c0,0.1,0,0.2,0,0.3l-2.5,7.3
		c0,0.1-0.1,0.2-0.2,0.3c-0.1,0-0.2,0.1-0.4,0.1l-0.1,0.2l7.8,2.6c0.1,0,0.2,0.1,0.3,0.2c0,0.1,0.1,0.2,0.1,0.4l0.2,0.1l0.8-2.2
		l-0.2-0.1c-0.1,0.1-0.2,0.2-0.3,0.2c-0.1,0-0.2,0-0.3,0l-5.5-1.9l0.8-2.4l3.5,1.2c0.1,0,0.2,0.1,0.3,0.2c0,0.1,0.1,0.2,0.1,0.4
		l0.2,0.1l0.7-2.2l-0.2-0.1c-0.1,0.1-0.2,0.2-0.3,0.3c-0.1,0-0.2,0-0.3,0l-3.5-1.2l0.7-2l5.4,1.8c0.1,0,0.2,0.1,0.3,0.2
		c0,0.1,0.1,0.2,0.1,0.4L168.8,277.5L168.8,277.5z M136.4,202.2c0-0.7-0.6-1.2-1.2-1.2s-1.2,0.6-1.2,1.2s0.6,1.2,1.2,1.2
		S136.4,202.9,136.4,202.2L136.4,202.2z M133.2,150.3c0,0.7,0.6,1.2,1.3,1.2c0.7,0,1.2-0.6,1.2-1.2s-0.6-1.2-1.2-1.2
		C133.7,149.1,133.2,149.6,133.2,150.3L133.2,150.3z M132.9,184.9c0,0.7,0.6,1.2,1.2,1.2s1.2-0.6,1.2-1.2c0-0.7-0.6-1.2-1.2-1.2
		S132.9,184.2,132.9,184.9L132.9,184.9z M132.9,167.6c0,0.7,0.6,1.2,1.2,1.2s1.2-0.6,1.2-1.2s-0.6-1.2-1.2-1.2
		S132.9,166.9,132.9,167.6L132.9,167.6z M147.2,235.5c-0.7,0-1.2,0.6-1.2,1.2c0,0.7,0.6,1.3,1.2,1.3s1.2-0.6,1.2-1.3
		C148.4,236.1,147.9,235.5,147.2,235.5L147.2,235.5z M141.1,219.5c0-0.7-0.6-1.2-1.2-1.2s-1.2,0.6-1.2,1.2c0,0.7,0.6,1.3,1.2,1.3
		S141.1,220.2,141.1,219.5L141.1,219.5z M229.4,222.8c-1.1,3.6-2.7,7.3-4.3,11c0.3,0.3,0.6,0.5,0.9,0.8c1.8-4,3.2-7.9,4.1-11.5
		c0.7-0.1,1.5-0.4,1.9-0.6c-0.3-0.6-0.8-1-1.4-1c-0.7-0.2-1.6-0.1-2.2,0C228.8,222,229.3,222.4,229.4,222.8L229.4,222.8z
		 M231.5,219.4c0.5-1.2,0.6-2.7,0.5-3.8c-0.1-0.7-0.6-1.5-0.8-1.5c-0.4,0-0.8,0.5-1,1.2c-0.5,1.6-0.4,3.1-0.3,4.2
		c0.1,0.4,0.1,0.4,0.3,0.4l0-0.4l0.1-1.3l0-0.5c0.2,0,0.2,0.2,0.1,0.4c0.1,0.4,0.1,0.9,0.1,1.3c0,0.4,0.2,0.4,0.2,0.4
		s0.2-0.2,0.2-0.4l0.3-1.3c0-0.2,0.2-0.4,0.2-0.4l0,0.4c0.2,0.2-0.1,0.9-0.1,1.3c-0.2,0.4,0,0.4,0,0.4S231.5,219.8,231.5,219.4
		L231.5,219.4z M232.3,219.1c-0.2,0.4-0.2,0.4-0.2,0.4c0.2,0,0.2,0,0.4-0.1c1.2-1.2,1.8-2,1.9-3.5c0.2-0.9,0.1-1.5-0.1-1.5
		c-0.2-0.2-0.5,0-1.1,0.5c-0.4,0.3-0.6,1-0.9,2.1l0,0.5c0,0,0,0,0.2-0.2c0-0.4,0.2-0.5,0.2-0.7c0.1,0,0.1-0.1,0.2-0.2l0,0l0,0
		c0-0.1,0.1-0.1,0.2-0.2l0,0.2l-0.2,0l0,0l0,0.4c0,0.4-0.4,0.9-0.5,1.2c0,0-0.2,0.2,0,0.2l0.2,0l0.6-0.9c0,0,0-0.2,0.2,0
		c0,0,0,0-0.2,0.2C233.1,217.9,232.5,218.8,232.3,219.1L232.3,219.1z M234.2,213.6c0.6-0.5,1-1.2,1.1-2.1c0.2-0.9,0.1-1.5-0.1-1.5
		c0-0.2-0.5,0-1.1,0.5c-0.6,0.7-1,1.6-1.1,2.7l0,0.4c0,0,0.2-0.2,0.2-0.4c0.2-0.2,0.2-0.3,0.4-0.7l0.2,0l0,0.2c0,0-0.2,0.5-0.2,0.7
		c-0.2,0.2-0.2,0.4-0.2,0.4c0.2,0,0.2,0,0.2-0.2l0.6-0.9c0.2-0.2,0.2-0.2,0.2-0.2c0.2,0,0.2,0.2,0,0.2c0,0.2-0.2,0.5-0.4,0.7
		c0,0.4-0.2,0.5-0.2,0.4l0.2,0.2C233.6,213.9,234,213.8,234.2,213.6L234.2,213.6z M234.1,209.6c0.8-1,1.2-1.9,1.4-3.5
		c0.1-0.7-0.1-1.3-0.1-1.5c-0.2,0-0.7,0.1-1.1,0.5c-0.6,0.9-1.1,1.9-1.3,2.8c0,0.4,0,0.4,0.1,0.4c0,0,0-0.2,0.2-0.2
		c0-0.4,0.2-0.7,0.5-1.1l0.2,0l0,0.2c0,0.5-0.2,0.9-0.5,1.2l0,0.5c0,0,0.2-0.2,0.4-0.3l0.4-0.8l0.2-0.2c0.2,0,0.2,0.2,0,0.4
		c0,0.5-0.3,1.1-0.7,1.6c0,0.2-0.2,0.4,0,0.4C233.7,209.9,233.9,209.9,234.1,209.6L234.1,209.6z M234.7,203.8
		c0.6-1.2,1.1-2.5,1.2-3.7c0.1-0.9-0.1-1.3-0.3-1.3c-0.2-0.2-0.5,0-1.1,0.6c-0.6,0.5-0.8,1.4-1,3l0,0.5c0.2,0,0.2-0.2,0.2-0.4
		c0-0.4,0.2-0.7,0.5-1.1l0.2,0l0,0.2c0,0.4-0.2,0.9-0.3,1.1c-0.2,0.2-0.2,0.3,0,0.4c0,0,0-0.2,0.2-0.2l0.4-0.9
		c0-0.2,0.2-0.2,0.2-0.2l0,0.4c0,0.4-0.2,0.9-0.5,1.2s-0.2,0.5-0.2,0.5C234.4,204.1,234.4,204.1,234.7,203.8L234.7,203.8z
		 M235.4,197.6c0.6-1,1-2.9,0.8-3.8c-0.1-0.7-0.5-1-0.5-1c-0.2,0-0.6,0.1-1,0.7c-0.6,0.9-0.9,2.5-1,3.4c0,0.2,0.1,0.4,0.1,0.4
		l0.2-0.2c0-0.5,0.1-1.1,0.3-1.2c0-0.2,0.2-0.2,0.2-0.2l0,0.4l-0.1,0.9l0,0.4c0.2,0,0.3-0.2,0.4-0.3l0.2-0.9
		c0.2-0.2,0.2-0.2,0.2-0.2c0.2,0,0.2,0.2,0.1,0.4c0,0.2-0.2,0.9-0.5,1.2c0,0.2,0,0.4,0.2,0.4C235.2,198,235.4,197.8,235.4,197.6
		L235.4,197.6z M235.7,191.8c0.6-0.9,0.7-1.8,0.8-2.7c0.1-0.7-0.3-1.3-0.3-1.3c-0.2,0-0.7,0.1-1.1,0.6c-0.4,0.7-0.9,1.6-0.8,2.7
		c0,0.2,0,0.4,0.2,0.4l0-0.2c0-0.4,0.2-0.9,0.3-1.1c0.2-0.2,0.2-0.4,0.2-0.4c0.2,0,0.2,0.2,0.2,0.2c0,0.2-0.2,0.9-0.3,1.1l0.2,0.2
		c0,0,0.1,0,0.2-0.2l0.1-0.5l0.3-0.4l0,0.6c0,0.2-0.1,0.6-0.2,1c-0.2,0.2-0.2,0.4-0.2,0.4C235.5,192.1,235.5,192,235.7,191.8
		L235.7,191.8z M235.5,187.2c0.4-0.9,0.9-1.9,1-3c0-0.7-0.2-1.1-0.5-1.1c-0.2,0-0.5,0-1.1,0.5c-0.6,0.5-0.7,1.6-0.9,2.5
		c0,0.2,0,0.4,0.2,0.4l0-0.2c0.2-0.5,0.2-0.9,0.4-1.1c0-0.2,0.2-0.4,0.2-0.2l0.2,0.2c0,0.4-0.3,1.1-0.3,1.4l0,0.4
		c0.2,0,0.2-0.3,0.3-0.4l0.5-1c0.1-0.2,0.2-0.4,0.2-0.2l0,0.2c0,0.5-0.2,0.9-0.3,1.4c-0.2,0.2-0.2,0.4-0.2,0.4
		C235.3,187.4,235.3,187.4,235.5,187.2L235.5,187.2z M235.1,182.2c0.4-0.7,0.5-1.6,0.4-2.4c-0.1-0.6-0.5-1-0.5-1c-0.2,0-0.6,0.3-1,1
		c-0.2,0.5-0.3,1.6-0.2,2.2c0.1,0.4,0.1,0.6,0.3,0.6l0-0.4l0.2-0.7c0-0.2,0.2-0.4,0.2-0.4s0.2,0.2,0.2,0.4l0,0.5
		c0,0.2,0,0.4,0.1,0.4C234.9,182.6,234.9,182.6,235.1,182.2L235.1,182.2z M233.8,189.5c-0.3-0.9-0.8-1.3-1-1.4s-0.8,0.3-1.2,1.4
		c-0.3,1.1-0.4,2.7-0.1,4c0.2,0.4,0.3,0.4,0.3,0.4l0-0.4c0-0.4-0.1-1.3,0.1-1.6c0-0.2,0-0.2,0.2-0.2c0,0,0,0.2,0.2,0.2
		c0,0.4-0.1,0.9,0.1,1.1l0,0.2c0.2,0,0.2,0,0.2-0.2l0.1-1.1c0.2-0.2,0.2-0.4,0.2-0.4c0.2,0,0.2,0,0.2,0.2c0.1,0.7,0.1,1.3,0,1.6
		c0,0.2,0,0.4,0.2,0.4c0,0.2,0.2-0.4,0.2-0.5C234,192,234.1,190.6,233.8,189.5L233.8,189.5z M233.5,180.1c0.3-1.1,0.3-2-0.3-3.1
		c-0.1-0.6-0.7-1-0.7-1c-0.2,0-0.6,0.3-0.8,1.2c-0.3,1.3-0.4,2.5,0.1,3.8c0,0.4,0.1,0.4,0.1,0.4l0-0.4l0.2-2c0-0.2,0.2-0.4,0.2-0.4
		l0.2,0.2c0,0.5-0.1,0.9,0.1,1.3l0,0.2c0.2,0,0.2-0.2,0.2-0.2c0-0.5,0.1-1.1,0.3-1.4l0-0.2c0.2,0,0.2,0,0.2,0.2
		c0,0.4,0.1,1.1-0.1,1.5c0,0.2,0.1,0.4,0.1,0.4S233.5,180.3,233.5,180.1L233.5,180.1z M231.6,183.1c-0.5,1.4-0.6,2.5-0.1,3.8
		c0,0.4,0.1,0.6,0.1,0.6c0.2,0,0.2-0.2,0-0.5l0.1-1.6c0-0.2,0.2-0.4,0.2-0.4c0.2,0,0.2,0.2,0.1,0.4c0.1,0.6,0.1,1.1,0.1,1.5
		c0,0.2,0,0.4,0.1,0.4c0,0,0.2-0.2,0.2-0.4l0.1-1.5c0.2-0.2,0.2-0.2,0.2-0.2c0.2,0,0.2,0,0.2,0.2l-0.1,1.3c-0.2,0.4,0,0.5,0,0.5
		s0.2-0.2,0.4-0.7c0.3-1.4,0.4-2.2,0.1-3.5c-0.1-0.7-0.6-1.1-0.6-1.1C232.6,181.9,231.8,182.4,231.6,183.1L231.6,183.1z
		 M231.2,183.2l0-0.5c-0.1-0.6-0.5-1.3-1.1-1.9c-0.4-0.2-0.9-0.4-0.9-0.2c-0.2,0-0.2,0.9-0.3,1.4c0.1,1.3,0.5,2.6,1.5,4
		c0.2,0.2,0.3,0.4,0.3,0.4c0.2-0.2,0-0.4-0.1-0.6c-0.3-0.8-0.4-1.5-0.7-2.2l0-0.5l0.2,0.2c0.2,0.2,0.3,0.6,0.5,0.8
		c0.2,0.2,0.2,0.2,0.4,0.2c0,0,0-0.2-0.1-0.4l-0.3-1.3l0-0.2c0-0.2,0.2-0.2,0.2,0c0.2,0.2,0.1,0.4,0.3,0.8
		C231,183.2,231.2,183.2,231.2,183.2L231.2,183.2z M230,187.1c-0.5-0.4-1.1-0.5-1.2-0.5c0,0.2-0.2,0.7-0.1,1.8c0,2,0.9,3.2,1.9,4.2
		c0.2,0.2,0.4,0.2,0.4,0.2s0-0.2-0.1-0.4l-0.9-2.5c-0.1-0.1-0.1-0.4-0.1-0.4s0.2,0,0.4,0.2c0.2,0.2,0.5,0.6,0.7,0.8
		c0,0.2,0.2,0.2,0.2,0.2c0.2,0,0-0.2,0-0.4c-0.2-0.4-0.5-1-0.5-1.3l0-0.4c0,0,0,0,0.2,0.2c0,0,0.3,0.4,0.5,0.8l0.2,0.2l0-0.4
		C231,188.7,230.7,187.7,230,187.1L230,187.1z M229.6,192.8c-0.5-0.4-1-0.6-1.1-0.5c-0.2,0-0.2,0.7-0.3,1.4c0.1,1.5,0.9,3.2,1.5,4.1
		c0.2,0,0.4,0.2,0.4,0.2c0-0.2,0-0.4-0.1-0.5l-0.6-2.1c-0.2-0.2-0.2-0.4,0-0.5l0.2,0.2c0.2,0.2,0.5,0.6,0.6,1l0.2,0.2l0-0.4
		c-0.1-0.6-0.3-0.9-0.5-1.3c-0.2-0.2-0.2-0.2,0-0.4c0,0,0,0.2,0.2,0.2c0.2,0.2,0.7,0.8,0.7,1c0.2,0.2,0.1,0.4,0.4,0.2l0-0.2
		C230.9,194.3,230.4,193.4,229.6,192.8L229.6,192.8z M231.7,200.3c0-0.4-0.1-0.9,0.1-1.5c0-0.2,0-0.2,0.2-0.2l0,0.2
		c0.1,0.4,0.1,0.7,0.1,1.1c0,0.4,0.1,0.4,0.1,0.4s0.2-0.2,0.2-0.4l0.1-1.3c0-0.2,0.2-0.2,0.2-0.2l0.2,0.2l-0.1,1.3
		c0,0.4,0,0.5,0.1,0.6c0,0,0-0.2,0.2-0.5c0.3-1.1,0.4-2.5,0.1-3.6c-0.1-0.7-0.6-1.5-0.8-1.5s-1,0.5-1.2,1.4c-0.3,1.4-0.2,3.1,0,4.2
		c0.2,0.2,0.1,0.4,0.1,0.4C231.7,200.8,231.7,200.6,231.7,200.3L231.7,200.3z M231,207.2c0,0.4,0.2,0.4,0.2,0.4s0.2-0.2,0.2-0.4
		l0.1-1.6c0,0,0-0.2,0.2-0.2l0,0.2c0.1,0.6,0.1,0.9,0.1,1.1c0,0.2,0.1,0.4,0.1,0.4s0.2-0.2,0.2-0.3l0.1-1.2c0-0.1,0.1-0.2,0.2-0.2
		c0.1,0.1,0.2,0.2,0.2,0.3l-0.1,1.3c0,0.2,0.1,0.4,0.1,0.4c-0.1,0,0.1,0,0.2-0.4c0.3-1.3,0.6-2.5,0.1-4c-0.2-0.8-0.4-1.1-0.8-1.2
		c-0.3,0-0.7,0.1-1,1C230.7,204.2,230.7,205.8,231,207.2L231,207.2z M231.6,211.8l0,0.2c0.1,0.6,0.1,0.9,0.1,1.3
		c0,0.2,0,0.4,0.1,0.4l0-0.4l0.3-1.2c0-0.2,0.2-0.2,0.2-0.2s0.2,0,0.2,0.2c0,0.4-0.2,0.7-0.3,1.1c0,0.4,0,0.5,0.1,0.5
		c0,0,0,0,0.2-0.5c0.5-1.4,0.6-2.9,0.3-4.2c-0.1-0.6-0.6-1.1-0.8-1.2c-0.2,0-0.6,0.5-0.8,1.2c-0.5,1.2-0.5,2.3-0.1,4.2
		c0,0.2,0.2,0.4,0.2,0.4l0-0.4l0.1-1.3C231.4,211.7,231.4,211.7,231.6,211.8L231.6,211.8z M229.3,198.1c-0.7-0.4-1-0.6-1.2-0.5
		c-0.2,0-0.2,0.5-0.1,1.5c0,1.6,0.9,2.8,1.7,3.6c0.2,0.2,0.4,0.2,0.4,0.2l0-0.4l-0.6-1.1l0-0.4c0.2,0,0.2,0,0.4,0.2
		c0.2,0.2,0.4,0.2,0.3,0.4c0.2,0.2,0.4,0.2,0.4,0.2l0-0.2c-0.2-0.4-0.3-0.6-0.5-0.9l0-0.4c0,0,0.2,0.2,0.4,0.2
		c0.2,0.2,0.3,0.4,0.5,0.8c0,0.2,0.1,0.4,0.1,0.4c0.2-0.2,0-0.4,0-0.7C230.8,200,230.2,198.7,229.3,198.1L229.3,198.1z M228.8,202.6
		c-0.5-0.4-1.2-0.6-1.2-0.5c-0.2,0-0.2,0.7-0.1,1.5c0.2,1.6,1,3.2,2,4.2c0.2,0.2,0.2,0.4,0.3,0.4c0-0.2,0-0.2-0.1-0.6l-0.8-1.5
		c0,0-0.2-0.2,0-0.2c0-0.2,0-0.2,0.2,0c0.2,0,0.5,0.4,0.7,0.6c0,0.2,0.2,0.2,0.2,0.2l0-0.4c-0.1-0.4-0.5-0.8-0.5-1.1
		c-0.2-0.2-0.1-0.4-0.1-0.4c0.2,0,0.2,0,0.4,0.2c0.2,0.2,0.5,0.8,0.5,1c0,0,0.2,0.2,0.2,0l0-0.4
		C230.1,204.5,229.7,203.4,228.8,202.6L228.8,202.6z M230.1,212c0-0.2-0.3-1.1-0.6-1.9l0-0.2l0.2,0c0,0.2,0.5,0.8,0.5,1
		c0.2,0.2,0.2,0.2,0.3,0.2c0,0-0.2-0.2-0.1-0.6c-0.1-0.6-0.6-1.5-1.1-2.1c-0.9-0.6-1.2-0.6-1.2-0.6c-0.2,0.2-0.4,0.9-0.2,2
		c0.1,0.9,0.9,2.3,1.4,3c0.4,0.2,0.4,0.2,0.4,0.2c0.2,0,0.2-0.2,0-0.2L229,211c-0.2,0-0.2-0.2-0.2-0.2l0.2,0
		c0.3,0.4,0.5,0.8,0.8,1.2c0,0.2,0.2,0.4,0.2,0.4L230.1,212L230.1,212z M227.8,213.3c-0.2,0-0.2,0.5-0.1,1.5
		c0.1,0.9,0.4,1.9,0.9,2.8c0.2,0.4,0.3,0.4,0.3,0.4l0-0.4l-0.2-1.5l0-0.2c0,0,0.2,0,0.2,0.2c0.2,0,0.4,0.2,0.3,0.4l0.4,0
		c0,0,0-0.2-0.2-0.2c0-0.2-0.1-0.7-0.3-1.1c-0.2-0.2-0.2-0.2,0-0.2c0.2,0.2,0.4,0.2,0.5,0.4c0,0.2,0.2,0.2,0.2,0.2l0-0.4
		c-0.3-0.6-0.6-1.1-1.1-1.7C228.3,213.3,228,213.1,227.8,213.3L227.8,213.3z M235.4,236.8c0,1.2,1,2.2,2.2,2.2s2.2-1,2.2-2.2
		s-1-2.2-2.2-2.2S235.4,235.5,235.4,236.8L235.4,236.8z M236.4,236.8c0-0.7,0.6-1.2,1.2-1.2s1.2,0.6,1.2,1.2c0,0.7-0.6,1.3-1.2,1.3
		S236.4,237.4,236.4,236.8L236.4,236.8z M242.8,219.5c0,1.2,1,2.2,2.2,2.2c1.2,0,2.2-1,2.2-2.2s-1-2.2-2.2-2.2
		C243.8,217.2,242.8,218.2,242.8,219.5L242.8,219.5z M243.8,219.5c0-0.7,0.6-1.2,1.2-1.2s1.2,0.6,1.2,1.2c0,0.7-0.6,1.3-1.2,1.3
		C244.3,220.7,243.8,220.2,243.8,219.5L243.8,219.5z M247,202.2c0,1.2,1,2.2,2.2,2.2s2.2-1,2.2-2.2s-1-2.2-2.2-2.2
		C248,199.9,247,200.9,247,202.2L247,202.2z M248,202.2c0-0.7,0.5-1.2,1.2-1.2c0.7,0,1.2,0.6,1.2,1.2s-0.6,1.2-1.2,1.2
		C248.5,203.4,248,202.9,248,202.2L248,202.2z M250.7,187.1c1.2,0,2.2-1,2.2-2.2s-1-2.2-2.2-2.2s-2.2,1-2.2,2.2
		C248.4,186.1,249.4,187.1,250.7,187.1L250.7,187.1z M250.7,186.1c-0.7,0-1.2-0.6-1.2-1.2c0-0.7,0.6-1.2,1.2-1.2s1.2,0.6,1.2,1.2
		S251.4,186.1,250.7,186.1L250.7,186.1z M252.9,167.6c0-1.2-1-2.2-2.2-2.2s-2.2,1-2.2,2.2c0,1.2,1,2.2,2.2,2.2
		S252.9,168.9,252.9,167.6L252.9,167.6z M251.9,167.6c0,0.7-0.6,1.2-1.2,1.2s-1.2-0.6-1.2-1.2s0.6-1.2,1.2-1.2
		S251.9,166.9,251.9,167.6L251.9,167.6z M252.7,151.7c0-1.2-1-2.2-2.2-2.2c-1.2,0-2.2,1-2.2,2.2s1,2.2,2.2,2.2
		C251.7,153.9,252.7,152.9,252.7,151.7L252.7,151.7z M251.7,151.7c0,0.7-0.6,1.2-1.2,1.2s-1.2-0.6-1.2-1.2s0.6-1.3,1.2-1.3
		C251.1,150.4,251.7,151,251.7,151.7L251.7,151.7z M235.3,149.3c0-1.2-1-2.2-2.2-2.2s-2.2,1-2.2,2.2s1,2.2,2.2,2.2
		S235.3,150.6,235.3,149.3L235.3,149.3z M234.3,149.3c0,0.7-0.5,1.2-1.2,1.2c-0.7,0-1.3-0.6-1.3-1.2s0.6-1.2,1.3-1.2
		C233.8,148.1,234.3,148.6,234.3,149.3L234.3,149.3z M217,148c0-1.2-1-2.2-2.2-2.2s-2.2,1-2.2,2.2c0,1.2,1,2.2,2.2,2.2
		S217,149.3,217,148L217,148z M216,148c0,0.7-0.6,1.2-1.2,1.2c-0.7,0-1.2-0.6-1.2-1.2s0.6-1.2,1.2-1.2
		C215.4,146.8,216,147.3,216,148L216,148z M188.8,156c0,1.7,1.4,3,3.1,3.1v-6.2C190.2,153,188.8,154.3,188.8,156L188.8,156z
		 M170.1,146c-0.7,0-1.2,0.6-1.2,1.2s0.6,1.2,1.2,1.2s1.2-0.6,1.2-1.2S170.8,146,170.1,146L170.1,146z M151.8,146.8
		c-0.7,0-1.3,0.6-1.3,1.2s0.6,1.2,1.3,1.2s1.2-0.6,1.2-1.2S152.5,146.8,151.8,146.8L151.8,146.8z M200.3,128.8
		c0,0.4,0.3,0.7,0.7,0.7s0.7-0.3,0.7-0.7s-0.3-0.7-0.7-0.7C200.6,128.1,200.3,128.4,200.3,128.8L200.3,128.8z M202.7,128.8
		c0,0.4,0.3,0.7,0.7,0.7c0.4,0,0.7-0.3,0.7-0.7s-0.3-0.7-0.7-0.7C203,128.1,202.7,128.4,202.7,128.8L202.7,128.8z M205,128.8
		c0,0.4,0.3,0.7,0.7,0.7c0.4,0,0.7-0.3,0.7-0.7s-0.3-0.7-0.7-0.7C205.3,128.1,205,128.4,205,128.8L205,128.8z M199.3,128.8
		c0-0.4-0.3-0.7-0.7-0.7s-0.7,0.3-0.7,0.7s0.3,0.7,0.7,0.7C199,129.5,199.3,129.2,199.3,128.8L199.3,128.8z M197,128.8
		c0-0.4-0.3-0.7-0.7-0.7s-0.7,0.3-0.7,0.7s0.3,0.7,0.7,0.7C196.7,129.5,197,129.2,197,128.8L197,128.8z M194.6,128.8
		c0-0.4-0.3-0.7-0.7-0.7c-0.4,0-0.7,0.3-0.7,0.7s0.3,0.7,0.7,0.7C194.3,129.5,194.6,129.2,194.6,128.8L194.6,128.8z M192.3,128.8
		c0-0.4-0.3-0.7-0.7-0.7c-0.4,0-0.7,0.3-0.7,0.7s0.3,0.7,0.7,0.7S192.3,129.2,192.3,128.8L192.3,128.8z M189.9,128.8
		c0-0.4-0.3-0.7-0.7-0.7c-0.4,0-0.7,0.3-0.7,0.7s0.3,0.7,0.7,0.7C189.6,129.5,189.9,129.2,189.9,128.8L189.9,128.8z M187.6,128.8
		c0-0.4-0.3-0.7-0.7-0.7c-0.4,0-0.7,0.3-0.7,0.7s0.3,0.7,0.7,0.7C187.3,129.5,187.6,129.2,187.6,128.8L187.6,128.8z M185.2,128.8
		c0-0.4-0.3-0.7-0.7-0.7c-0.4,0-0.7,0.3-0.7,0.7s0.3,0.7,0.7,0.7C184.9,129.5,185.2,129.2,185.2,128.8L185.2,128.8z M182.9,128.8
		c0-0.4-0.3-0.7-0.7-0.7c-0.4,0-0.7,0.3-0.7,0.7s0.3,0.7,0.7,0.7C182.5,129.5,182.9,129.2,182.9,128.8L182.9,128.8z M180.5,128.8
		c0-0.4-0.3-0.7-0.7-0.7c-0.4,0-0.7,0.3-0.7,0.7s0.3,0.7,0.7,0.7C180.2,129.5,180.5,129.2,180.5,128.8L180.5,128.8z M178.1,128.8
		c0-0.4-0.3-0.7-0.7-0.7s-0.7,0.3-0.7,0.7s0.3,0.7,0.7,0.7S178.1,129.2,178.1,128.8L178.1,128.8z M187.2,37.7l7.2-0.6l0-0.5
		c-0.4-0.1-0.7-0.2-0.9-0.4c-0.2-0.2-0.3-0.4-0.3-0.8l-1.5-19.3c0-0.3,0-0.6,0.2-0.8c0.1-0.2,0.4-0.4,0.8-0.5l0-0.5l-6.7,0.5l0,0.5
		c0.4,0.1,0.7,0.2,0.9,0.4c0.2,0.2,0.3,0.4,0.3,0.8l1.1,13.5L174.5,18c-0.3-0.3-0.5-0.6-0.5-0.9c0-0.4,0.2-0.7,0.7-0.8l0-0.5
		l-7.8,0.6l0,0.5c0.4,0.1,0.7,0.2,0.9,0.4c0.2,0.2,0.3,0.4,0.3,0.8l1.5,19.3c0,0.4,0,0.6-0.2,0.8c-0.1,0.2-0.4,0.4-0.8,0.5l0,0.5
		l6.7-0.5l0-0.5c-0.4-0.1-0.7-0.2-0.9-0.4c-0.2-0.2-0.3-0.4-0.3-0.8l-1.1-13.9l13.8,12.2c0.6,0.5,0.9,0.9,0.9,1.1
		c0,0.4-0.2,0.6-0.6,0.8L187.2,37.7L187.2,37.7z M156.1,42.4l8-2.5l-0.2-0.5c-0.5,0.1-0.9,0-1.2-0.2c-0.4-0.2-0.8-0.6-1.4-1.2
		l-13.6-14.2c-0.3-0.3-0.5-0.6-0.6-1c-0.1-0.4,0.1-0.9,0.6-1.2l-0.2-0.5l-7.8,2.4L140,24c0.7,0,1.1,0.3,1.3,0.8
		c0.1,0.3,0.1,0.8,0,1.4l-2.8,19.3c-0.1,0.7-0.2,1.2-0.4,1.5c-0.2,0.3-0.4,0.5-0.8,0.8l0.1,0.5l7.2-2.2l-0.2-0.5
		c-0.8,0-1.2-0.2-1.4-0.6c-0.1-0.2-0.1-0.6,0-1.1l0.5-3.5l9.9-3.1l2.5,2.6c0.4,0.4,0.6,0.7,0.6,0.9c0.2,0.5-0.1,1-0.8,1.3
		L156.1,42.4L156.1,42.4z M151.3,34.5l-7.1,2.2l1.2-8.9L151.3,34.5L151.3,34.5z M132.3,47.6l0.2-0.5l-5.1-2.6l-0.2,0.5
		c0.1,0.1,0.2,0.3,0.2,0.4c0.2,0.3,0.2,0.6,0.1,1s-0.4,0.9-0.8,1.6c-1.2,1.9-2.7,3.5-4.6,4.6c-2.3,1.3-4.4,1.8-6.4,1.4
		c-2.4-0.4-4.1-1.7-5.4-3.8c-1.2-2.1-1.4-4.3-0.6-6.6c0.7-1.9,2.2-3.5,4.5-4.8c1.9-1.1,4-1.7,6.3-1.7c0.8,0,1.4,0,1.8,0.1
		c0.4,0.1,0.7,0.3,0.8,0.6c0.1,0.1,0.1,0.2,0.2,0.4l0.5,0l0.4-5.7l-0.5,0c-0.1,0.4-0.3,0.7-0.5,0.8c-0.2,0.1-0.8,0.1-1.9,0.2
		c-2.2,0-4,0.1-5.3,0.5c-1.3,0.3-2.8,0.9-4.3,1.8c-4.3,2.4-6.7,5.6-7.3,9.5c-0.4,2.6,0.1,5.1,1.5,7.5c1,1.8,2.3,3.2,4,4.2
		c1.4,0.9,3,1.4,4.6,1.6c2.9,0.3,5.9-0.4,9-2.2c1.6-0.9,2.8-1.8,3.8-2.8c1-1,2-2.4,3.1-4.4c0.5-0.9,0.9-1.4,1.1-1.5
		C131.6,47.5,131.9,47.5,132.3,47.6L132.3,47.6z M91.5,51.6c-0.2-0.2-0.3-0.5-0.4-0.7c0-0.2,0.1-0.5,0.3-0.9l-0.4-0.4l-4.9,4.6
		l0.4,0.4c0.4-0.2,0.7-0.3,0.9-0.2c0.2,0,0.5,0.2,0.7,0.4l9.2,9.9l-18.2-1c-0.5,0-0.8-0.1-1-0.3c-0.3-0.3-0.3-0.6,0-1.1l-0.4-0.4
		l-5.7,5.3l0.4,0.4c0.4-0.2,0.7-0.3,0.9-0.2c0.2,0,0.5,0.2,0.7,0.4l13.2,14.2c0.2,0.3,0.4,0.5,0.4,0.7c0,0.2-0.1,0.5-0.3,0.9
		l0.4,0.4l4.9-4.6l-0.4-0.4c-0.4,0.2-0.7,0.3-0.9,0.2c-0.2,0-0.5-0.2-0.7-0.4l-9.5-10.2l18.4,1c0.8,0,1.2,0.1,1.4,0.3
		c0.3,0.3,0.2,0.6,0,1l0.4,0.4l5.3-4.9l-0.4-0.4c-0.4,0.2-0.7,0.3-0.9,0.2s-0.5-0.2-0.7-0.4L91.5,51.6L91.5,51.6z M65.6,77.9
		c-0.3-0.2-0.5-0.4-0.5-0.6c-0.1-0.2,0-0.5,0.1-0.9L64.7,76L61,81.6l0.4,0.3c0.3-0.3,0.6-0.4,0.8-0.4s0.5,0.1,0.8,0.2l9.5,6.4
		c1.1,0.7,1.9,1.3,2.3,1.8c0.4,0.5,0.7,1,0.9,1.6c0.3,1.5-0.2,3.4-1.6,5.5c-1.5,2.1-2.9,3.4-4.5,3.6c-0.6,0.1-1.2,0-1.8-0.2
		c-0.6-0.2-1.5-0.7-2.5-1.4l-9.5-6.4c-0.3-0.2-0.5-0.4-0.5-0.6s0-0.6,0.1-0.9l-0.4-0.3l-4,5.9l0.4,0.3c0.3-0.3,0.6-0.4,0.8-0.4
		c0.2,0,0.5,0.1,0.8,0.2l10.6,7.1c1.3,0.9,2.6,1.5,3.8,1.8c1.2,0.3,2.4,0.2,3.6-0.4c2-0.9,4.1-2.9,6.1-6c2.8-4.2,3.8-7.6,2.9-10.1
		c-0.5-1.4-1.8-2.8-3.8-4.1L65.6,77.9L65.6,77.9z M56.4,110.5c-2.1-0.8-4.1-1.1-5.9-0.9c-2.4,0.2-4.4,1.2-6,2.8
		c-1.1,1.2-2.2,3.1-3.2,5.7l-4.5,12l0.5,0.2c0.2-0.3,0.5-0.5,0.7-0.6c0.2-0.1,0.5-0.1,0.8,0.1l18.1,6.8c0.3,0.1,0.5,0.3,0.7,0.5
		c0.1,0.2,0.1,0.5,0.1,0.9l0.5,0.2l4.5-12c0.8-2,1.2-3.7,1.3-5.1c0.1-1.4,0-2.7-0.5-4C62.5,114.1,60.1,111.9,56.4,110.5L56.4,110.5z
		 M54.6,115.2c3.2,1.2,4.9,3,5.3,5.5c0.2,1.1-0.1,2.6-0.8,4.5l-2.2,5.9l-14.4-5.4l2.2-5.9c0.5-1.4,1.1-2.5,1.7-3.3
		c0.6-0.7,1.4-1.3,2.3-1.6C50.4,114.3,52.3,114.4,54.6,115.2L54.6,115.2z M31.3,186.6c3.5-2,6.4-5.2,8.9-8c0.8-0.9,1.8-1.8,2.4-2.7
		c0.1-0.2,0.8-0.7,0.2-0.9h-0.2c-1.8,2.3-4,4.5-6.8,6.5c-1,0.7-2.6,1.9-3.9,2.5c-0.6,0.3-1.5,0.5-2.3,1c-0.4,0.2-1.7,0.7-1.4,1.8
		C28.5,188.1,30.4,187.1,31.3,186.6L31.3,186.6z M34.7,193.1c2.5-5.7,5.4-10.6,8.7-15.5c0.4-0.6,2-2.4,1.7-2.9
		c-0.1-0.2-0.1-0.2-0.6-0.3c-2.8,3.8-5.5,7.4-8.5,11.7c-1.9,2.8-4,6-5.3,9.4c-0.2,0.5-1.2,3.3,0.2,3.5c1.2,0.2,1.9-1.6,2.3-2.5
		C33.7,195.2,34.3,194,34.7,193.1L34.7,193.1z M51.1,193.4c0.4-3.8-4.8-4.5-4.9-1.3c0,1.4,1.9,2.6,2.7,1c-2.2,0.3-1.6-1.7-0.6-1.8
		c1-0.1,1.7,0.7,1.7,1.7c0,1.4-1.1,2.1-1.9,2.3c-3.4,0.6-4.4-3.9-4.4-6.5c0-5,2-9.3,3.3-13.1c-0.3,0-0.3-0.2-0.6-0.2
		c-1.7,3.4-3.7,8.8-3.7,13.5c0,3.2,1.6,7.2,4.7,7.4C49.2,196.5,50.8,195.3,51.1,193.4L51.1,193.4z M50.1,170.9
		c0.5-0.6,1.2-1.1,1.9-1.5c0-0.4,0-0.8-0.1-1.1c-1.5-0.6-2.3,1.2-2.8,2.3C49.5,170.6,49.8,170.8,50.1,170.9L50.1,170.9z M47,166.7
		c-0.3,0.6-0.9,1.4-0.2,2.1c1.1-1,1.6-2.6,2.3-4c1.9-4.4,3.3-9.6,3.3-15.4h-0.8c-0.1,0-0.1,0.2-0.1,0.3
		C51.2,156.4,49.4,162.1,47,166.7L47,166.7z M48.2,168.3c-0.3,0.5-1.1,1.3-0.1,1.6c0.5-0.4,0.8-1,1.1-1.6c0.9-1.8,2-3.8,2.4-5.8
		c-0.2,0-0.2-0.1-0.4-0.1c0,0.1-0.2,0.1-0.2,0.2C50.2,164.4,49.2,166.6,48.2,168.3L48.2,168.3z M50.6,171.4
		c-2.7,0.2-4.3-1.5-4.8-3.9C42.7,169,50.5,175.3,50.6,171.4L50.6,171.4z M45,170c-0.2,0.3-0.5,0.6-0.7,1c0.5,1.3,1,0.4,1.4-0.3
		C45.5,170.5,45.4,170.1,45,170L45,170z M45.6,172.3c0.1,0.4,0.4,0.6,0.8,0.8c0.1-0.5,0.5-0.7,0.6-1.2c-0.4,0-0.4-0.4-0.8-0.4
		C46.1,171.7,45.9,172.1,45.6,172.3L45.6,172.3z M47.4,173.7c0.3,0,0.4,0.2,0.8,0.1c0.1-0.5,0.4-0.7,0.4-1.2
		c-0.4,0.1-0.4-0.2-0.8-0.2C47.7,172.9,47.4,173.1,47.4,173.7L47.4,173.7z M49,174c-3.1,0.5-4.2-1.8-5.2-3.8
		C40.7,172,48.7,177.9,49,174L49,174z M40.8,188.1c0.3-3.4,1.9-6.5,3.1-8.9c0.5-1,1-1.8,1.3-2.8c-0.1,0-0.1-0.1-0.3-0.1
		c-1.8,2.7-3.4,5.3-4.9,9c-0.6,1.4-1.3,3.3-1.6,5.1c-0.3,1.8-0.5,5.1,1.3,5C41.5,195.3,40.6,189.8,40.8,188.1L40.8,188.1z M31.2,157
		c-1.5,1.1-2.9,2.6-4.1,4c-2.6,3-4.8,6.4-5.1,11.2c-0.4,5.4,2.5,9.2,7.6,9.2c3.4,0,6.2-1.7,8.4-3.1c1.2-0.8,3.6-2.6,4.8-3.8
		c0.5-0.5,1.1-1.2,0.4-1.6c-0.3-0.2-0.4,0-0.6,0.1c-0.2,0.2-0.6,0.6-0.6,0.6c-1.2,1.2-3.1,2.8-4,3.5c-1.7,1.3-4.1,2.8-6.8,3.1
		c-8.1,1.2-9.2-6.8-6.8-12.6c2.1-5,6.4-10.1,11.2-11.6c1-0.3,2.8-0.5,3.7-0.2c2.5,0.8,3.1,4.6,2.1,7.5c-0.7,2-2.2,4.2-4,6.1
		c-1.1,1.2-4.1,4.2-6.4,3.5c-2.1-0.7-0.9-3.8-0.1-5.2c1.2-2.3,3-4,5-5.1c0.7-0.4,1.7-0.4,1.1-1.1c-0.1-0.4-0.6,0-0.8,0
		c-0.2,0.1-0.6,0.3-0.8,0.4c-2.6,1.4-4.6,3.4-5.9,6.3c-1.1,2.4-1.2,5.5,1.8,5.8c1.4,0.1,3.2-0.8,4.4-1.7c3.2-2.4,6.9-7.3,7.2-11.7
		c0.2-2.6-1-4.5-2.7-5.3C36.9,153.7,33.4,155.4,31.2,157L31.2,157z"/>
	<g>
		<path d="M107,270.5l1.3-0.7l2.1,3.7c0.2,0.4,0.5,0.7,0.7,0.8c0.4,0.2,0.8,0.2,1.3-0.1s0.7-0.6,0.7-1.1c0-0.2-0.1-0.6-0.4-1
			l-2.1-3.7l1.3-0.7l2.1,3.7c0.4,0.6,0.5,1.2,0.6,1.7c0,0.9-0.5,1.6-1.6,2.2c-1,0.6-1.9,0.7-2.7,0.2c-0.4-0.2-0.8-0.7-1.2-1.3
			L107,270.5z"/>
		<path d="M113.8,266.6l1.4-0.7l4.6,3.1l-2.2-4.3l1.2-0.6l3.1,6.2l-1.3,0.6l-4.8-3.1l2.2,4.4l-1.2,0.6L113.8,266.6z"/>
		<path d="M125,269l-1.3,0.6l-2.9-6.4l1.3-0.6L125,269z"/>
		<path d="M131.6,264c0,0.4,0,0.8-0.1,1.1l1,0.4l-0.4,1l-1.1-0.4c-0.2,0.2-0.3,0.4-0.5,0.5c-0.2,0.2-0.6,0.4-1,0.6
			c-0.8,0.3-1.6,0.4-2.4,0.1c-0.9-0.3-1.6-1.1-2.1-2.3c-0.5-1.2-0.5-2.2-0.1-3.1c0.4-0.7,1-1.2,1.8-1.6s1.6-0.4,2.4-0.1
			c0.9,0.3,1.6,1,2,2.1C131.5,263.1,131.6,263.6,131.6,264z M129.5,265.9c0.1,0,0.2-0.1,0.3-0.2l-0.9-0.4l0.4-1l0.9,0.4
			c0-0.2,0-0.5,0-0.6c0-0.3-0.1-0.5-0.2-0.9c-0.3-0.7-0.7-1.2-1.1-1.5s-1-0.3-1.5-0.1c-0.5,0.2-0.9,0.6-1,1.1
			c-0.2,0.5-0.1,1.1,0.2,1.9c0.4,0.9,0.8,1.4,1.5,1.6c0.4,0.1,0.8,0.1,1.2-0.1C129.3,266,129.4,266,129.5,265.9z"/>
		<path d="M131.8,258.7l1.4-0.5l1.4,4c0.2,0.5,0.3,0.8,0.5,0.9c0.3,0.3,0.7,0.4,1.3,0.2c0.5-0.2,0.9-0.5,0.9-0.9c0-0.2,0-0.6-0.2-1
			l-1.4-4l1.4-0.5l1.4,4c0.2,0.7,0.3,1.3,0.2,1.8c-0.2,0.9-0.8,1.5-1.9,1.9c-1.1,0.4-2,0.3-2.7-0.3c-0.4-0.3-0.6-0.8-0.9-1.5
			L131.8,258.7z"/>
		<path d="M144.5,255.9l-3.5,1l0.4,1.4l3.2-1l0.3,1.2l-3.2,1l0.5,1.7l3.7-1.1l0.4,1.2l-5.1,1.5l-2-6.7l4.9-1.5L144.5,255.9z"/>
		<path d="M151.2,257.9c0.1,0.3,0.3,0.5,0.4,0.6c0.3,0.2,0.7,0.3,1.3,0.1c0.3-0.1,0.6-0.2,0.8-0.3c0.4-0.2,0.5-0.5,0.4-0.9
			c0-0.2-0.2-0.4-0.4-0.5c-0.2-0.1-0.6-0.1-1-0.1l-0.8,0c-0.8,0-1.3,0-1.6-0.2c-0.5-0.2-0.9-0.6-1-1.3c-0.1-0.6,0-1.2,0.3-1.7
			s1-0.9,1.8-1.1c0.7-0.2,1.4-0.1,2,0.1c0.6,0.3,1,0.8,1.2,1.5l-1.4,0.3c-0.1-0.4-0.4-0.6-0.8-0.7c-0.2-0.1-0.5,0-0.9,0
			c-0.4,0.1-0.7,0.2-0.9,0.4c-0.2,0.2-0.2,0.4-0.2,0.7c0.1,0.2,0.2,0.4,0.5,0.5c0.2,0,0.5,0.1,1,0.1h1.3c0.5,0,1,0.1,1.3,0.2
			c0.5,0.2,0.8,0.6,0.9,1.2c0.1,0.6,0,1.2-0.4,1.7c-0.4,0.5-1,0.9-1.9,1.1c-0.9,0.2-1.6,0.2-2.2-0.1c-0.6-0.3-1-0.8-1.1-1.5
			L151.2,257.9z"/>
		<path d="M161.5,254.9c-0.3,0.4-0.9,0.7-1.6,0.8l-1.4,0.3l0.5,2.5l-1.4,0.3l-1.3-6.9l2.9-0.5c0.7-0.1,1.2,0,1.7,0.2
			s0.8,0.8,0.9,1.5C161.9,253.8,161.8,254.4,161.5,254.9z M159.9,252.6c-0.2-0.1-0.5-0.1-0.8-0.1l-1.3,0.2l0.4,2l1.3-0.2
			c0.3-0.1,0.6-0.2,0.7-0.4c0.1-0.2,0.2-0.5,0.1-0.8C160.3,252.9,160.1,252.7,159.9,252.6z"/>
		<path d="M165.5,257.3l-1.4,0.2l-1.1-6.9l1.4-0.2L165.5,257.3z"/>
		<path d="M171,249.7c0.3,0.1,0.5,0.2,0.7,0.4c0.2,0.2,0.3,0.3,0.4,0.5c0.1,0.2,0.2,0.4,0.2,0.7c0,0.3,0,0.7-0.1,1s-0.4,0.6-0.7,0.8
			c0.3,0.1,0.6,0.2,0.8,0.5c0.2,0.2,0.3,0.6,0.3,1.1l0.1,0.5c0,0.3,0.1,0.5,0.1,0.6c0.1,0.2,0.2,0.3,0.3,0.4l0,0.2l-1.6,0.2
			c-0.1-0.1-0.1-0.3-0.1-0.4c-0.1-0.2-0.1-0.4-0.1-0.6l-0.1-0.6c-0.1-0.4-0.2-0.7-0.3-0.9c-0.2-0.1-0.5-0.2-0.9-0.1l-1.4,0.2
			l0.3,2.7l-1.4,0.2l-0.9-6.9l3.3-0.4C170.3,249.6,170.7,249.6,171,249.7z M168.1,251.1l0.2,1.9l1.5-0.2c0.3,0,0.5-0.1,0.7-0.2
			c0.3-0.2,0.4-0.4,0.3-0.8c0-0.4-0.2-0.7-0.5-0.8c-0.2-0.1-0.4-0.1-0.7,0L168.1,251.1z"/>
		<path d="M176.2,256l-1.4,0.1l-0.6-6.9l1.4-0.1L176.2,256z"/>
		<path d="M182.6,248.5l0.1,1.2l-2.1,0.1l0.4,5.7l-1.5,0.1l-0.4-5.7l-2.1,0.1l-0.1-1.2L182.6,248.5z"/>
		<path d="M185.5,253.2c0,0.3,0.1,0.5,0.3,0.7c0.2,0.3,0.7,0.4,1.2,0.4c0.4,0,0.6-0.1,0.9-0.1c0.4-0.2,0.6-0.4,0.6-0.8
			c0-0.2-0.1-0.4-0.3-0.5c-0.2-0.1-0.5-0.2-1-0.3l-0.8-0.1c-0.8-0.1-1.3-0.3-1.5-0.5c-0.5-0.3-0.7-0.8-0.8-1.5
			c0-0.6,0.2-1.1,0.6-1.6c0.5-0.4,1.1-0.6,2-0.7c0.7,0,1.4,0.2,1.9,0.5s0.8,0.9,0.9,1.7l-1.4,0c0-0.4-0.2-0.7-0.6-0.9
			c-0.2-0.1-0.5-0.2-0.9-0.1c-0.4,0-0.7,0.1-0.9,0.2c-0.2,0.2-0.3,0.4-0.3,0.6c0,0.2,0.1,0.4,0.4,0.5c0.1,0.1,0.5,0.2,0.9,0.3
			l1.2,0.2c0.5,0.1,1,0.3,1.2,0.5c0.4,0.3,0.6,0.8,0.7,1.4c0,0.6-0.2,1.2-0.7,1.6c-0.5,0.4-1.2,0.7-2.1,0.7c-0.9,0-1.6-0.2-2.2-0.6
			c-0.5-0.4-0.8-1-0.8-1.7L185.5,253.2z"/>
		<path d="M199.7,254.8c-0.5,0.5-1.3,0.8-2.3,0.7c-1,0-1.8-0.3-2.3-0.9c-0.7-0.7-1-1.6-1-2.9c0-1.3,0.4-2.2,1.1-2.8
			c0.5-0.5,1.3-0.8,2.3-0.7c1,0,1.8,0.3,2.3,0.9c0.7,0.7,1,1.6,1,2.9C200.8,253.2,200.4,254.1,199.7,254.8z M198.8,253.7
			c0.4-0.4,0.5-1,0.6-1.8c0-0.8-0.1-1.4-0.5-1.8c-0.3-0.4-0.8-0.7-1.4-0.7c-0.6,0-1,0.2-1.4,0.6c-0.4,0.4-0.5,1-0.6,1.8
			c0,0.8,0.1,1.4,0.5,1.8c0.3,0.4,0.8,0.7,1.4,0.7C198,254.3,198.5,254.1,198.8,253.7z"/>
		<path d="M202.9,248.6l5,0.4l-0.1,1.2l-3.5-0.2l-0.1,1.6l3.1,0.2l-0.1,1.2l-3.1-0.2l-0.2,2.9l-1.4-0.1L202.9,248.6z"/>
		<path d="M216.5,250.1c0.5,0.2,0.8,0.6,1.1,1c0.2,0.4,0.3,0.8,0.4,1.2s0,0.8,0,1.2c-0.1,0.9-0.4,1.7-0.9,2.3
			c-0.6,0.8-1.4,1.1-2.5,1l-3-0.4l0.9-6.9l3,0.4C215.9,249.9,216.2,250,216.5,250.1z M213.7,250.8l-0.6,4.5l1.3,0.2
			c0.7,0.1,1.2-0.2,1.6-0.8c0.2-0.4,0.3-0.8,0.4-1.3c0.1-0.7,0-1.3-0.1-1.7s-0.6-0.6-1.2-0.7L213.7,250.8z"/>
		<path d="M220.5,257.6l-1.4-0.2l1.1-6.9l1.4,0.2L220.5,257.6z"/>
		<path d="M223.8,256c0,0.3,0,0.6,0.1,0.8c0.2,0.3,0.6,0.5,1.1,0.7c0.3,0.1,0.6,0.1,0.9,0c0.4-0.1,0.7-0.3,0.8-0.7
			c0-0.2,0-0.4-0.2-0.6c-0.2-0.2-0.5-0.3-0.9-0.5l-0.7-0.3c-0.7-0.3-1.2-0.6-1.4-0.8c-0.4-0.4-0.5-0.9-0.4-1.6
			c0.1-0.6,0.4-1.1,1-1.4s1.2-0.4,2.1-0.2c0.7,0.1,1.3,0.5,1.8,0.9c0.4,0.5,0.6,1.1,0.5,1.8l-1.4-0.3c0-0.4-0.1-0.7-0.4-1
			c-0.2-0.2-0.5-0.3-0.8-0.3c-0.4-0.1-0.7-0.1-1,0s-0.4,0.3-0.5,0.6c0,0.2,0,0.5,0.2,0.6c0.1,0.1,0.4,0.3,0.9,0.5l1.1,0.5
			c0.5,0.2,0.9,0.5,1.1,0.7c0.4,0.4,0.5,0.9,0.3,1.5c-0.1,0.6-0.5,1.1-1,1.4s-1.3,0.4-2.2,0.2c-0.9-0.2-1.6-0.5-2-1
			c-0.4-0.5-0.6-1.1-0.5-1.8L223.8,256z"/>
		<path d="M235.7,253.6l-0.3,1.2l-2-0.5l-1.3,5.6l-1.4-0.3l1.3-5.6l-2-0.5l0.3-1.2L235.7,253.6z"/>
		<path d="M236.8,261.1l-1.4-0.4l1.8-6.7l1.4,0.4L236.8,261.1z"/>
		<path d="M240.6,254.9l1.5,0.4l1.2,5.5l1.4-4.6l1.3,0.4l-2,6.7l-1.4-0.4l-1.3-5.5l-1.4,4.7l-1.3-0.4L240.6,254.9z"/>
		<path d="M248.5,258.1c0.7-0.4,1.5-0.4,2.3-0.1c1.1,0.4,1.8,1,2,1.9c0.1,0.5,0.1,1,0,1.4l-1.4-0.5c0-0.4,0-0.6-0.1-0.8
			c-0.1-0.4-0.5-0.6-0.9-0.8c-0.5-0.2-1-0.1-1.4,0.2c-0.4,0.3-0.8,0.8-1,1.6s-0.3,1.3-0.1,1.8c0.2,0.5,0.5,0.8,0.9,1
			c0.5,0.2,0.9,0.1,1.2-0.1c0.2-0.1,0.4-0.3,0.6-0.6l1.4,0.5c-0.4,0.7-0.9,1.1-1.5,1.4c-0.6,0.3-1.3,0.3-2.1,0
			c-0.9-0.3-1.6-0.9-1.9-1.7c-0.3-0.8-0.3-1.7,0.1-2.8C247.1,259.3,247.7,258.6,248.5,258.1z"/>
		<path d="M260.1,261.8l-0.5,1.1l-1.9-0.8l-2.2,5.3l-1.4-0.5l2.2-5.3l-1.9-0.8l0.5-1.1L260.1,261.8z"/>
		<path d="M260,269.4l-1.3-0.6l2.9-6.4l1.3,0.6L260,269.4z"/>
		<path d="M266.8,272c-0.7,0.2-1.5,0.1-2.4-0.3c-0.9-0.4-1.5-1-1.7-1.7c-0.3-0.9-0.2-1.9,0.3-3c0.6-1.1,1.3-1.8,2.2-2.1
			c0.7-0.2,1.5-0.1,2.4,0.3c0.9,0.4,1.5,1,1.7,1.7c0.3,0.9,0.2,1.9-0.3,3C268.5,271,267.7,271.7,266.8,272z M266.5,270.7
			c0.5-0.2,0.9-0.7,1.3-1.4c0.4-0.7,0.5-1.3,0.4-1.9c-0.1-0.5-0.4-0.9-0.9-1.2c-0.5-0.3-1-0.3-1.5,0c-0.5,0.2-0.9,0.7-1.3,1.4
			c-0.4,0.7-0.5,1.3-0.4,1.9s0.4,0.9,1,1.2C265.5,270.9,266,270.9,266.5,270.7z"/>
		<path d="M272.3,267.8l1.3,0.8l0,5.6l2.4-4.2l1.2,0.7l-3.5,6l-1.3-0.7l0-5.7l-2.5,4.3l-1.2-0.7L272.3,267.8z"/>
	</g>
</g>
</svg>
