<?xml version="1.0" standalone="no"?>
<!DOCTYPE svg PUBLIC "-//W3C//DTD SVG 20010904//EN"
 "http://www.w3.org/TR/2001/REC-SVG-20010904/DTD/svg10.dtd">
<svg version="1.0" xmlns="http://www.w3.org/2000/svg"
 width="768.000000pt" height="768.000000pt" viewBox="0 0 768.000000 768.000000"
 preserveAspectRatio="xMidYMid meet">
<metadata>
Created by potrace 1.14, written by Peter Selinger 2001-2017
</metadata>
<g transform="translate(0.000000,768.000000) scale(0.100000,-0.100000)"
fill="#000000" stroke="none">
<path d="M3829 6826 c-2 -2 -24 -5 -49 -7 -52 -3 -67 -9 -51 -19 13 -7 16 -32
27 -185 6 -96 6 -99 -12 -85 -11 8 -21 18 -24 21 -3 3 -39 34 -80 70 -124 105
-160 142 -158 158 3 12 -6 14 -47 11 -27 -2 -60 -4 -72 -4 -25 -1 -28 -7 -13
-22 5 -5 12 -41 15 -79 3 -39 8 -95 10 -125 3 -30 7 -88 11 -128 4 -52 3 -77
-7 -88 -11 -14 -6 -15 47 -13 71 3 77 5 65 28 -6 10 -13 53 -16 97 -3 43 -8
103 -10 132 l-4 53 24 -18 c13 -10 78 -65 144 -123 99 -86 119 -109 115 -127
-3 -15 0 -21 8 -18 7 3 40 7 73 9 76 6 73 5 56 15 -7 5 -15 22 -17 37 -6 56
-14 154 -20 231 -2 43 -7 93 -9 112 -3 19 0 40 6 47 9 11 -2 29 -12 20z"/>
<path d="M4294 6757 l-10 -54 33 2 c36 3 124 -13 135 -24 10 -9 -61 -344 -75
-353 -20 -12 -8 -17 92 -35 30 -5 33 -4 27 14 -5 16 26 192 59 331 5 21 10 23
46 18 60 -8 119 -28 113 -37 -3 -5 -1 -9 5 -9 7 0 31 80 31 105 0 2 -8 1 -17
-1 -16 -4 -56 2 -223 37 -25 5 -58 12 -75 15 -64 11 -115 27 -115 35 0 5 -4 9
-8 9 -5 0 -13 -24 -18 -53z"/>
<path d="M2888 6671 c-98 -31 -93 -29 -73 -51 9 -10 15 -22 12 -27 -3 -4 -8
-32 -11 -62 -3 -30 -10 -82 -16 -115 -5 -34 -12 -79 -15 -101 -11 -72 -23
-140 -30 -156 -5 -14 0 -14 52 3 96 31 90 28 71 39 -20 11 -23 44 -9 81 12 33
183 86 209 66 33 -26 51 -53 46 -70 -4 -15 -1 -16 28 -7 18 6 51 16 73 21 22
6 41 12 43 13 2 2 -30 36 -70 77 -213 215 -260 267 -253 288 3 11 5 20 3 19
-2 0 -29 -8 -60 -18z m58 -161 c12 -14 34 -38 48 -55 29 -34 27 -37 -33 -54
-23 -7 -50 -15 -58 -18 -13 -5 -14 3 -9 53 4 32 7 71 8 86 2 30 11 27 44 -12z"/>
<path d="M5017 6582 c4 -19 0 -23 -184 -190 -120 -108 -137 -122 -150 -122
-32 0 -8 -20 52 -44 36 -14 67 -26 69 -26 2 0 2 9 -1 21 -4 15 3 29 28 50 38
32 33 32 143 -14 l80 -34 2 -47 c2 -33 -2 -49 -12 -53 -26 -10 -14 -20 54 -46
80 -32 85 -32 74 -9 -5 9 -10 40 -11 67 -2 28 -4 66 -6 85 -2 19 -7 78 -10
130 -4 52 -9 112 -10 133 -2 26 1 40 11 44 26 10 14 21 -51 47 -77 31 -85 32
-78 8z m31 -203 c2 -92 5 -91 -88 -51 l-43 18 59 57 c32 31 61 57 64 57 3 0 7
-36 8 -81z"/>
<path d="M2464 6451 c-5 -5 -41 -11 -80 -13 -167 -11 -299 -129 -297 -268 1
-125 103 -229 226 -233 90 -2 211 64 265 145 15 22 37 51 49 64 l22 24 -49 25
c-28 14 -50 24 -51 23 0 -2 -1 -15 -3 -29 -3 -41 -61 -105 -122 -135 -115 -56
-226 1 -237 123 -4 41 18 97 49 124 56 49 175 79 225 56 12 -6 16 0 18 34 1
24 4 46 7 50 7 11 -11 19 -22 10z"/>
<path d="M5416 6423 c-3 -3 -1 -13 4 -23 5 -10 12 -82 15 -160 l5 -142 -42
-69 c-23 -38 -48 -69 -55 -69 -26 0 -12 -19 37 -49 58 -36 60 -36 60 -16 0 8
20 46 44 83 l44 69 133 52 c74 30 144 53 157 53 12 0 22 2 22 4 0 5 -117 83
-134 90 -9 3 -13 -1 -13 -12 2 -18 -81 -66 -137 -80 -23 -5 -24 -5 -25 76 -1
65 2 85 15 94 13 10 6 19 -54 58 -38 26 -72 44 -76 41z"/>
<path d="M1768 6072 c-41 -40 -46 -52 -25 -52 8 0 31 -19 53 -42 21 -24 63
-69 94 -102 l55 -58 -135 7 c-74 4 -151 9 -170 10 -19 1 -45 3 -57 4 -14 0
-23 7 -23 17 0 13 -3 13 -20 1 -37 -26 -90 -77 -90 -87 0 -6 5 -10 12 -10 6 0
28 -17 47 -38 199 -214 237 -256 241 -273 4 -17 11 -14 54 28 42 42 46 48 27
51 -11 2 -32 18 -47 35 -14 18 -52 59 -83 92 -81 85 -81 85 -14 80 32 -2 117
-7 188 -10 103 -5 133 -10 143 -23 11 -14 17 -12 54 24 56 52 61 58 40 62 -9
2 -28 16 -42 31 -14 15 -66 72 -117 127 -126 137 -133 145 -127 155 14 24 -26
4 -58 -29z"/>
<path d="M3765 6103 c-160 -39 -185 -57 -165 -118 13 -38 40 -48 80 -28 20 10
27 10 39 -2 25 -25 10 -30 -116 -40 -43 -3 -85 -8 -93 -10 -8 -2 -35 -7 -60
-10 -25 -3 -52 -8 -60 -10 -8 -2 -31 -7 -50 -10 -68 -11 -279 -72 -345 -100
-16 -7 -55 -23 -85 -35 -213 -87 -493 -262 -649 -404 -117 -108 -223 -219
-286 -300 -16 -21 -35 -44 -42 -51 -6 -7 -46 -64 -87 -127 -213 -324 -347
-713 -373 -1081 -11 -166 -5 -492 11 -537 3 -8 8 -39 11 -68 3 -30 7 -57 9
-60 2 -4 7 -23 10 -42 3 -19 12 -60 21 -90 9 -30 18 -68 21 -83 5 -26 3 -28
-16 -22 -37 12 -137 13 -187 3 -76 -17 -146 -68 -180 -133 -33 -62 -42 -136
-39 -325 3 -258 -17 -353 -95 -452 -67 -84 -146 -110 -234 -77 -175 66 -217
285 -88 460 60 81 87 97 126 77 34 -18 55 -16 77 4 48 45 -2 134 -87 157 -60
17 -147 13 -206 -9 -116 -44 -181 -163 -180 -330 0 -91 35 -187 93 -262 71
-91 131 -127 255 -154 54 -12 205 -5 280 13 11 3 31 7 45 10 l25 5 0 -124 c0
-68 1 -131 4 -140 3 -17 33 -18 450 -18 l448 0 38 -70 c21 -38 50 -83 64 -100
l26 -30 108 64 c60 35 136 76 171 91 l62 26 94 -57 c94 -57 220 -120 335 -167
61 -25 234 -82 276 -91 13 -3 51 -12 84 -20 33 -8 78 -17 100 -20 106 -16 110
-18 153 -65 89 -94 275 -281 282 -281 3 0 71 68 150 152 166 173 174 181 194
184 70 10 94 14 116 19 14 3 36 8 50 11 88 18 286 79 358 110 17 8 49 21 70
30 82 36 215 105 289 152 l79 49 75 -37 c41 -20 123 -63 183 -95 126 -67 104
-74 186 61 l49 81 343 2 c189 1 390 3 448 4 l105 2 0 132 c0 73 3 134 6 137 3
3 34 -2 69 -10 65 -16 230 -22 283 -11 135 28 235 108 292 232 37 79 48 127
46 200 -4 138 -43 228 -123 283 -57 39 -104 51 -191 48 -81 -3 -125 -21 -156
-65 -50 -70 2 -143 74 -104 47 26 118 -39 173 -157 34 -75 37 -195 5 -255 -38
-71 -112 -127 -184 -140 -115 -21 -239 105 -276 279 -3 17 -7 126 -8 241 -1
116 -5 230 -9 255 -21 113 -105 207 -205 227 -45 9 -145 9 -174 0 -15 -5 -31
-7 -34 -4 -3 3 9 61 25 129 17 68 34 146 37 173 3 28 8 64 11 80 9 62 14 165
14 335 0 196 -2 218 -34 430 -17 108 -78 314 -133 450 -96 235 -247 478 -406
654 -258 283 -538 483 -872 621 -85 35 -245 90 -288 99 -12 3 -37 9 -54 15
-18 5 -33 8 -33 6 0 -3 -11 0 -24 5 -13 5 -43 12 -67 15 -24 4 -46 8 -49 10
-3 2 -32 6 -65 10 -33 3 -82 9 -110 12 -27 3 -62 6 -77 6 -22 1 -28 5 -28 22
0 31 -20 87 -39 109 -34 39 -112 63 -166 49z m89 -53 c37 -14 55 -48 62 -121
l6 -66 -75 -2 -75 -2 1 55 c2 72 -23 98 -89 91 -46 -5 -58 7 -24 25 11 6 20 9
20 7 0 -3 17 1 38 9 44 16 101 18 136 4z m242 -174 c398 -44 788 -193 1108
-423 129 -93 187 -142 301 -257 303 -306 500 -652 605 -1066 24 -95 25 -96 34
-163 4 -27 10 -59 12 -70 26 -119 25 -554 -2 -677 -2 -14 -7 -38 -9 -55 -13
-91 -59 -263 -74 -278 -18 -18 -24 0 -11 37 6 19 13 47 16 62 3 15 7 31 10 36
3 4 7 17 10 28 2 11 6 28 8 38 2 9 7 37 11 62 4 25 9 54 11 65 20 97 26 484
11 600 -4 33 -8 67 -8 75 -1 21 -50 263 -56 273 -2 4 -7 19 -9 34 -3 14 -25
83 -50 152 -237 659 -753 1162 -1429 1395 -27 10 -57 19 -65 21 -8 3 -49 13
-90 24 -41 11 -88 22 -105 25 -16 2 -52 9 -80 14 -61 12 -139 22 -213 28 -58
4 -67 7 -59 21 6 10 27 9 123 -1z m-376 -6 c0 -5 -6 -10 -12 -11 -7 -1 -24 -2
-38 -3 -14 -2 -57 -6 -96 -10 -39 -4 -80 -8 -90 -10 -11 -2 -39 -7 -64 -11
-52 -7 -253 -59 -320 -81 -234 -79 -485 -214 -687 -370 -104 -81 -294 -268
-378 -374 -33 -41 -64 -78 -70 -82 -5 -4 -6 -8 -2 -8 5 0 -4 -17 -20 -37 -38
-49 -115 -175 -144 -235 -13 -27 -27 -48 -31 -48 -4 0 -8 -6 -8 -14 0 -7 -15
-46 -34 -87 -90 -197 -164 -479 -183 -704 -13 -147 -7 -445 12 -550 18 -105
39 -199 56 -260 11 -38 23 -78 25 -87 4 -13 1 -16 -10 -12 -18 7 -69 173 -81
264 -2 14 -6 39 -9 55 -21 124 -26 202 -26 385 0 165 4 224 25 345 25 144 25
147 37 190 6 22 13 47 14 56 7 34 65 206 91 269 88 210 234 452 373 615 165
193 413 401 616 515 157 89 390 189 513 220 20 5 63 16 96 26 73 20 312 58
389 62 33 1 56 -2 56 -8z m352 -64 c74 -9 119 -16 173 -26 28 -5 62 -12 77
-14 15 -2 62 -14 105 -26 43 -12 85 -23 93 -25 8 -2 51 -17 95 -33 272 -102
518 -246 715 -417 45 -39 217 -212 250 -250 181 -214 338 -495 425 -760 34
-103 71 -264 81 -350 3 -27 7 -52 9 -55 7 -11 18 -206 18 -296 0 -105 -10
-236 -22 -314 -5 -30 -7 -58 -4 -62 2 -5 -1 -8 -7 -8 -6 0 -9 -4 -6 -9 11 -17
-77 -338 -98 -359 -2 -2 -28 21 -58 51 -50 51 -166 137 -185 137 -27 0 -30 24
-11 98 25 97 27 108 33 157 3 22 9 67 14 100 10 62 8 420 -2 465 -3 14 -8 41
-11 60 -68 432 -297 838 -641 1135 -54 47 -213 163 -265 195 -190 112 -474
219 -655 245 -11 2 -33 6 -50 8 -16 3 -50 9 -75 13 -118 19 -498 5 -581 -21
-11 -4 -32 -8 -48 -10 -47 -6 -144 -33 -249 -70 -409 -142 -774 -434 -1005
-802 -110 -175 -203 -403 -242 -596 -2 -10 -6 -26 -9 -35 -3 -9 -8 -39 -12
-67 -3 -27 -10 -70 -14 -95 -9 -48 -6 -403 3 -458 4 -18 9 -51 12 -73 5 -36
37 -167 50 -210 4 -11 -19 -31 -77 -69 -78 -51 -178 -142 -178 -162 0 -5 -4
-7 -8 -4 -8 5 -36 83 -72 201 -15 50 -49 230 -55 297 -4 35 -9 74 -11 88 -5
33 -5 318 0 350 3 14 7 56 10 94 4 37 8 71 10 75 2 3 7 30 10 60 4 29 8 57 11
61 2 3 6 17 9 31 82 429 371 911 726 1209 36 30 67 57 70 60 3 3 37 29 75 57
336 246 764 402 1175 429 52 4 96 8 98 9 5 4 259 -3 304 -9z m-96 -379 c8 -7
20 -92 23 -149 1 -17 17 -44 46 -75 25 -26 45 -50 45 -53 0 -3 -14 -25 -30
-50 -56 -85 -33 -129 89 -168 39 -13 84 -35 101 -49 33 -27 75 -99 62 -106 -9
-5 -972 -7 -972 -2 0 12 45 82 64 99 21 19 76 45 106 51 40 8 90 36 105 59 21
31 14 65 -21 111 -32 43 -30 58 12 90 41 31 59 68 68 140 12 87 17 104 34 107
26 6 262 1 268 -5z m-338 -15 c2 -7 -7 -12 -20 -13 -39 -1 -183 -29 -293 -58
-102 -26 -290 -102 -388 -158 -33 -18 -63 -33 -67 -33 -5 0 -10 -3 -12 -8 -1
-4 -28 -23 -58 -42 -30 -19 -60 -39 -66 -45 -6 -5 -22 -17 -34 -25 -63 -42
-239 -211 -300 -289 -19 -24 -39 -48 -45 -55 -24 -27 -98 -140 -143 -217 -54
-95 -112 -226 -148 -335 -21 -66 -30 -98 -50 -189 -30 -132 -38 -213 -38 -385
0 -121 10 -275 19 -289 2 -4 6 -24 9 -46 4 -22 8 -47 11 -55 2 -8 6 -28 9 -43
3 -16 10 -44 17 -64 15 -46 -4 -71 -21 -27 -19 49 -49 205 -66 339 -11 90 -3
433 11 455 2 3 6 26 10 50 4 25 8 50 9 55 14 63 21 92 43 165 14 47 31 99 38
115 7 17 25 60 40 97 73 180 217 388 385 559 172 174 305 270 515 374 137 67
337 136 435 150 8 1 40 7 70 13 104 22 121 23 128 4z m572 -9 c189 -38 322
-84 501 -173 360 -180 663 -490 842 -860 134 -276 190 -539 182 -855 -5 -178
-8 -212 -31 -323 -9 -42 -18 -88 -20 -101 -3 -13 -9 -32 -15 -43 -5 -10 -7
-18 -4 -18 4 0 3 -5 0 -10 -5 -8 -11 -8 -20 0 -10 8 -10 18 1 49 7 22 15 50
18 63 3 12 10 48 16 78 14 63 14 65 25 185 10 110 10 247 0 340 -4 39 -9 84
-11 100 -1 17 -5 39 -7 50 -3 11 -14 58 -25 105 -77 322 -245 626 -474 860
-77 80 -174 165 -214 190 -13 8 -24 18 -24 22 0 5 -4 8 -9 8 -4 0 -39 21 -77
46 -87 59 -304 164 -409 199 -112 37 -240 68 -335 80 -47 7 -76 11 -88 14 -2
1 0 6 3 11 7 12 60 6 175 -17z m-587 -71 c-2 -15 -5 -37 -6 -50 0 -13 -18 -38
-38 -57 -64 -58 -69 -91 -24 -151 46 -60 40 -67 -89 -115 -74 -27 -125 -73
-159 -143 -29 -59 -47 -68 -89 -45 -37 20 -116 12 -164 -16 -74 -43 -97 -98
-29 -69 44 18 77 18 123 -2 20 -9 57 -16 82 -15 40 1 48 -2 63 -28 23 -38 60
-64 121 -85 55 -19 80 -44 64 -63 -6 -8 -17 -9 -32 -3 -60 22 -186 28 -259 11
-23 -6 -51 -5 -70 0 -174 50 -339 -94 -240 -211 14 -17 37 -36 51 -41 34 -13
24 -19 -41 -24 -31 -3 -69 -7 -84 -9 -15 -2 -48 -7 -73 -11 -91 -13 -105 -16
-123 -21 -17 -5 -18 -33 -16 -482 0 -262 5 -504 10 -537 5 -33 11 -74 14 -92
29 -199 133 -505 274 -805 43 -92 46 -99 34 -96 -14 3 -85 -14 -136 -33 -48
-18 -52 -18 -78 -1 -38 24 -189 163 -189 174 0 5 19 17 42 28 38 17 45 17 76
4 49 -20 94 -18 121 7 32 30 43 64 30 96 -45 120 -197 183 -419 177 l-86 -3
-34 62 c-52 93 -53 96 -26 108 20 9 32 7 70 -16 52 -30 79 -29 129 7 29 21 30
21 85 3 69 -24 92 -22 118 9 23 26 25 60 6 107 -16 39 -97 106 -161 131 -49
19 -73 22 -196 21 -77 -1 -151 -3 -164 -5 -15 -2 -25 2 -27 12 -8 42 -13 61
-18 69 -3 5 -8 24 -10 42 -3 19 -9 55 -15 81 -31 134 -34 460 -6 603 2 11 4
20 5 20 1 0 3 11 5 25 9 67 71 278 86 295 5 5 9 15 9 23 0 32 157 326 200 374
8 9 31 38 50 64 108 147 278 304 452 418 197 128 495 245 694 271 27 4 50 8
51 9 1 1 11 2 21 3 15 1 18 -4 15 -25z m518 18 c30 -6 68 -13 84 -16 55 -10
209 -56 285 -86 296 -117 568 -317 765 -563 127 -157 246 -375 305 -556 30
-91 67 -238 68 -269 0 -8 3 -26 6 -40 24 -97 24 -401 1 -535 -11 -61 -35 -181
-43 -210 -9 -32 -9 -32 -97 -20 -213 29 -404 -34 -460 -151 -24 -51 -22 -94 5
-116 29 -23 57 -23 111 2 l44 19 44 -26 c53 -31 90 -32 130 -4 34 24 64 27 80
7 10 -12 5 -28 -25 -83 -20 -37 -38 -70 -40 -72 -2 -2 -52 -3 -111 -3 -59 0
-133 -4 -163 -10 -82 -15 -169 -62 -208 -113 -38 -50 -43 -89 -17 -128 16 -25
27 -30 75 -39 8 -2 34 3 57 11 36 12 48 12 79 0 21 -8 39 -20 41 -26 5 -15
-63 -91 -139 -154 -51 -42 -60 -47 -85 -38 -15 5 -63 19 -105 32 l-76 22 55
115 c30 63 59 124 64 135 4 11 18 43 30 70 18 41 97 256 101 275 1 8 5 22 21
75 30 98 61 270 74 410 6 58 8 493 4 826 l-1 77 -47 7 c-63 9 -96 13 -163 20
-30 3 -71 8 -90 10 -19 3 -56 6 -82 7 -27 1 -48 5 -48 8 0 3 16 12 35 19 69
24 109 112 86 183 -21 63 -139 105 -202 72 -42 -21 -52 -72 -22 -108 14 -16
11 -15 -9 3 -15 13 -30 36 -33 52 -8 33 -26 46 -83 55 -45 7 -107 -10 -115
-31 -5 -11 -12 -11 -44 1 -21 7 -50 13 -65 14 -25 0 -26 2 -17 29 8 23 22 33
69 50 58 21 106 58 127 96 9 15 20 18 51 17 22 -2 61 6 88 16 51 20 79 20 127
1 68 -28 26 39 -48 76 -48 23 -105 29 -131 13 -6 -4 -28 -10 -50 -13 l-39 -5
-29 62 c-44 93 -80 121 -215 168 -64 22 -71 39 -38 89 45 67 45 92 2 132 -40
37 -65 84 -65 124 0 29 9 30 91 15z m405 -615 c-34 -18 -106 -29 -106 -17 0
12 23 22 65 29 17 3 32 6 33 8 2 2 10 1 18 -2 11 -4 8 -9 -10 -18z m-1322 -5
c17 -17 -3 -23 -34 -10 -45 18 -50 35 -9 26 18 -3 38 -11 43 -16z m1111 -23
c0 -5 -225 -8 -500 -8 -582 0 -537 -1 -532 9 7 10 1032 9 1032 -1z m-25 -50
c0 -4 -216 -7 -480 -6 -264 0 -480 4 -480 7 0 4 216 7 480 7 264 0 480 -4 480
-8z m-523 -50 c30 -38 50 -40 75 -7 27 37 55 38 70 5 14 -32 29 -32 57 1 18
20 25 23 37 14 8 -7 14 -19 14 -26 0 -20 24 -17 45 6 10 11 25 20 33 20 9 0
13 -7 9 -20 -6 -25 19 -27 45 -3 33 29 33 4 0 -30 -32 -33 -42 -67 -20 -67 6
0 9 -3 5 -6 -13 -14 -165 -14 -229 -1 -36 8 -99 12 -140 10 -40 -2 -80 -4 -88
-4 -8 0 -46 1 -85 4 -64 4 -73 8 -108 41 -21 20 -43 34 -47 31 -5 -3 -14 3
-19 14 -15 28 14 37 36 11 22 -26 38 -25 57 1 15 22 36 18 36 -6 0 -25 30 -25
46 0 20 30 40 32 54 5 11 -20 40 -28 40 -11 0 14 30 41 45 41 7 0 22 -10 32
-23z m-645 -140 c13 -8 35 -25 49 -38 52 -48 147 -130 165 -144 26 -19 18 -23
-56 -28 -84 -5 -116 6 -145 54 -14 21 -33 43 -44 48 -18 10 -18 8 2 -30 l22
-40 -24 -20 c-44 -36 -140 -22 -193 28 -57 55 -41 139 34 173 50 22 155 21
190 -3z m576 -9 c9 -7 60 -51 112 -97 52 -46 98 -87 102 -90 4 -4 -39 -6 -95
-5 -74 1 -112 6 -135 18 -52 27 -214 168 -204 178 27 27 184 24 220 -4z m514
-3 c47 -8 94 -29 100 -44 1 -6 39 -47 83 -92 l80 -82 -70 6 c-89 7 -121 14
-170 37 -39 17 -190 158 -181 167 8 9 70 19 93 17 13 -1 42 -5 65 -9z m-152
-240 c19 -4 121 -9 225 -11 105 -2 206 -5 225 -7 19 -3 73 -8 120 -12 47 -3
99 -8 115 -10 17 -2 64 -7 105 -11 41 -4 86 -8 100 -10 14 -2 42 -6 64 -8 21
-3 41 -8 44 -10 3 -3 6 -189 6 -413 2 -376 -4 -515 -28 -638 -4 -16 -9 -46
-12 -65 -3 -19 -7 -43 -10 -52 -3 -9 -6 -25 -8 -35 -7 -34 -54 -188 -80 -263
-14 -41 -28 -82 -30 -90 -2 -8 -12 -33 -21 -55 -10 -22 -24 -53 -31 -70 -7
-16 -38 -83 -69 -148 -55 -115 -57 -119 -83 -112 -31 8 -31 8 -132 30 -41 9
-86 18 -100 20 -14 2 -38 6 -55 8 -152 26 -272 37 -440 42 -49 2 -101 3 -115
4 l-25 1 2 382 c1 211 2 392 2 403 1 20 7 21 138 20 l137 -1 41 -119 c69 -199
167 -372 276 -484 l52 -54 24 59 c46 111 54 143 44 162 -7 12 -7 22 0 29 6 6
4 23 -5 49 -8 22 -17 63 -21 90 -3 27 -11 69 -16 94 -6 25 -13 56 -15 70 -2
14 -9 47 -14 73 -12 59 -12 70 -1 63 4 -3 11 -25 14 -48 16 -112 19 -130 27
-156 8 -25 8 -24 10 13 1 22 1 54 1 70 -2 28 -1 28 18 -12 11 -24 26 -43 33
-42 10 0 10 2 1 6 -18 7 -16 30 2 40 12 7 10 13 -10 38 -21 25 -26 28 -35 15
-8 -12 -14 -4 -9 13 0 1 -4 16 -10 32 -10 28 -10 29 4 11 14 -18 15 -11 10 72
-2 51 -6 96 -9 100 -2 4 -7 28 -10 52 -4 25 -9 58 -12 74 -4 15 -8 47 -9 70
-5 63 12 21 20 -49 4 -33 9 -69 11 -80 3 -11 7 -38 10 -60 4 -22 9 -42 13 -45
4 -3 6 -12 6 -20 -1 -8 5 -27 12 -42 12 -25 12 -28 -3 -28 -14 0 -16 -7 -11
-37 4 -20 14 -44 23 -52 15 -15 16 -14 11 1 -4 11 1 19 14 23 10 4 19 13 19
20 0 8 4 17 10 20 6 4 7 -1 3 -12 -6 -16 -5 -16 9 -5 10 8 15 24 13 40 -1 15
-3 33 -4 41 -1 8 -8 11 -21 8 -13 -3 -20 0 -20 8 0 7 -13 24 -28 37 -26 22
-29 30 -30 102 -2 43 -4 81 -6 85 -2 3 2 11 9 18 10 10 14 5 19 -22 4 -19 12
-37 18 -41 7 -5 9 2 4 20 -4 17 -3 25 3 22 8 -6 9 11 2 57 0 4 -9 7 -18 7 -16
0 -18 12 -20 93 -1 50 -3 109 -6 130 -2 21 0 40 4 43 5 3 9 -5 10 -18 1 -48
10 -164 14 -183 2 -11 4 -26 4 -32 1 -19 19 -16 24 5 3 10 5 5 7 -13 1 -26 3
-27 10 -10 5 11 9 14 9 8 1 -7 5 -13 11 -13 10 0 8 66 -3 77 -4 3 -14 -2 -21
-13 -13 -17 -15 -6 -18 95 -2 62 0 118 4 125 8 12 10 -8 11 -122 0 -79 20 -98
24 -23 7 154 12 203 18 209 4 4 4 -53 0 -125 -3 -77 -2 -133 3 -133 5 0 9 6 9
13 4 71 17 196 24 216 8 27 6 -56 -7 -204 -7 -92 11 -96 21 -5 3 30 10 73 15
95 5 22 10 55 10 73 0 20 4 31 10 27 10 -6 9 -14 -6 -105 -4 -25 -8 -49 -9
-55 0 -5 -4 -43 -9 -82 -10 -88 -10 -87 2 -91 8 -2 21 47 27 108 8 64 28 160
35 160 4 0 4 -19 0 -42 -5 -24 -11 -63 -14 -88 -7 -46 -12 -75 -22 -120 -9
-40 -13 -79 -18 -170 l-5 -85 14 55 c14 53 20 82 32 143 3 15 9 30 14 32 8 6
4 -27 -12 -89 -6 -22 -12 -49 -14 -60 -1 -12 -5 -28 -8 -36 -20 -52 -40 -227
-27 -235 5 -3 10 -12 10 -18 0 -7 -4 -6 -11 3 -8 12 -9 9 -5 -12 4 -15 2 -46
-3 -68 -13 -60 5 -38 29 36 12 36 24 63 27 60 3 -2 -11 -48 -31 -101 -19 -53
-38 -113 -42 -133 -10 -52 -29 -94 -53 -116 -18 -17 -19 -20 -4 -34 14 -15 14
-17 -9 -24 -22 -8 -35 -31 -53 -98 -1 -3 -7 -18 -14 -35 -7 -16 -19 -45 -27
-63 -8 -18 -12 -38 -8 -43 10 -17 107 -78 116 -73 4 3 19 30 33 60 14 30 36
78 49 106 58 127 143 371 161 465 23 121 36 210 42 283 8 90 9 767 2 774 -4 4
-115 16 -189 21 -25 2 -67 6 -95 9 -49 6 -78 9 -265 21 -111 8 -188 12 -360
20 -69 4 -138 7 -155 8 -29 2 -30 3 -30 56 l0 54 58 3 c32 1 61 4 63 7 6 5 62
1 104 -8z m-642 -30 c10 -21 9 -28 -8 -45 -24 -24 -63 -13 -68 19 -8 50 55 71
76 26z m-371 -7 c23 -26 4 -68 -32 -68 -36 0 -55 42 -32 68 10 10 24 19 32 19
8 0 22 -9 32 -19z m-347 -43 c34 -41 -26 -93 -64 -55 -18 18 -18 20 -2 44 18
29 47 34 66 11z m1116 -70 c-3 -9 4 -15 22 -17 52 -6 63 -83 15 -109 -32 -17
-40 -4 -37 56 1 25 -1 47 -6 50 -16 10 -39 -7 -49 -35 -13 -38 16 -77 63 -86
31 -5 35 -11 46 -52 31 -125 129 -225 305 -311 51 -24 65 -35 53 -40 -10 -3
-105 -6 -212 -5 l-195 1 -3 -46 -3 -46 -154 -1 c-148 -1 -155 -2 -173 -24 -22
-27 -23 -46 -4 -53 8 -3 87 -6 175 -5 l161 1 0 38 c0 24 5 39 13 40 6 1 77 1
157 1 138 -1 145 -2 162 -24 21 -27 23 -44 5 -51 -7 -2 -84 -4 -171 -3 -87 1
-160 -2 -163 -6 -6 -12 -7 -67 0 -74 3 -3 72 -5 153 -5 138 0 150 -1 171 -21
13 -12 23 -29 23 -39 0 -15 -12 -18 -77 -21 -43 -2 -121 -1 -173 2 l-95 5 -3
38 c-2 26 -8 37 -20 38 -9 1 -80 1 -157 0 -133 0 -140 -1 -157 -23 -38 -49
-27 -53 157 -55 l170 -2 3 -40 3 -40 -141 -3 -142 -3 -34 -105 c-56 -169 -155
-351 -252 -460 l-39 -44 -32 82 c-24 63 -29 87 -21 101 6 13 6 21 0 23 -6 2
-4 22 5 50 8 27 17 67 20 90 3 24 10 59 15 78 5 19 11 55 14 80 3 25 10 61 16
80 5 19 10 43 10 52 0 26 -16 22 -17 -4 -1 -27 -32 -199 -38 -213 -6 -15 2
188 9 205 6 15 12 47 22 110 3 19 9 51 15 70 12 45 12 67 0 54 -5 -5 -12 -27
-16 -49 -4 -22 -8 -47 -10 -55 -2 -8 -6 -39 -10 -67 -4 -29 -11 -51 -15 -48
-12 7 -3 121 19 248 24 137 24 140 11 132 -6 -4 -10 -12 -8 -18 1 -7 -4 -46
-12 -87 -7 -41 -14 -84 -15 -95 -5 -46 -8 -48 -14 -15 -7 36 8 184 24 240 10
38 14 91 6 86 -5 -3 -14 -43 -21 -88 -9 -56 -15 -76 -20 -63 -8 21 -4 260 4
273 2 4 1 14 -5 22 -7 12 -9 9 -10 -10 0 -14 -3 -43 -5 -65 -11 -102 -12 -122
-13 -144 -1 -18 -4 -21 -14 -13 -13 11 -13 38 -4 190 3 39 1 75 -4 78 -5 3
-10 -10 -10 -28 -1 -18 -3 -49 -4 -68 -1 -19 -3 -51 -4 -70 -4 -75 -20 -2 -24
113 -3 65 -7 121 -11 124 -7 7 -9 -29 -6 -102 7 -136 6 -156 -1 -161 -5 -3
-10 16 -10 43 -3 120 -26 270 -30 192 -1 -13 -1 -27 0 -31 0 -6 7 -89 16 -208
4 -46 3 -52 -7 -35 -12 20 -14 31 -22 115 -8 78 -17 125 -28 135 -7 7 -8 0 -4
-20 4 -16 9 -52 12 -80 2 -27 7 -61 9 -75 13 -68 17 -160 6 -160 -6 0 -11 8
-12 18 0 9 -2 24 -4 32 -9 40 -16 78 -20 110 -3 19 -7 44 -9 55 -3 11 -5 31
-5 45 -1 15 -5 20 -10 15 -6 -6 -4 -39 4 -85 7 -41 16 -95 20 -120 3 -25 8
-56 10 -70 3 -14 7 -47 11 -75 7 -59 10 -66 28 -59 9 3 17 -3 21 -15 7 -24 25
-28 25 -7 0 30 21 26 34 -5 15 -36 10 -84 -6 -56 -5 9 -15 14 -22 11 -8 -3
-21 5 -30 18 -15 21 -16 21 -17 3 0 -11 -3 -14 -6 -7 -9 23 -20 12 -15 -15 8
-48 -7 -19 -18 33 -6 27 -12 54 -14 59 -1 6 -6 31 -11 58 -4 26 -11 47 -16 47
-12 0 -11 -3 7 -75 8 -33 17 -71 20 -85 3 -14 10 -43 16 -65 6 -22 12 -56 14
-75 1 -19 6 -54 9 -77 3 -24 2 -43 -3 -43 -5 0 -9 6 -10 13 0 6 -3 21 -6 32
-3 11 -13 52 -22 90 -15 67 -38 117 -29 63 10 -55 56 -223 63 -228 4 -3 7 -14
6 -25 0 -11 3 -30 8 -42 4 -13 4 -23 -1 -23 -4 0 -16 27 -26 60 -10 34 -23 64
-28 67 -6 4 -8 0 -5 -8 3 -8 24 -75 48 -149 62 -197 78 -223 131 -217 18 2 22
-3 23 -28 1 -31 33 -122 48 -140 11 -13 10 -43 -2 -50 -6 -4 -9 -3 -8 2 1 4
-10 40 -24 78 -15 39 -29 80 -33 93 -4 13 -14 22 -26 22 -11 0 -17 5 -14 10 3
6 2 10 -3 10 -6 0 -12 -6 -15 -14 -4 -10 5 -18 25 -25 17 -6 29 -14 26 -17 -3
-3 7 -40 23 -82 16 -42 29 -84 29 -92 -1 -13 -63 -67 -105 -93 -41 -23 -228
458 -275 705 -22 111 -25 185 -25 567 l0 395 25 6 c14 4 59 10 100 14 41 4 89
9 105 11 17 2 80 7 140 11 61 3 111 7 113 8 1 2 133 3 293 4 242 0 290 -2 285
-13z m-1129 -273 c26 -17 13 -72 -17 -72 -45 0 -60 22 -44 64 6 17 40 21 61 8z
m1837 -250 c4 -29 10 -60 13 -70 3 -9 3 -14 -1 -10 -8 7 -23 67 -31 126 -4 24
-2 32 3 22 5 -8 12 -39 16 -68z m-1445 -22 c1 -25 -2 -31 -8 -20 -6 8 -7 18
-5 22 3 4 -4 8 -16 8 -20 0 -20 1 -4 32 16 30 18 31 25 13 4 -11 8 -36 8 -55z
m-49 -26 c0 -15 -6 -24 -15 -24 -15 0 -21 40 -9 53 12 11 24 -3 24 -29z m93
-34 c-1 -18 -7 -38 -14 -44 -9 -8 -10 -7 -6 7 4 9 3 17 -2 17 -7 0 -8 17 -2
53 0 5 7 7 14 4 7 -2 11 -18 10 -37z m-53 -1 c0 -5 4 -8 8 -5 11 7 9 -70 -2
-81 -5 -5 -6 -3 -2 5 6 9 2 12 -10 10 -14 -2 -20 4 -22 25 -2 16 -1 35 2 43 6
16 26 19 26 3z m-383 -14 c12 -8 20 -21 19 -29 -3 -20 -26 -46 -42 -46 -17 0
-44 28 -44 45 0 14 26 45 38 45 4 0 17 -7 29 -15z m329 -20 c18 -27 10 -53
-10 -36 -7 6 -15 9 -17 6 -3 -2 -6 9 -7 25 -3 36 12 39 34 5z m120 -91 c-6
-36 -26 -74 -38 -74 -5 0 -3 8 3 19 15 22 5 55 -13 45 -9 -5 -9 -3 1 9 7 9 10
17 5 17 -5 0 0 7 10 15 27 20 38 9 32 -31z m1359 -98 c9 -48 14 -90 12 -93 -3
-2 -8 13 -12 34 -5 21 -9 43 -11 50 -1 6 -7 34 -13 63 -13 60 -13 70 -2 50 5
-8 16 -55 26 -104z m-1350 -10 c-2 -13 -8 -33 -14 -44 -15 -28 -14 -32 4 -26
18 7 20 -21 5 -60 -10 -26 -32 -37 -27 -13 1 6 -6 11 -15 11 -14 -1 -15 2 -8
17 6 10 14 21 20 24 5 3 7 12 4 20 -3 7 0 24 7 37 12 22 11 22 -6 8 -14 -11
-17 -11 -11 -1 5 8 3 16 -5 22 -11 6 -10 12 5 28 23 25 45 13 41 -23z m1633 2
c-5 -24 -11 -50 -13 -58 -5 -23 -24 -66 -24 -56 -1 8 25 118 34 144 10 29 12
9 3 -30z m-1751 -27 c-2 -9 -9 -15 -16 -13 -9 2 -11 -3 -7 -15 5 -12 4 -15 -3
-8 -9 10 -14 43 -12 80 2 19 3 19 22 -4 11 -13 18 -31 16 -40z m1567 3 c3 -9
6 -34 6 -57 -1 -37 -2 -40 -13 -22 -6 11 -12 37 -12 58 -1 38 8 49 19 21z
m-1507 -36 c2 -21 -2 -38 -8 -38 -6 0 -7 -6 -4 -12 4 -7 -1 -4 -9 6 -16 20
-16 20 -17 0 -1 -10 -5 -3 -8 16 -4 20 -2 38 4 42 5 4 6 8 2 8 -5 0 -6 4 -2 9
3 6 13 9 23 8 12 -1 18 -11 19 -39z m-55 -73 c3 -14 1 -28 -5 -32 -14 -8 -37
26 -37 54 0 20 3 22 19 14 10 -6 21 -22 23 -36z m-312 -4 c21 -41 -21 -81 -58
-55 -38 26 -22 74 25 74 12 0 27 -9 33 -19z m2020 -12 c-7 -11 -14 -19 -16
-16 -7 7 7 37 17 37 6 0 5 -9 -1 -21z m-1650 -39 c0 -16 5 -30 11 -30 8 0 9
-4 0 -13 -6 -8 -7 -18 -3 -23 4 -5 -3 -1 -14 9 -17 14 -23 15 -27 5 -3 -7 -6
5 -6 28 -1 43 4 54 26 54 8 0 13 -12 13 -30z m72 24 c9 -8 -12 -77 -28 -94
-13 -13 -14 -13 -8 4 4 11 3 17 -2 14 -16 -10 -13 46 3 65 17 18 26 21 35 11z
m2388 -60 c74 -22 135 -51 196 -94 140 -96 217 -195 299 -385 111 -256 240
-438 405 -574 14 -11 -10 -1 -53 22 -107 57 -114 61 -135 80 -10 10 -22 17
-25 17 -4 0 -35 21 -69 47 -88 64 -222 205 -344 358 -149 186 -215 257 -289
306 -35 24 -65 47 -65 51 0 9 59 2 93 -11 14 -6 44 -22 66 -36 53 -33 61 -32
23 4 -62 59 22 41 94 -20 21 -19 33 -25 25 -14 -8 11 -28 32 -45 47 -25 22
-27 28 -13 28 10 0 28 -5 40 -12 29 -15 107 -78 129 -103 10 -11 17 -15 18 -9
0 19 -114 136 -153 156 -41 21 -82 20 -130 -3 -24 -11 -35 -10 -76 5 -66 23
-117 13 -180 -35 -33 -26 -66 -24 -107 8 l-35 26 -59 -16 c-97 -27 -118 -20
-98 33 21 55 95 108 188 135 68 19 220 13 300 -11z m-3174 5 c94 -23 169 -72
200 -131 29 -56 -4 -71 -88 -41 -46 16 -47 16 -98 -10 -29 -15 -58 -27 -67
-27 -8 0 -34 13 -58 30 -57 39 -104 46 -166 24 -46 -17 -51 -17 -84 -1 -70 33
-123 13 -212 -80 -76 -80 -83 -103 -10 -37 63 57 105 84 132 84 16 -1 9 -10
-30 -47 -40 -37 -44 -42 -17 -27 17 10 32 21 32 25 0 12 82 48 96 42 11 -4 7
-13 -17 -34 -43 -38 -29 -37 39 5 53 32 142 56 142 38 0 -5 -17 -18 -37 -29
-68 -38 -196 -172 -305 -318 -110 -147 -288 -324 -408 -407 -133 -91 -311
-184 -224 -116 47 37 86 71 110 98 58 64 84 96 84 102 0 4 6 13 13 20 48 48
121 177 186 327 104 240 223 372 416 462 110 52 271 73 371 48z m665 -27 c9
-24 0 -41 -23 -42 -9 0 -9 2 -13 47 -3 38 21 35 36 -5z m51 -68 c4 -16 4 -30
-2 -32 -5 -2 -7 -9 -4 -17 4 -9 -2 -13 -20 -11 -14 2 -26 -2 -26 -8 0 -18 -30
19 -35 42 -5 28 12 28 38 0 l19 -23 -6 23 c-9 27 2 64 17 59 6 -2 14 -17 19
-33z m65 -1 c-4 -20 -13 -44 -22 -52 -15 -15 -16 -14 -10 1 4 9 2 25 -3 35 -8
13 -6 23 5 35 26 28 36 21 30 -19z m-1642 -68 c86 -12 123 -50 101 -102 -11
-26 -32 -29 -60 -8 -26 19 -80 19 -96 0 -16 -19 -37 -19 -75 1 -44 23 -116 25
-162 4 -30 -13 -42 -26 -52 -56 -12 -39 -12 -87 2 -100 4 -4 7 4 7 17 1 39 36
106 59 112 11 3 21 4 21 2 0 -1 -6 -20 -13 -41 -8 -22 -11 -50 -7 -64 5 -22 8
-19 25 29 21 57 51 86 74 72 9 -6 10 -14 3 -27 -15 -30 -23 -74 -13 -74 5 0
14 13 21 30 16 40 30 49 77 54 l40 4 -37 -65 c-43 -74 -65 -136 -74 -208 -29
-232 -101 -371 -242 -461 -68 -44 -85 -43 -36 1 38 33 70 89 90 152 16 50 12
222 -7 311 -67 307 62 459 354 417z m1639 -38 c-2 -11 -9 -25 -15 -31 -9 -8
-10 -8 -5 2 4 6 3 12 -2 12 -12 0 -11 32 2 46 14 15 26 -2 20 -29z m3186 18
c95 -33 157 -122 164 -239 1 -12 -4 -57 -12 -101 -24 -144 -25 -159 -24 -260
0 -122 24 -193 83 -256 22 -23 38 -43 36 -45 -2 -2 -28 12 -58 32 -96 63 -164
150 -197 254 -29 93 -39 137 -48 218 -8 80 -37 152 -97 243 l-17 26 45 -7 c47
-7 70 -26 81 -67 3 -13 10 -23 14 -23 11 0 4 53 -10 79 -14 26 4 37 35 21 21
-11 55 -78 55 -108 0 -7 4 -12 9 -12 12 0 5 84 -9 110 -11 21 2 28 27 12 16
-10 54 -102 47 -113 -3 -5 -1 -9 5 -9 29 0 11 104 -24 139 -35 36 -115 40
-183 11 -47 -20 -54 -21 -70 -8 -30 26 -53 29 -97 9 -23 -10 -47 -16 -53 -12
-18 11 -25 60 -12 76 16 19 66 43 100 47 51 7 166 -2 210 -17z m-3226 -48 c2
-15 0 -29 -5 -33 -5 -3 -7 -9 -5 -13 3 -4 -1 -8 -8 -8 -8 0 -12 7 -8 15 4 11
1 13 -7 7 -10 -5 -12 1 -8 28 9 68 29 70 41 4z m-68 35 c13 -8 16 -60 4 -67
-7 -5 -30 46 -30 66 0 11 11 11 26 1z m-242 -61 c31 -34 0 -80 -44 -66 -22 7
-33 31 -25 56 5 15 16 22 46 28 3 0 14 -8 23 -18z m-617 -66 c34 -61 38 -75
24 -75 -11 0 -28 23 -49 65 -18 36 -32 70 -32 75 0 26 20 3 57 -65z m3333 69
c0 -16 -67 -137 -78 -141 -24 -10 -23 5 2 46 14 22 26 43 26 46 0 12 33 55 41
55 5 0 9 -3 9 -6z m-3398 -103 l27 -49 -64 -27 c-35 -15 -96 -49 -134 -75 -98
-67 -95 -66 -82 -42 6 11 14 22 18 24 5 1 28 28 53 58 48 60 142 159 151 160
3 0 17 -22 31 -49z m3505 -18 c85 -94 166 -193 158 -193 -3 0 -31 19 -61 42
-31 23 -93 60 -139 83 l-83 41 16 34 c22 46 32 60 41 60 4 0 35 -30 68 -67z
m-4038 -5 c-35 -91 -160 -338 -170 -338 -5 0 -9 -5 -9 -11 0 -13 -41 -72 -46
-67 -2 2 1 20 6 39 5 19 11 50 14 70 3 20 9 47 14 60 5 13 8 32 7 41 -2 10 1
20 6 24 5 3 9 15 9 27 0 37 50 154 77 181 20 20 36 26 69 26 l44 0 -21 -52z
m4557 27 c14 -14 34 -45 44 -68 18 -41 54 -181 66 -256 3 -20 8 -39 10 -42 2
-4 6 -24 9 -45 l6 -39 -36 50 c-50 69 -205 387 -205 421 0 2 18 4 40 4 30 0
47 -7 66 -25z m-3618 -80 c96 -19 163 -58 192 -113 26 -51 -12 -92 -67 -71
-36 13 -80 11 -139 -8 -58 -18 -67 -16 -133 32 -42 31 -64 31 -121 2 -47 -25
-75 -26 -125 -7 -16 6 -32 12 -35 12 -3 0 -14 7 -25 14 -28 20 -84 17 -129 -7
-45 -24 -116 -87 -116 -103 0 -7 3 -6 8 1 15 24 152 84 152 67 0 -2 -18 -16
-40 -30 -51 -34 -46 -40 11 -14 24 11 53 19 64 19 13 0 7 -5 -17 -15 -72 -30
-46 -39 36 -13 88 29 121 28 59 -2 -21 -10 -60 -29 -88 -42 -27 -13 -153 -76
-280 -139 -126 -64 -259 -128 -295 -143 -36 -15 -80 -34 -98 -42 -57 -24 -25
4 44 39 76 38 240 159 334 245 228 211 377 299 540 320 25 3 46 6 47 7 10 8
164 2 221 -9z m2877 0 c114 -23 227 -77 331 -156 38 -29 74 -58 80 -64 126
-120 326 -276 431 -335 51 -30 92 -55 90 -57 -2 -1 -55 19 -118 47 -161 70
-713 347 -702 353 4 2 41 -6 82 -19 78 -26 103 -26 53 0 -46 24 -49 39 -5 20
21 -9 46 -21 56 -26 37 -19 28 1 -12 28 -23 14 -41 28 -41 29 0 6 65 -7 75
-15 6 -4 27 -18 49 -29 l38 -22 -23 30 c-33 41 -106 85 -146 89 -19 2 -59 -7
-96 -22 -88 -35 -114 -36 -164 -9 -53 30 -75 27 -137 -16 l-48 -34 -69 18
c-41 10 -82 15 -101 11 -18 -3 -43 -8 -56 -10 -12 -2 -29 2 -37 11 -51 50 35
141 162 174 65 16 239 19 308 4z m-4595 -16 c40 -12 80 -49 80 -73 0 -7 -6
-21 -14 -32 -14 -18 -16 -18 -44 -1 -35 20 -54 21 -98 5 -27 -9 -38 -9 -58 2
-49 26 -137 -2 -172 -54 -20 -32 -26 -109 -10 -131 11 -16 14 -10 25 41 16 83
31 102 31 42 0 -27 5 -48 10 -48 6 0 10 10 10 23 0 27 40 99 59 105 14 5 12
-11 -5 -70 -9 -31 11 -19 30 17 11 19 23 35 28 35 13 0 9 -28 -6 -37 -7 -4
-26 -32 -41 -61 -61 -116 -67 -244 -17 -337 35 -63 19 -62 -41 4 -133 148
-151 391 -38 514 54 58 178 84 271 56z m6238 -16 c53 -25 99 -74 107 -112 2
-12 6 -24 8 -29 8 -12 17 -81 18 -135 1 -93 -58 -228 -129 -294 -56 -52 -69
-55 -37 -8 60 90 65 196 13 323 -12 32 -17 57 -12 60 11 8 11 15 -1 55 -19 71
31 29 56 -47 17 -48 18 -49 24 -23 4 15 5 36 2 47 -3 11 -2 20 2 20 10 0 32
-66 33 -100 1 -39 16 -48 27 -19 13 36 4 97 -20 130 -36 51 -121 75 -170 48
-15 -8 -34 -7 -68 2 -40 10 -51 9 -80 -5 -25 -14 -36 -15 -47 -5 -35 29 1 91
62 108 62 17 157 10 212 -16z m-4088 -143 c16 -30 -4 -60 -40 -60 -33 0 -47
27 -30 60 14 26 56 26 70 0z m4034 -13 c11 -15 17 -30 13 -34 -7 -6 -27 15
-48 51 -17 28 11 15 35 -17z m-1144 -3 c0 -8 -4 -12 -10 -9 -5 3 -10 13 -10
21 0 8 5 12 10 9 6 -3 10 -13 10 -21z m-4036 1 c-4 -8 -10 -12 -15 -9 -11 6
-2 24 11 24 5 0 7 -7 4 -15z m716 -151 c36 -34 81 -76 100 -93 28 -25 31 -30
16 -31 -34 0 -144 99 -247 222 -52 62 -28 71 26 9 22 -25 69 -73 105 -107z
m2740 125 c-15 -27 -209 -222 -243 -244 -43 -28 -56 -4 -15 27 68 53 162 143
212 201 37 45 67 56 46 16z m-2901 -52 c31 -33 91 -95 134 -138 l79 -79 -29
-10 c-157 -59 -221 -83 -239 -92 -41 -19 -181 17 -213 56 -30 36 -12 112 34
142 15 10 44 17 71 16 51 0 55 4 17 19 -45 17 -182 14 -247 -5 -32 -9 -60 -15
-62 -13 -4 4 57 32 231 107 122 52 134 57 154 57 8 0 39 -27 70 -60z m3132 0
c134 -59 239 -107 239 -111 0 -1 -33 6 -72 16 -56 15 -95 18 -166 14 -51 -3
-100 -10 -110 -15 -19 -12 -12 -14 35 -11 39 2 100 -26 114 -52 15 -27 14 -74
0 -102 -15 -27 -78 -57 -140 -66 -37 -6 -61 0 -170 42 -69 26 -136 52 -147 57
-20 9 -14 17 75 108 53 54 111 116 130 137 31 34 39 38 71 33 20 -2 84 -25
141 -50z m-1406 -41 c28 -3 79 -8 115 -11 36 -3 75 -7 85 -9 11 -2 40 -7 65
-11 25 -3 57 -9 73 -11 15 -2 60 -11 100 -20 39 -8 83 -18 97 -20 119 -23 390
-109 585 -186 154 -61 451 -213 459 -235 10 -24 -27 -13 -103 31 -233 134
-609 282 -862 341 -188 43 -250 56 -284 60 -22 3 -51 7 -65 10 -57 11 -121 19
-270 32 -41 3 -163 6 -270 6 -185 -1 -264 -5 -390 -19 -30 -4 -66 -8 -80 -10
-122 -14 -157 -19 -253 -40 -39 -8 -83 -18 -97 -20 -14 -3 -50 -12 -80 -20
-60 -16 -80 -22 -107 -28 -78 -20 -340 -114 -405 -146 -23 -11 -46 -20 -51
-20 -12 0 -200 -95 -304 -153 -46 -25 -85 -42 -88 -37 -3 5 16 21 42 36 27 15
59 34 73 42 53 33 268 139 335 166 39 15 85 34 103 42 18 8 37 14 42 14 5 0
21 5 37 12 15 6 30 12 33 13 3 0 23 7 45 14 63 20 65 21 68 20 1 -1 19 6 41
15 21 9 48 18 60 20 11 2 48 11 81 20 85 21 243 55 290 61 22 3 49 7 60 9 11
2 49 7 85 11 36 4 74 9 85 11 11 2 76 7 145 10 69 4 126 8 128 9 5 5 326 -3
377 -9z m25 -60 c19 -3 69 -8 110 -12 41 -3 77 -7 81 -9 3 -3 28 -7 55 -10 27
-2 60 -7 74 -10 14 -3 40 -8 57 -10 18 -3 81 -17 140 -31 60 -14 113 -27 118
-28 88 -20 280 -85 425 -143 190 -77 465 -216 475 -241 2 -7 -21 -54 -53 -105
-31 -51 -63 -104 -71 -120 -18 -33 -21 -32 -143 36 -142 81 -390 189 -553 242
-100 32 -184 57 -187 55 -2 -1 -16 4 -32 10 -32 12 -179 45 -241 54 -22 4 -65
10 -95 15 -30 5 -62 9 -70 10 -8 0 -42 3 -75 8 -120 16 -596 7 -745 -13 -25
-4 -52 -7 -60 -8 -8 -1 -37 -6 -65 -10 -27 -4 -59 -9 -70 -11 -11 -2 -76 -17
-145 -35 -69 -17 -132 -33 -140 -35 -38 -8 -282 -95 -340 -121 -84 -36 -392
-193 -405 -205 -23 -23 -44 -2 -112 111 l-72 120 32 24 c18 13 50 33 72 45 22
12 72 38 110 59 39 20 99 50 135 66 36 16 79 35 95 42 77 35 293 106 455 150
48 13 281 64 310 68 19 3 44 7 56 10 12 2 45 7 75 11 30 4 65 9 79 10 14 2 63
7 110 10 47 4 87 8 88 10 6 6 484 -3 522 -9z m-2068 -58 c-9 -18 -18 -35 -20
-38 -4 -5 -41 41 -42 52 0 6 27 14 62 17 16 1 16 -1 0 -31z m3605 16 c2 -6 -7
-20 -19 -31 l-23 -21 -21 33 -22 33 41 -2 c22 -2 42 -7 44 -12z m-3722 -12 c6
-4 22 -23 37 -42 14 -19 53 -64 86 -100 51 -55 57 -66 40 -68 -11 -2 -28 6
-39 20 -11 13 -30 34 -43 48 -45 52 -106 132 -106 141 0 11 11 11 25 1z m3761
-60 c-24 -31 -54 -68 -66 -82 -12 -14 -30 -34 -39 -46 -15 -20 -61 -39 -61
-26 0 4 21 30 46 57 25 28 62 70 82 95 44 55 62 71 74 64 4 -3 -12 -31 -36
-62z m-3779 -20 c29 -37 64 -79 78 -94 14 -15 25 -30 25 -33 0 -3 -145 -5
-322 -5 -177 0 -318 4 -312 8 5 5 34 19 64 31 30 12 64 26 75 32 39 19 320
128 330 128 6 0 33 -30 62 -67z m3965 33 c51 -20 102 -39 113 -44 11 -5 74
-30 140 -57 66 -26 124 -51 128 -54 4 -4 -63 -8 -150 -9 -87 -1 -231 -3 -321
-4 -89 -1 -162 2 -162 6 0 7 62 90 80 107 3 3 20 24 39 48 18 23 34 42 36 42
2 0 45 -16 97 -35z m-3674 -151 c14 -7 19 -15 13 -19 -16 -10 -44 2 -58 25
-11 17 -10 18 5 13 9 -4 27 -12 40 -19z m3264 -4 c-19 -16 -29 -17 -62 -11 -3
1 13 10 35 20 47 21 60 17 27 -9z m984 -47 c19 -11 21 -20 19 -135 -1 -68 -3
-128 -4 -134 -1 -15 -821 -14 -821 1 0 6 138 10 394 10 217 0 398 3 402 7 6 7
8 228 1 234 -1 2 -214 4 -472 5 -257 0 -474 3 -482 6 -7 3 -11 8 -9 12 8 13
949 6 972 -6z m-4286 -5 c0 -10 57 -9 -453 -11 -304 -1 -433 1 -423 8 16 13
876 15 876 3z m1925 -2 c39 -3 81 -9 95 -11 14 -2 45 -7 70 -10 96 -13 219
-36 310 -60 52 -14 104 -27 116 -30 197 -46 611 -223 761 -327 73 -50 32 -45
-60 7 -67 38 -206 107 -312 155 -145 66 -480 169 -638 195 -17 3 -39 8 -47 10
-17 4 -77 14 -135 20 -22 3 -51 7 -65 10 -120 24 -653 24 -750 0 -8 -2 -40 -6
-71 -10 -31 -3 -67 -8 -80 -10 -13 -3 -36 -7 -52 -10 -95 -18 -248 -53 -307
-72 -8 -2 -15 -4 -15 -3 0 1 -13 -4 -30 -10 -16 -7 -37 -13 -45 -15 -16 -3
-120 -40 -155 -55 -11 -4 -40 -16 -65 -25 -91 -33 -241 -105 -392 -188 -69
-39 -105 -49 -78 -23 18 16 184 107 302 164 105 51 371 154 428 167 8 1 35 9
60 16 25 7 50 13 55 15 6 1 37 9 70 17 33 9 75 19 94 22 19 3 37 7 40 9 3 2
24 7 46 10 22 4 54 9 70 12 17 3 46 7 65 9 19 2 35 4 35 5 0 2 22 4 150 15 50
4 91 8 92 9 5 4 380 -2 438 -8z m-2643 -99 c2 -34 2 -79 0 -99 -3 -38 -4 -38
-47 -38 l-44 0 -3 43 c-2 23 -1 68 0 99 3 53 5 57 30 60 54 7 60 1 64 -65z
m134 22 c3 -67 3 -71 12 -65 5 3 9 24 10 48 1 23 6 46 11 51 5 5 80 9 168 9
239 1 285 -1 279 -11 -3 -5 -25 -19 -48 -31 -24 -12 -53 -31 -65 -43 l-23 -20
25 -43 c14 -24 22 -45 18 -47 -5 -2 -117 -5 -250 -6 l-242 -2 -1 33 c-3 116
-1 161 8 167 6 3 30 5 54 5 l43 -1 1 -44z m4515 24 c5 -14 7 -28 5 -32 -3 -4
-1 -13 4 -21 8 -12 10 -12 14 0 3 8 6 28 8 45 3 28 5 30 48 30 l45 0 3 -43 c4
-54 20 -54 24 0 3 44 5 45 58 39 6 0 10 -15 10 -32 0 -17 4 -28 10 -24 6 3 10
17 10 30 0 24 16 42 27 31 15 -15 17 -109 4 -189 0 -4 -29 -7 -63 -5 l-63 3 3
38 c3 50 -22 46 -26 -4 -4 -42 -13 -47 -60 -40 -35 6 -37 8 -37 43 0 20 -3 39
-7 43 -9 9 -22 -35 -19 -63 l2 -22 -210 1 c-116 1 -211 5 -211 10 0 4 9 23 20
42 25 42 20 48 -65 97 -30 17 -53 35 -51 39 3 4 118 7 256 8 l251 1 10 -25z
m325 -80 c-1 -59 -5 -88 -13 -91 -14 -4 -14 -3 -15 88 -1 108 0 114 15 101 10
-7 13 -37 13 -98z m-5242 -18 l-2 -115 398 1 c363 2 456 -3 407 -20 -16 -6
-125 -6 -639 -1 l-188 2 0 124 c0 92 3 124 13 124 9 0 12 -29 11 -115z m57 88
c2 -32 0 -142 -3 -160 -1 -7 -7 -13 -14 -13 -9 0 -12 27 -11 100 1 74 5 100
14 100 7 0 14 -12 14 -27z m90 5 c1 -32 1 -96 0 -141 -1 -36 -3 -38 -28 -35
-28 3 -28 3 -29 83 -1 102 3 115 32 115 18 0 24 -6 25 -22z m2634 7 c116 -6
145 -9 230 -21 22 -3 52 -6 67 -7 37 -1 26 -13 -19 -23 -21 -4 -40 -8 -43 -9
-3 -1 -27 -5 -55 -10 -27 -5 -52 -10 -55 -10 -11 -3 -178 -16 -220 -18 l-45
-2 -3 57 c-2 43 1 57 10 54 7 -3 67 -7 133 -11z m-615 -69 c0 2 8 0 18 -5 19
-10 28 -12 112 -26 25 -4 53 -9 63 -11 83 -15 407 -26 432 -15 5 3 21 6 35 6
14 1 45 5 70 9 25 4 56 9 70 11 65 10 92 16 149 34 34 11 69 18 79 16 9 -2 28
-4 42 -5 17 -1 2 -9 -45 -26 -38 -13 -79 -26 -90 -29 -51 -11 -68 -15 -83 -19
-9 -3 -39 -8 -67 -11 -27 -4 -57 -8 -65 -10 -22 -6 -185 -17 -260 -17 -195 -1
-453 42 -590 99 -31 13 56 19 93 6 20 -6 37 -10 37 -7z m1200 -11 c0 2 11 0
25 -5 14 -5 36 -12 48 -14 102 -21 387 -120 387 -135 0 -9 -154 -95 -261 -145
-157 -73 -401 -149 -557 -172 -20 -3 -48 -7 -62 -10 -107 -19 -405 -25 -545
-11 -146 14 -367 61 -496 106 -77 26 -243 93 -249 100 -3 3 -45 26 -94 51 -49
25 -100 54 -114 64 l-24 19 48 19 c53 20 262 91 279 94 6 1 39 10 75 19 108
29 128 29 225 -4 87 -29 200 -56 281 -66 21 -3 68 -9 104 -14 63 -9 395 -7
435 2 11 3 42 8 69 11 91 13 187 36 284 69 66 22 104 30 120 25 12 -4 22 -5
22 -3z m479 -227 c-116 -74 -356 -188 -444 -212 -11 -2 -47 -14 -79 -25 -84
-30 -228 -64 -326 -77 -25 -3 -54 -8 -65 -10 -43 -9 -196 -17 -310 -18 -176 0
-326 17 -528 59 -62 13 -267 79 -347 112 -160 66 -399 201 -383 216 13 13 33
7 95 -31 152 -92 416 -206 548 -237 8 -2 44 -11 80 -20 36 -8 72 -17 80 -19
15 -4 126 -21 215 -33 111 -15 477 -7 577 12 13 3 43 8 68 11 59 8 64 9 140
29 36 9 73 19 82 20 32 7 201 68 283 102 88 38 249 121 303 158 28 19 39 22
55 13 18 -9 13 -14 -44 -50z m-991 -416 c-156 -163 -208 -214 -209 -201 -1 8
-2 60 -2 117 -2 119 -15 108 133 117 52 3 96 8 99 11 2 2 7 2 10 -1 2 -3 -11
-22 -31 -43z"/>
<path d="M3749 5746 c-2 -3 -38 -8 -79 -11 -98 -8 -99 -9 -94 -42 5 -35 13
-121 13 -149 1 -20 6 -21 44 -18 23 3 65 6 94 7 46 2 52 4 49 22 -2 11 -8 19
-13 18 -5 -1 -37 -4 -71 -6 l-62 -5 0 29 c0 27 3 29 38 30 20 1 42 1 49 0 6
-1 10 6 9 16 -3 15 -12 18 -50 16 -35 -2 -48 1 -53 13 -9 24 7 32 70 37 62 5
81 14 68 35 -4 7 -9 10 -12 8z"/>
<path d="M3805 5742 c-1 -2 -1 -11 2 -20 3 -14 13 -17 42 -14 l38 4 -2 -86
c-2 -84 -2 -86 21 -86 23 0 24 2 24 85 l0 85 44 0 c37 0 43 3 40 18 -4 15 -18
17 -105 17 -56 0 -102 -1 -104 -3z"/>
<path d="M4254 5690 c-32 -13 -64 -59 -64 -92 0 -62 38 -100 113 -114 64 -11
130 53 121 119 -8 68 -100 115 -170 87z m101 -55 c30 -30 31 -54 4 -89 -37
-47 -114 -25 -125 37 -3 20 2 34 20 52 32 32 70 32 101 0z"/>
<path d="M3222 5652 c-38 -12 -51 -27 -58 -70 -1 -8 7 -23 18 -34 18 -18 28
-19 78 -14 34 4 61 3 64 -3 6 -10 -19 -40 -35 -42 -5 -1 -15 -2 -21 -3 -7 -1
-23 1 -35 6 -17 5 -25 3 -32 -11 -14 -25 -5 -31 45 -31 56 0 92 17 110 52 15
29 7 63 -19 80 -9 5 -83 3 -120 -5 -6 -1 -12 5 -12 13 0 23 46 41 88 35 32 -5
37 -3 37 15 0 11 -6 20 -12 21 -7 0 -22 2 -33 3 -12 1 -40 -4 -63 -12z"/>
<path d="M4041 5648 c-14 -36 5 -60 42 -56 25 2 33 8 35 26 7 49 -60 75 -77
30z"/>
<path d="M3428 5633 c-28 -32 8 -82 47 -67 21 8 30 51 15 69 -17 20 -43 19
-62 -2z"/>
<path d="M4500 5627 c0 -13 -3 -27 -7 -31 -5 -4 -8 -11 -8 -14 -1 -4 -11 -34
-23 -66 -18 -47 -20 -61 -10 -67 24 -16 36 -9 43 22 17 77 81 33 89 -60 0 -8
13 -18 27 -22 l27 -7 -13 49 c-12 46 -12 49 6 49 24 0 58 37 54 58 -2 9 -4 19
-4 22 -4 20 -28 35 -97 60 -43 17 -80 30 -81 30 -2 0 -3 -10 -3 -23z m85 -47
c7 0 23 -8 36 -19 19 -16 21 -21 11 -34 -12 -14 -18 -14 -58 0 -24 8 -44 19
-44 23 0 22 14 41 27 36 8 -3 21 -6 28 -6z"/>
<path d="M3046 5597 c-15 -5 -24 -12 -19 -16 12 -7 55 -102 49 -108 -4 -4
-125 46 -142 59 -7 5 -23 4 -37 -1 l-25 -10 36 -83 c19 -45 35 -88 35 -94 0
-12 34 -7 42 6 3 4 -6 33 -20 64 -14 31 -21 56 -16 56 9 0 116 -45 143 -60 18
-10 76 8 60 19 -7 5 -64 135 -74 167 -2 8 -12 8 -32 1z"/>
<path d="M4746 5524 c-4 -13 -22 -56 -41 -95 l-34 -70 22 -9 c23 -8 32 4 84
125 10 22 19 43 20 46 2 3 -7 11 -21 17 -22 10 -25 8 -30 -14z"/>
<path d="M2725 5441 c-51 -23 -72 -47 -78 -90 -10 -61 42 -121 104 -121 33 0
106 46 115 73 35 100 -47 181 -141 138z m88 -49 c38 -34 12 -106 -42 -117 -30
-6 -47 2 -66 31 -22 33 -12 75 23 97 29 17 56 14 85 -11z"/>
<path d="M4850 5452 c-22 -4 -48 -45 -55 -82 -10 -55 39 -111 112 -129 58 -15
57 -15 76 24 l17 35 -33 20 c-17 10 -37 23 -44 29 -8 7 -13 5 -18 -7 -6 -15
17 -42 37 -42 4 0 8 -7 8 -15 0 -19 -23 -19 -60 0 -38 20 -53 49 -45 86 13 60
77 66 129 13 30 -31 38 -35 51 -24 14 12 13 16 -11 41 -47 49 -100 66 -164 51z"/>
<path d="M2525 5305 c-22 -20 -52 -43 -67 -52 -31 -19 -35 -34 -15 -55 6 -7
30 -36 51 -63 22 -28 43 -54 47 -58 3 -5 16 -3 27 4 20 13 20 13 -4 42 -13 16
-24 34 -24 40 0 12 30 36 58 47 10 4 10 9 -1 24 -13 17 -15 17 -47 -13 -32
-29 -35 -30 -53 -13 -18 16 -18 17 5 35 13 10 33 27 46 38 12 10 27 19 33 19
6 0 8 7 5 16 -3 9 -6 18 -6 20 0 11 -19 1 -55 -31z"/>
<path d="M5100 5303 c-8 -3 -27 -17 -42 -31 -22 -20 -28 -35 -28 -69 0 -82 98
-145 170 -108 33 17 62 70 57 105 -10 64 -100 124 -157 103z m67 -43 c29 -11
51 -42 47 -67 -1 -7 -2 -20 -3 -28 -1 -16 -36 -37 -68 -41 -29 -3 -73 39 -73
69 0 25 25 60 50 70 8 3 15 6 16 6 1 1 15 -4 31 -9z"/>
<path d="M3537 4544 c-8 -8 1 -24 14 -24 5 0 9 7 9 15 0 15 -12 20 -23 9z"/>
<path d="M3585 4541 c-6 -11 9 -23 19 -14 9 9 7 23 -3 23 -6 0 -12 -4 -16 -9z"/>
<path d="M3635 4539 c-10 -15 3 -25 16 -12 7 7 7 13 1 17 -6 3 -14 1 -17 -5z"/>
<path d="M3677 4544 c-8 -8 1 -24 14 -24 5 0 9 7 9 15 0 15 -12 20 -23 9z"/>
<path d="M3725 4541 c-6 -11 9 -23 19 -14 9 9 7 23 -3 23 -6 0 -12 -4 -16 -9z"/>
<path d="M3770 4535 c0 -9 5 -15 11 -13 6 2 11 8 11 13 0 5 -5 11 -11 13 -6 2
-11 -4 -11 -13z"/>
<path d="M3820 4535 c0 -9 5 -15 11 -13 6 2 11 8 11 13 0 5 -5 11 -11 13 -6 2
-11 -4 -11 -13z"/>
<path d="M3867 4544 c-8 -8 1 -24 14 -24 5 0 9 7 9 15 0 15 -12 20 -23 9z"/>
<path d="M3917 4544 c-8 -8 1 -24 14 -24 5 0 9 7 9 15 0 15 -12 20 -23 9z"/>
<path d="M3962 4541 c2 -7 7 -12 11 -12 12 1 9 15 -3 20 -7 2 -11 -2 -8 -8z"/>
<path d="M4010 4535 c0 -8 5 -15 10 -15 6 0 10 7 10 15 0 8 -4 15 -10 15 -5 0
-10 -7 -10 -15z"/>
<path d="M4057 4544 c-8 -8 1 -24 14 -24 5 0 9 7 9 15 0 15 -12 20 -23 9z"/>
<path d="M4100 4535 c0 -9 6 -12 15 -9 8 4 12 10 9 15 -8 14 -24 10 -24 -6z"/>
<path d="M4272 4184 c-38 -26 -22 -74 24 -74 45 0 58 50 19 76 -18 12 -24 11
-43 -2z m44 -43 c-9 -14 -33 -14 -41 -1 -4 6 -1 18 6 26 11 13 14 13 27 0 8
-8 11 -19 8 -25z"/>
<path d="M4632 4158 c-16 -16 -15 -55 1 -65 24 -15 46 -12 61 8 30 43 -25 94
-62 57z m47 -22 c17 -20 -13 -43 -34 -26 -12 10 -13 16 -4 26 6 8 15 14 19 14
4 0 13 -6 19 -14z"/>
<path d="M4977 4105 c-16 -16 -12 -48 8 -65 21 -17 65 5 65 33 0 43 -43 62
-73 32z m53 -24 c0 -28 -15 -34 -35 -15 -13 14 -14 19 -3 25 22 14 38 10 38
-10z"/>
<path d="M4993 3797 c-29 -13 -30 -51 -1 -71 23 -17 51 -8 62 19 13 35 -25 68
-61 52z m41 -32 c3 -9 -1 -18 -10 -22 -19 -7 -39 11 -30 26 10 16 33 13 40 -4z"/>
<path d="M4679 3518 c0 -7 -2 -21 -4 -31 -2 -13 2 -17 13 -15 23 4 30 58 8 58
-9 0 -16 -6 -17 -12z"/>
<path d="M4635 3460 c-3 -5 -8 -23 -10 -39 -4 -32 20 -51 39 -30 8 9 7 10 -4
4 -13 -8 -13 -6 -1 8 8 10 11 27 7 42 -7 26 -20 32 -31 15z"/>
<path d="M4988 3449 c-33 -19 -16 -79 22 -79 40 1 59 42 32 73 -17 19 -29 21
-54 6z m41 -45 c-15 -18 -28 -18 -36 2 -8 20 17 36 34 22 10 -8 10 -14 2 -24z"/>
<path d="M4690 3431 c-8 -16 -8 -21 2 -21 10 0 10 -2 0 -9 -10 -6 -9 -10 7
-14 12 -3 19 -1 15 4 -3 5 -1 9 4 9 14 0 9 43 -5 47 -6 2 -17 -5 -23 -16z"/>
<path d="M4570 3361 c0 -30 22 -83 43 -104 16 -16 19 -17 14 -4 -4 11 -1 17 9
17 8 0 17 -7 21 -16 5 -13 9 -10 18 12 11 27 1 84 -15 84 -15 -1 -29 -19 -34
-44 -7 -37 -12 -42 -19 -16 -3 11 -1 20 4 20 12 0 6 35 -10 54 -18 21 -31 20
-31 -3z"/>
<path d="M4706 3344 c-20 -19 -20 -38 -1 -54 8 -7 15 -11 15 -9 1 2 3 21 6 42
6 41 3 44 -20 21z"/>
<path d="M4693 3237 c-21 -42 -21 -54 -2 -70 10 -9 19 -13 19 -9 0 4 4 24 9
44 11 46 -9 72 -26 35z"/>
<path d="M4683 3118 c-4 -7 -9 -24 -10 -38 -3 -20 -1 -22 7 -10 8 12 10 10 10
-10 1 -20 2 -22 10 -9 5 9 12 30 15 47 4 24 2 32 -9 32 -8 0 -18 -6 -23 -12z"/>
<path d="M4952 3098 c-20 -20 -14 -58 11 -67 25 -10 62 8 63 30 2 42 -45 66
-74 37z m52 -23 c3 -8 -3 -19 -13 -25 -15 -7 -20 -6 -25 6 -3 9 -4 20 0 25 8
14 31 11 38 -6z"/>
<path d="M4626 3072 c-11 -18 -14 -75 -6 -97 5 -11 9 -15 9 -8 1 6 9 10 19 8
9 -1 16 -8 15 -14 -2 -6 4 -11 13 -11 14 0 15 -2 3 -17 -13 -16 -12 -17 3 -4
19 14 35 77 24 89 -4 4 -16 -4 -26 -18 l-19 -25 1 38 c1 39 -23 79 -36 59z
m24 -82 c0 -5 -2 -10 -4 -10 -3 0 -8 5 -11 10 -3 6 -1 10 4 10 6 0 11 -4 11
-10z"/>
<path d="M4556 2951 c-12 -19 16 -91 34 -91 6 0 10 5 10 11 0 5 -6 7 -12 3
-10 -6 -10 -4 -2 7 9 13 10 21 6 55 -2 15 -30 26 -36 15z"/>
<path d="M4623 2930 c-3 -11 -10 -20 -15 -20 -7 0 -6 -5 1 -13 6 -8 8 -17 4
-20 -3 -4 -1 -7 6 -7 7 0 10 -4 7 -8 -3 -5 1 -9 9 -9 8 0 12 4 9 9 -3 4 0 8 5
8 12 0 15 39 5 64 -9 22 -25 20 -31 -4z"/>
<path d="M4675 2890 c-14 -27 -15 -34 -3 -41 9 -6 17 0 26 23 19 45 -1 60 -23
18z"/>
<path d="M4556 2841 c-9 -13 0 -62 14 -75 7 -6 10 -7 9 -1 -2 6 1 21 5 34 9
25 -16 63 -28 42z"/>
<path d="M4606 2813 c-13 -43 -16 -84 -6 -78 5 3 10 1 10 -5 0 -6 5 -8 10 -5
6 4 7 12 3 18 -4 7 1 6 11 -2 15 -12 19 -12 31 0 18 18 28 76 16 84 -6 3 -16
-6 -24 -21 l-14 -27 -7 27 c-7 30 -22 34 -30 9z m49 -52 c3 -5 1 -12 -5 -16
-5 -3 -10 1 -10 9 0 18 6 21 15 7z"/>
<path d="M4871 2751 c-41 -41 16 -95 59 -56 16 14 17 21 8 39 -21 40 -39 45
-67 17z m49 -32 c0 -14 -5 -19 -17 -17 -26 5 -29 38 -4 38 15 0 21 -6 21 -21z"/>
<path d="M4570 2679 c0 -4 4 -10 9 -14 11 -6 -11 -75 -53 -169 -27 -61 -25
-97 3 -49 9 15 29 67 45 115 21 63 34 89 48 94 15 4 17 9 9 17 -13 13 -61 18
-61 6z"/>
<path d="M4723 2413 c-7 -2 -13 -18 -13 -34 0 -22 7 -32 26 -41 23 -11 29 -10
45 10 34 42 -6 87 -58 65z m44 -29 c8 -21 -13 -42 -28 -27 -13 13 -5 43 11 43
6 0 13 -7 17 -16z"/>
<path d="M3380 4171 c0 -28 21 -37 36 -16 16 22 10 35 -17 35 -12 0 -19 -7
-19 -19z"/>
<path d="M3023 4173 c-21 -8 -16 -43 6 -43 24 0 33 13 25 34 -6 17 -11 18 -31
9z"/>
<path d="M2666 4113 c-7 -17 11 -35 29 -30 6 2 11 13 13 25 3 16 -2 22 -16 22
-11 0 -23 -8 -26 -17z"/>
<path d="M3801 3890 c-5 -16 -8 -30 -5 -30 3 0 -9 -27 -27 -61 -43 -79 -140
-168 -239 -218 -42 -21 -83 -41 -91 -43 -41 -15 22 -22 197 -23 166 0 197 2
203 15 5 12 7 319 2 378 -2 24 -29 12 -40 -18z"/>
<path d="M2661 3771 c-12 -21 -5 -31 20 -31 25 0 32 28 9 40 -15 8 -21 6 -29
-9z"/>
<path d="M2663 3424 c-8 -20 9 -36 30 -28 13 5 14 10 6 25 -12 23 -28 25 -36
3z"/>
<path d="M2683 3074 c-8 -22 18 -37 36 -20 7 8 10 19 7 25 -10 16 -36 13 -43
-5z"/>
<path d="M2779 2734 c-10 -12 -10 -18 3 -30 13 -13 16 -12 32 5 17 19 17 20
-2 30 -15 8 -23 7 -33 -5z"/>
<path d="M2932 2398 c-7 -7 -12 -17 -12 -24 0 -19 27 -24 41 -8 17 21 -10 51
-29 32z"/>
<path d="M3593 2143 c-40 -3 -53 -8 -53 -20 0 -10 6 -14 20 -10 16 4 20 0 21
-19 1 -13 3 -33 4 -44 1 -11 3 -27 4 -35 0 -8 8 -15 16 -15 11 0 13 11 10 54
-5 48 -3 55 15 61 11 3 20 13 20 21 0 8 -1 13 -2 12 -2 -1 -27 -3 -55 -5z"/>
<path d="M3697 2135 c-31 -31 -16 -64 33 -74 44 -9 52 -31 11 -31 -17 0 -31 5
-31 10 0 6 -7 10 -15 10 -20 0 -19 -14 3 -32 21 -18 73 -14 89 8 18 25 1 58
-36 65 -38 8 -48 16 -35 29 6 6 19 4 37 -5 27 -14 41 -8 28 13 -13 21 -66 26
-84 7z"/>
<path d="M3920 2143 c-41 -15 -53 -75 -22 -112 41 -51 116 -25 116 40 0 58
-43 90 -94 72z m59 -41 c19 -35 2 -72 -34 -72 -27 0 -40 28 -31 66 8 29 50 33
65 6z"/>
<path d="M4052 2070 c-3 -57 0 -70 12 -70 9 0 16 11 18 28 3 23 7 27 30 24 36
-4 45 16 11 24 -40 10 -45 14 -34 28 6 7 24 11 41 8 23 -3 29 -1 25 10 -4 9
-23 15 -53 17 l-47 2 -3 -71z"/>
<path d="M3486 2083 c7 -73 13 -93 29 -93 8 0 12 6 10 13 -3 6 -6 37 -8 67 -3
40 -9 56 -20 58 -12 3 -14 -6 -11 -45z"/>
<path d="M3352 2112 c-22 -3 -23 -7 -16 -45 4 -23 8 -53 9 -67 0 -14 7 -25 16
-25 9 0 13 9 12 26 -1 20 4 28 18 32 16 4 23 -1 31 -24 11 -32 35 -34 30 -3
-1 10 -4 35 -6 55 -5 60 -11 63 -94 51z m68 -32 c0 -16 -44 -30 -52 -16 -14
20 -8 26 22 26 17 0 30 -5 30 -10z"/>
<path d="M4241 2083 c-7 -104 -10 -97 33 -104 33 -5 43 -3 63 17 25 25 30 70
10 97 -7 10 -31 20 -58 23 l-45 6 -3 -39z m85 -18 c4 -24 -21 -65 -40 -65 -19
0 -24 18 -18 58 4 29 8 33 30 30 16 -2 26 -10 28 -23z"/>
<path d="M3266 2102 c-8 -13 6 -112 19 -132 12 -19 26 2 21 28 -3 15 -8 43
-11 62 -7 39 -19 57 -29 42z"/>
<path d="M4399 2088 c0 -7 -2 -22 -4 -33 -10 -48 -9 -88 1 -92 11 -4 23 37 30
105 2 23 -1 32 -12 32 -7 0 -14 -6 -15 -12z"/>
<path d="M3139 2079 c-10 -6 -8 -42 5 -104 3 -11 5 -23 5 -27 1 -5 8 -8 16 -8
11 0 14 7 9 23 -4 20 0 26 25 36 16 7 32 19 35 26 5 15 -3 54 -13 56 -27 5
-74 4 -82 -2z m65 -28 c8 -12 -21 -34 -34 -26 -17 11 -11 35 9 35 11 0 22 -4
25 -9z"/>
<path d="M4475 2076 c-27 -19 -13 -58 26 -73 17 -7 29 -18 27 -24 -7 -21 -23
-21 -47 1 -27 23 -46 17 -31 -10 13 -24 75 -37 95 -20 25 21 17 49 -20 71 -38
23 -43 34 -21 42 8 3 22 -3 32 -14 12 -13 21 -16 28 -9 26 26 -56 60 -89 36z"/>
<path d="M3007 2055 c-23 -17 -29 -51 -11 -66 7 -6 28 -12 46 -13 33 -2 50
-22 26 -31 -8 -3 -27 -1 -41 4 -21 8 -27 8 -27 -3 0 -16 21 -26 54 -26 31 0
60 33 51 59 -7 22 -10 23 -60 25 -19 1 -30 7 -30 16 0 11 10 14 38 12 20 -2
37 2 37 7 0 23 -59 34 -83 16z"/>
<path d="M4612 2062 c-18 -6 -14 -19 7 -25 19 -5 19 -8 7 -61 -12 -52 -12 -57
3 -54 10 2 19 20 25 51 8 41 13 47 34 47 13 0 22 5 20 12 -5 13 -78 36 -96 30z"/>
<path d="M4734 2003 c-3 -16 -9 -37 -13 -48 -9 -26 -8 -49 3 -55 9 -5 28 40
41 98 5 25 3 32 -9 32 -9 0 -18 -12 -22 -27z"/>
<path d="M2828 2007 c-43 -12 -44 -18 -22 -94 16 -53 16 -54 47 -47 42 8 67
22 67 35 0 11 -26 8 -64 -7 -11 -4 -16 0 -16 14 0 14 9 22 29 27 20 4 28 11
25 20 -4 11 -12 11 -31 4 -44 -16 -52 7 -9 25 21 9 35 20 31 26 -7 11 -6 11
-57 -3z"/>
<path d="M4812 2008 c-10 -13 -35 -92 -36 -117 -1 -8 4 -16 11 -18 8 -3 17 14
25 44 13 53 11 56 32 -39 11 -48 34 -33 55 35 10 34 17 65 14 70 -10 16 -21 5
-33 -35 l-13 -43 -12 35 c-7 19 -10 40 -8 46 2 6 -2 16 -10 23 -11 9 -17 8
-25 -1z"/>
<path d="M2730 1916 c10 -30 16 -57 13 -60 -13 -13 -44 -5 -50 12 -24 68 -34
85 -44 75 -17 -17 18 -112 45 -123 26 -9 73 12 78 37 7 32 -24 113 -43 113
-17 0 -17 -3 1 -54z"/>
<path d="M4967 1949 c-31 -18 -49 -73 -35 -104 18 -39 98 -47 98 -9 0 16 -9
18 -30 4 -10 -6 -20 -4 -31 6 -20 18 -12 62 15 78 14 9 21 6 36 -11 22 -27 40
-30 35 -5 -2 9 -4 20 -4 23 -1 6 -48 29 -59 29 -4 0 -15 -5 -25 -11z"/>
<path d="M2527 1902 c-34 -21 -41 -43 -27 -86 11 -33 42 -55 70 -50 34 5 82
32 71 38 -6 4 -11 16 -11 26 0 62 -56 100 -103 72z m64 -38 c10 -12 10 -20 1
-35 -7 -11 -10 -24 -7 -29 4 -6 -3 -10 -14 -10 -27 0 -53 49 -40 73 12 21 42
22 60 1z"/>
<path d="M5094 1909 c-3 -6 1 -16 11 -22 15 -12 15 -16 -4 -59 -11 -25 -17
-49 -14 -52 16 -15 30 -2 46 43 15 44 19 48 44 43 25 -4 26 -3 13 11 -23 23
-88 48 -96 36z"/>
<path d="M2420 1848 c1 -7 13 -39 28 -70 20 -42 31 -56 40 -49 13 8 7 25 -37
110 -10 20 -31 26 -31 9z"/>
<path d="M5220 1850 c0 -8 -30 -79 -47 -112 -2 -5 3 -8 11 -8 16 0 66 87 66
115 0 8 -7 15 -15 15 -8 0 -15 -5 -15 -10z"/>
<path d="M2363 1823 c-9 -3 -7 -15 7 -44 11 -21 19 -39 17 -39 -2 0 -18 11
-37 25 -19 14 -42 25 -52 25 -21 0 -24 -20 -6 -38 7 -7 8 -12 4 -12 -6 0 21
-53 40 -79 2 -1 7 0 13 4 7 4 4 20 -10 46 l-20 41 45 -27 c68 -40 79 -32 47
37 -31 66 -32 67 -48 61z"/>
<path d="M5283 1802 c-45 -38 -41 -102 7 -122 38 -16 67 -5 85 30 19 38 19 53
-2 78 -26 31 -64 37 -90 14z m75 -39 c5 -33 -15 -63 -43 -63 -32 0 -42 33 -20
66 20 31 59 30 63 -3z"/>
<path d="M2223 1753 c-9 -3 -6 -18 12 -51 30 -56 30 -58 5 -72 -17 -9 -23 -4
-47 38 -15 27 -33 47 -40 45 -27 -9 38 -113 70 -113 30 0 67 27 67 49 0 15
-48 113 -53 110 -1 0 -8 -3 -14 -6z"/>
<path d="M5438 1743 c-8 -10 -27 -39 -41 -64 -21 -37 -24 -48 -13 -52 8 -3 21
8 32 29 24 44 31 43 29 -6 -1 -22 4 -48 11 -58 14 -20 11 -23 53 47 23 37 29
57 22 64 -6 6 -12 9 -14 6 -2 -2 -13 -20 -25 -39 l-22 -35 0 50 c0 63 -11 82
-32 58z"/>
<path d="M3223 1654 c4 -5 -23 -96 -48 -155 -6 -16 2 -21 65 -44 3 -1 19 -5
35 -10 17 -4 36 -12 42 -18 9 -6 15 -4 19 9 4 11 9 23 12 28 3 5 0 6 -5 3 -9
-6 -37 1 -111 28 -10 4 -10 10 -2 25 13 24 25 25 63 5 25 -13 29 -13 34 1 6
17 1 24 -19 28 -27 5 -58 18 -58 24 0 4 4 13 8 20 7 9 20 8 64 -7 49 -17 57
-17 62 -4 8 20 8 20 -6 20 -7 1 -46 13 -87 27 -41 14 -72 23 -68 20z"/>
<path d="M4363 1635 c-39 -17 -51 -49 -28 -76 13 -13 15 -22 8 -31 -12 -15 -1
-52 19 -64 37 -23 123 8 138 51 9 26 8 32 -10 47 -14 12 -19 24 -15 37 14 44
-48 64 -112 36z m72 -36 c0 -20 -52 -36 -68 -20 -10 10 -8 15 7 26 23 17 61
13 61 -6z m24 -63 c10 -12 7 -18 -13 -31 -30 -20 -60 -16 -64 8 -6 29 57 48
77 23z"/>
<path d="M4204 1599 c-39 -11 -72 -45 -57 -60 8 -8 18 -5 34 10 27 25 79 29
79 6 0 -17 -39 -36 -54 -27 -5 3 -6 -3 -3 -12 4 -10 7 -19 7 -20 0 -1 16 0 35
2 30 4 35 1 35 -17 0 -27 -62 -44 -101 -27 -11 5 -18 1 -21 -12 -4 -16 1 -21
22 -26 91 -18 175 48 124 98 -8 9 -12 20 -9 26 22 36 -36 73 -91 59z"/>
<path d="M3408 1578 c-41 -34 -20 -89 40 -102 37 -8 56 -22 48 -35 -13 -21
-76 -6 -97 23 -9 11 -29 -1 -29 -18 0 -18 64 -46 105 -46 41 0 67 24 63 59 -2
21 -14 31 -56 50 -29 14 -51 30 -49 35 6 16 68 8 88 -10 16 -14 18 -14 28 3 6
10 11 13 11 6 0 -6 14 -13 32 -15 32 -3 32 -4 30 -48 -2 -25 -5 -57 -6 -72 -3
-27 12 -42 32 -30 5 4 11 32 13 62 4 86 6 89 45 84 25 -3 34 0 34 11 0 8 -8
15 -17 16 -10 0 -34 2 -53 4 -19 2 -57 4 -85 6 -27 1 -64 8 -82 16 -40 16 -75
17 -95 1z"/>
<path d="M3987 1559 c-41 -24 -37 -91 7 -106 26 -9 67 -4 84 9 9 8 12 6 12 -5
0 -35 -72 -61 -98 -35 -9 9 -13 7 -18 -6 -9 -25 1 -30 58 -30 43 0 54 4 74 28
33 38 33 98 -1 131 -26 27 -84 34 -118 14z m87 -42 c13 -20 -5 -37 -39 -37
-34 0 -48 20 -28 42 20 22 52 20 67 -5z"/>
<path d="M3872 1553 c-6 -3 -10 -9 -6 -14 3 -5 -2 -9 -11 -9 -10 0 -15 -6 -13
-17 2 -10 10 -17 17 -15 10 2 12 -14 9 -63 -3 -62 -2 -65 20 -65 21 0 22 3 22
89 0 89 -6 105 -38 94z"/>
<path d="M5970 6024 c0 -8 -49 -66 -109 -127 -60 -62 -121 -124 -135 -140 -14
-15 -35 -31 -46 -35 -18 -7 -2 -25 129 -151 95 -91 148 -148 144 -157 -9 -24
6 -16 48 28 38 39 40 43 21 48 -12 3 -66 50 -122 104 l-100 99 92 96 c136 140
160 161 169 155 23 -14 5 14 -33 53 -45 46 -58 52 -58 27z"/>
<path d="M1257 5536 c-21 -31 -36 -56 -35 -57 2 0 12 -2 24 -3 21 -3 202 -122
243 -161 13 -13 24 -35 24 -51 2 -66 -76 -164 -132 -164 -32 0 -271 155 -271
177 0 25 -16 13 -53 -42 -20 -30 -37 -56 -37 -58 0 -1 10 -3 23 -3 12 -1 73
-36 135 -78 164 -113 194 -121 268 -75 64 39 145 168 158 249 10 70 -37 119
-242 249 -30 19 -57 43 -61 53 -6 17 -13 11 -44 -36z"/>
<path d="M6253 5497 c-91 -47 -134 -113 -136 -206 -2 -100 80 -230 170 -267
166 -70 344 59 327 237 -9 91 -87 202 -169 240 -56 26 -139 24 -192 -4z m220
-125 c108 -103 33 -274 -117 -267 -52 2 -84 21 -122 71 -35 46 -39 129 -8 171
67 89 169 99 247 25z"/>
<path d="M6795 4950 c3 -5 5 -10 3 -10 -3 0 -18 -5 -240 -89 -75 -28 -146 -51
-158 -51 -17 0 -21 -4 -15 -17 4 -10 14 -37 22 -60 15 -43 33 -65 33 -41 0 11
129 68 153 68 3 0 15 -25 26 -55 l21 -55 -52 -73 c-60 -82 -65 -87 -87 -79
-13 5 -14 3 -5 -9 7 -8 22 -42 34 -76 13 -35 26 -63 31 -63 5 0 6 6 4 13 -3 6
20 52 51 100 l57 88 30 -31 c40 -41 94 -55 137 -36 73 31 103 82 88 151 -5 21
-32 100 -59 175 -28 74 -52 141 -54 148 -3 6 -9 12 -15 12 -6 0 -8 -4 -5 -10z
m19 -231 c38 -107 39 -126 6 -147 -36 -22 -68 -5 -94 52 -27 59 -60 156 -55
160 5 4 91 34 100 35 4 1 23 -45 43 -100z"/>
<path d="M945 4901 c-22 -10 -52 -33 -66 -52 -23 -29 -119 -253 -119 -276 0
-4 -7 -21 -15 -37 -14 -27 -14 -28 5 -23 17 4 220 -64 270 -91 8 -4 41 -17 73
-27 31 -11 57 -25 57 -32 0 -39 22 3 73 142 59 159 65 199 45 267 -32 108
-212 180 -323 129z m139 -92 c23 -6 54 -26 76 -49 46 -48 47 -80 6 -192 l-28
-76 -37 13 c-41 15 -183 68 -223 84 l-27 10 25 68 c54 144 95 172 208 142z"/>
<path d="M6633 4073 c7 -63 10 -82 28 -158 14 -59 66 -175 80 -175 14 0 11 10
-20 75 -39 82 -66 193 -70 283 0 17 -6 32 -12 32 -8 0 -10 -17 -6 -57z"/>
<path d="M1029 4098 c-2 -65 -37 -202 -70 -277 -31 -68 -34 -81 -20 -81 13 0
77 157 90 221 18 88 23 159 11 159 -5 0 -10 -10 -11 -22z"/>
<path d="M698 4011 c-51 -17 -98 -53 -153 -117 -69 -82 -95 -138 -102 -224 -5
-58 -3 -73 17 -107 37 -67 111 -93 193 -68 52 16 79 30 141 75 27 19 53 34 57
32 5 -1 9 2 9 7 0 5 3 16 6 25 8 22 -17 21 -38 -1 -99 -108 -233 -155 -305
-108 -64 42 -75 168 -22 262 83 149 197 230 287 206 42 -10 58 -84 35 -153
-32 -93 -169 -213 -207 -181 -39 32 0 124 76 181 59 43 52 61 -7 20 -53 -36
-83 -77 -99 -133 -15 -52 -11 -71 17 -85 40 -21 92 2 156 68 63 65 94 130 95
197 1 44 -3 57 -25 79 -29 28 -86 39 -131 25z"/>
<path d="M6871 4004 c-55 -40 -58 -112 -8 -207 67 -127 190 -201 235 -140 6 9
12 27 12 38 0 23 -42 109 -63 129 -34 33 -72 56 -91 56 -16 -1 -13 -5 15 -20
60 -32 119 -117 119 -172 0 -21 -34 -38 -63 -30 -32 8 -131 114 -155 165 -91
193 92 239 245 61 119 -137 138 -310 40 -361 -38 -19 -114 -19 -153 2 -16 8
-32 15 -36 15 -10 0 -38 23 -96 78 -31 28 -48 38 -53 30 -11 -18 118 -119 189
-148 47 -19 124 -16 161 6 39 23 71 87 71 141 0 162 -156 354 -300 369 -33 4
-51 1 -69 -12z"/>
<path d="M986 3793 c-20 -40 -32 -73 -26 -73 13 0 72 118 67 133 -2 7 -20 -21
-41 -60z"/>
<path d="M6650 3850 c0 -19 60 -130 70 -130 6 0 -6 32 -26 70 -35 69 -44 80
-44 60z"/>
<path d="M905 3751 c-7 -13 11 -49 36 -71 11 -10 15 -21 10 -34 -7 -17 -9 -17
-37 7 -16 15 -23 27 -16 27 11 0 18 30 6 30 -12 0 -44 -21 -44 -30 0 -13 52
-72 58 -66 3 3 10 1 17 -4 8 -6 18 -5 31 5 10 8 14 15 7 15 -21 0 -2 30 19 30
15 0 19 5 15 20 -3 13 1 24 14 30 19 11 27 40 11 40 -21 0 -45 -28 -40 -48 5
-17 3 -19 -16 -13 -11 5 -31 22 -43 40 -12 17 -24 27 -28 22z"/>
<path d="M6756 3743 c-9 -28 -39 -54 -65 -56 -11 -1 -21 -5 -21 -9 0 -15 28
-20 49 -8 14 7 21 7 21 0 0 -5 7 -10 16 -10 14 0 14 3 4 15 -10 13 -10 19 5
34 12 14 14 24 7 37 -9 16 -10 16 -16 -3z"/>
<path d="M6644 3738 c-8 -12 22 -38 43 -38 10 0 11 5 4 19 -13 23 -38 34 -47
19z"/>
<path d="M6770 3702 c0 -4 5 -13 10 -18 7 -7 4 -16 -10 -29 -16 -15 -22 -16
-35 -5 -18 15 -20 13 -29 -16 -5 -16 -2 -23 13 -27 22 -5 85 33 95 58 10 27 7
38 -9 31 -8 -3 -15 -1 -15 4 0 6 -4 10 -10 10 -5 0 -10 -4 -10 -8z"/>
<path d="M915 3671 c-3 -5 -1 -12 4 -15 5 -3 11 1 15 9 6 16 -9 21 -19 6z"/>
<path d="M830 3543 c-30 -41 -60 -81 -65 -87 -6 -6 -32 -44 -59 -85 -66 -101
-109 -195 -101 -221 14 -43 39 -15 90 100 42 94 143 273 156 278 5 2 9 8 9 14
0 5 9 21 20 35 11 14 20 30 20 34 0 21 -19 3 -70 -68z"/>
<path d="M6780 3615 c0 -3 34 -60 77 -127 68 -109 153 -272 153 -294 0 -20 47
-67 59 -60 16 10 6 56 -26 121 -22 43 -166 261 -182 275 -3 3 -19 24 -35 48
-25 36 -46 53 -46 37z"/>
<path d="M6820 3604 c0 -3 6 -11 13 -19 109 -115 159 -162 194 -186 51 -35 84
-41 89 -16 2 14 -10 24 -44 39 -67 30 -129 74 -190 135 -50 51 -62 60 -62 47z"/>
<path d="M778 3536 c-37 -34 -98 -77 -135 -96 -74 -38 -84 -46 -76 -67 10 -25
91 18 158 85 79 78 128 132 124 136 -2 2 -34 -24 -71 -58z"/>
<path d="M920 3587 c0 -8 -7 -14 -16 -13 -32 2 -131 -208 -139 -294 -3 -36 0
-54 12 -66 26 -26 38 0 40 87 1 43 7 96 14 116 14 44 69 156 74 151 2 -1 -7
-34 -20 -73 -30 -90 -37 -166 -19 -225 23 -78 79 -107 129 -69 45 36 25 109
-30 109 -41 0 -55 -60 -18 -75 22 -8 28 2 13 21 -12 13 -11 17 1 24 16 11 31
-1 36 -29 6 -40 -56 -59 -85 -27 -49 53 -49 162 2 300 13 36 20 69 15 72 -5 3
-9 -1 -9 -9z"/>
<path d="M6746 3592 c-4 -6 0 -24 8 -40 27 -53 53 -168 49 -221 -3 -57 -25
-109 -50 -118 -25 -10 -66 10 -69 34 -5 29 28 49 46 28 10 -12 9 -16 -5 -21
-12 -5 -13 -9 -4 -14 15 -10 39 12 39 35 0 19 -43 40 -64 32 -9 -4 -22 -18
-28 -33 -26 -56 46 -112 99 -77 56 37 72 133 43 249 -24 90 -54 161 -64 146z"/>
<path d="M6780 3580 c0 -9 14 -42 31 -75 36 -70 58 -163 53 -226 -4 -55 8 -79
33 -63 44 27 5 165 -97 344 -11 19 -20 28 -20 20z"/>
</g>
</svg>
